<svg width="116" height="117" viewBox="0 0 116 117" fill="none" xmlns="http://www.w3.org/2000/svg">
<path d="M99.101 41.613C99.101 18.6308 80.4702 0 57.488 0C34.5058 0 15.875 18.6308 15.875 41.613C15.875 64.5952 34.5058 83.2259 57.488 83.2259C80.4702 83.2259 99.101 64.5952 99.101 41.613Z" fill="#64BDFF"/>
<path d="M61.6094 19.9392C61.6094 18.9129 62.4412 18.0811 63.4675 18.0811C64.4937 18.0811 65.3256 18.9129 65.3256 19.9392" stroke="#1E1E1E" stroke-width="0.720197" stroke-linecap="round" stroke-linejoin="round"/>
<path d="M49.2188 19.9392C49.2188 18.9129 50.0505 18.0811 51.0768 18.0811C52.1031 18.0811 52.9349 18.9129 52.9349 19.9392" stroke="#1E1E1E" stroke-width="0.720197" stroke-linecap="round" stroke-linejoin="round"/>
<path d="M72.4749 21.6751C69.9362 25.4633 64.207 28.1029 57.5452 28.1029C50.8834 28.1029 44.9814 25.3805 42.5039 21.5059" stroke="#1E1E1E" stroke-width="0.720197" stroke-linecap="round" stroke-linejoin="round"/>
<path d="M31.4338 111.379L23.4648 116.629H50.2274L51.0376 111.379H31.4338Z" fill="#1E1E1E"/>
<path d="M77.8181 70.043L83.5508 111.217L91.5198 116.629H64.7573L58.3188 76.1934H56.6659L50.2274 116.629H23.4648L31.4338 111.217L37.1666 70.043" stroke="#1E1E1E" stroke-width="0.720197" stroke-linecap="round" stroke-linejoin="round"/>
<path d="M83.549 111.379L91.5181 116.629H64.7555L63.9453 111.379H83.549Z" fill="#1E1E1E"/>
<path d="M28.1424 44.6123C28.1424 44.6123 17.0513 48.3105 13.6844 48.8615C12.5717 49.0451 9.20843 48.703 6.63733 49.1279C4.19947 49.5312 -0.164938 51.7927 0.411219 54.0181C0.89015 55.8726 4.27507 56.798 8.7835 53.6004" stroke="#1E1E1E" stroke-width="0.720197" stroke-linecap="round" stroke-linejoin="round"/>
<path d="M30.7206 55.9521C30.7206 55.9521 22.2655 57.5546 15.24 61.6561C14.5702 62.0486 13.778 62.1746 13.0182 62.009L12.4492 61.883" stroke="#1E1E1E" stroke-width="0.720197" stroke-linecap="round" stroke-linejoin="round"/>
<path d="M111.552 54.6309C111.552 54.6309 112.672 55.6535 113.439 57.8933C114.202 60.1368 116.295 64.8252 115.07 65.6391C113.846 66.4529 111.858 66.8634 110.738 61.8652" stroke="#1E1E1E" stroke-width="0.720197" stroke-linecap="round" stroke-linejoin="round"/>
<path d="M106.965 62.125C106.965 62.125 109.309 69.4854 112.672 66.1365" stroke="#1E1E1E" stroke-width="0.720197" stroke-linecap="round" stroke-linejoin="round"/>
<path d="M103.398 62.4805C103.398 62.4805 105.811 70.1758 109.063 66.5064" stroke="#1E1E1E" stroke-width="0.720197" stroke-linecap="round" stroke-linejoin="round"/>
<path d="M88.1484 57.958L98.5985 59.6613C98.5985 59.6613 101.602 70.457 105.203 66.1394" stroke="#1E1E1E" stroke-width="0.720197" stroke-linecap="round" stroke-linejoin="round"/>
<path d="M86.6523 44.6133C86.6523 44.6133 99.3926 49.4818 104.337 49.615" stroke="#1E1E1E" stroke-width="0.720197" stroke-linecap="round" stroke-linejoin="round"/>
</svg>
