<svg width="317" height="323" viewBox="0 0 317 323" fill="none" xmlns="http://www.w3.org/2000/svg">
<path d="M245.677 0H66.7971C56.9167 0 48.9072 8.00963 48.9072 17.89V196.77C48.9072 206.65 56.9167 214.66 66.7971 214.66H245.677C255.558 214.66 263.567 206.65 263.567 196.77V17.89C263.567 8.00963 255.558 0 245.677 0Z" fill="#98D81E"/>
<path d="M167.127 60.76C167.087 57.91 169.358 55.5601 172.208 55.5201C175.058 55.4801 177.408 57.75 177.448 60.6" stroke="#1E1E1E" stroke-width="2" stroke-linecap="round" stroke-linejoin="round"/>
<path d="M132.727 61.3001C132.687 58.4501 134.957 56.1001 137.807 56.0601C140.657 56.0201 143.007 58.2901 143.047 61.1401" stroke="#1E1E1E" stroke-width="2" stroke-linecap="round" stroke-linejoin="round"/>
<path d="M164.317 71.1201C164.397 76.2101 160.337 80.4001 155.247 80.4801C150.157 80.5601 145.967 76.5001 145.887 71.4101L164.317 71.1201Z" stroke="#1E1E1E" stroke-width="2" stroke-linecap="round" stroke-linejoin="round"/>
<path d="M73.2572 125.8L25.1872 145.76C25.1872 145.76 15.8271 131.65 11.0771 135.32C8.57707 137.25 13.2072 147.9 13.2072 147.9C13.2072 147.9 -0.742827 153.32 1.18717 157.57C3.10717 161.82 16.4472 157.61 16.4472 157.61C16.4472 157.61 -0.132866 164.83 2.64713 169.88C5.42713 174.93 21.0771 168.32 21.0771 168.32C21.0771 168.32 4.99705 177.11 9.30705 180.42C13.617 183.72 30.697 177.5 58.797 166.01" stroke="#1E1E1E" stroke-width="2" stroke-linecap="round" stroke-linejoin="round"/>
<path d="M83.8672 306.5L61.7373 321.08H136.057L138.307 306.5H83.8672Z" fill="#1E1E1E"/>
<path d="M212.677 191.71L228.607 306.05L250.737 321.08H176.417L158.527 208.79H153.947L136.057 321.08H61.7373L83.8672 306.05L99.7871 191.71" stroke="#1E1E1E" stroke-width="2" stroke-linecap="round" stroke-linejoin="round"/>
<path d="M228.607 306.5L250.737 321.08H176.417L174.157 306.5H228.607Z" fill="#1E1E1E"/>
<path d="M304.887 148.91C304.887 148.91 307.997 151.75 310.127 157.97C312.257 164.19 318.057 177.22 314.657 179.48C311.257 181.74 305.737 182.88 302.627 169" stroke="#1E1E1E" stroke-width="2" stroke-linecap="round" stroke-linejoin="round"/>
<path d="M292.147 169.72C292.147 169.72 298.658 190.16 307.998 180.86" stroke="#1E1E1E" stroke-width="2" stroke-linecap="round" stroke-linejoin="round"/>
<path d="M282.237 170.71C282.237 170.71 288.937 192.08 297.967 181.89" stroke="#1E1E1E" stroke-width="2" stroke-linecap="round" stroke-linejoin="round"/>
<path d="M239.887 158.15L268.907 162.88C268.907 162.88 277.247 192.86 287.247 180.87" stroke="#1E1E1E" stroke-width="2" stroke-linecap="round" stroke-linejoin="round"/>
<path d="M235.737 121.09C235.737 121.09 271.117 134.61 284.847 134.98" stroke="#1E1E1E" stroke-width="2" stroke-linecap="round" stroke-linejoin="round"/>
</svg>
