<svg width="118" height="116" viewBox="0 0 118 116" fill="none" xmlns="http://www.w3.org/2000/svg">
<path d="M92.2159 0H27.8015C24.2436 0 21.3594 2.88425 21.3594 6.44216V70.8565C21.3594 74.4144 24.2436 77.2987 27.8015 77.2987H92.2159C95.7738 77.2987 98.658 74.4144 98.658 70.8565V6.44216C98.658 2.88425 95.7738 0 92.2159 0Z" fill="#FFB9FF"/>
<path d="M63.9299 21.8793C63.9155 20.853 64.7329 20.0068 65.7592 19.9924C66.7855 19.978 67.6317 20.7954 67.6461 21.8217" stroke="#1E1E1E" stroke-width="0.720197" stroke-linecap="round" stroke-linejoin="round"/>
<path d="M51.5432 22.0736C51.5288 21.0473 52.3461 20.2011 53.3724 20.1867C54.3987 20.1723 55.2449 20.9897 55.2593 22.016" stroke="#1E1E1E" stroke-width="0.720197" stroke-linecap="round" stroke-linejoin="round"/>
<path d="M62.9178 25.6104C62.9466 27.4433 61.4847 28.9521 59.6518 28.9809C57.8189 29.0097 56.3101 27.5477 56.2812 25.7148L62.9178 25.6104Z" stroke="#1E1E1E" stroke-width="0.720197" stroke-linecap="round" stroke-linejoin="round"/>
<path d="M33.9494 110.37L25.9805 115.62H52.7429L53.5531 110.37H33.9494Z" fill="#1E1E1E"/>
<path d="M80.3337 69.0342L86.07 110.208L94.039 115.62H67.2765L60.8343 75.1847H59.1851L52.7429 115.62H25.9805L33.9494 110.208L39.6821 69.0342" stroke="#1E1E1E" stroke-width="0.720197" stroke-linecap="round" stroke-linejoin="round"/>
<path d="M86.0683 110.37L94.0373 115.62H67.2748L66.4609 110.37H86.0683Z" fill="#1E1E1E"/>
<path d="M113.536 53.6221C113.536 53.6221 114.656 54.6447 115.423 56.8846C116.19 59.1244 118.279 63.8165 117.055 64.6303C115.83 65.4441 113.843 65.8546 112.723 60.8564" stroke="#1E1E1E" stroke-width="0.720197" stroke-linecap="round" stroke-linejoin="round"/>
<path d="M108.949 61.1152C108.949 61.1152 111.293 68.4756 114.657 65.1267" stroke="#1E1E1E" stroke-width="0.720197" stroke-linecap="round" stroke-linejoin="round"/>
<path d="M105.383 61.4717C105.383 61.4717 107.795 69.167 111.047 65.4976" stroke="#1E1E1E" stroke-width="0.720197" stroke-linecap="round" stroke-linejoin="round"/>
<path d="M90.1328 56.9492L100.583 58.6525C100.583 58.6525 103.586 69.4482 107.187 65.1307" stroke="#1E1E1E" stroke-width="0.720197" stroke-linecap="round" stroke-linejoin="round"/>
<path d="M88.6367 43.6035C88.6367 43.6035 101.377 48.472 106.321 48.6053" stroke="#1E1E1E" stroke-width="0.720197" stroke-linecap="round" stroke-linejoin="round"/>
<path d="M28.1424 40.9912C28.1424 40.9912 17.0514 44.6894 13.6845 45.2404C12.5718 45.424 9.20843 45.0819 6.63733 45.5068C4.19947 45.9102 -0.164938 48.1716 0.411219 50.397C0.89015 52.2515 4.27507 53.1769 8.7835 49.9793" stroke="#1E1E1E" stroke-width="0.720197" stroke-linecap="round" stroke-linejoin="round"/>
<path d="M30.7168 52.3301C30.7168 52.3301 22.2616 53.9325 15.2361 58.034C14.5663 58.4265 13.7741 58.5526 13.0143 58.3869L12.4453 58.2609" stroke="#1E1E1E" stroke-width="0.720197" stroke-linecap="round" stroke-linejoin="round"/>
</svg>
