<svg width="322" height="325" viewBox="0 0 322 325" fill="none" xmlns="http://www.w3.org/2000/svg">
<path d="M275.205 115.56C275.205 51.738 223.467 0 159.645 0C95.823 0 44.085 51.738 44.085 115.56C44.085 179.382 95.823 231.12 159.645 231.12C223.467 231.12 275.205 179.382 275.205 115.56Z" fill="#8D8DFF"/>
<path d="M171.096 55.3699C171.096 52.5199 173.406 50.21 176.256 50.21C179.106 50.21 181.416 52.5199 181.416 55.3699" stroke="#1E1E1E" stroke-width="2" stroke-linecap="round" stroke-linejoin="round"/>
<path d="M136.686 55.3699C136.686 52.5199 138.995 50.21 141.845 50.21C144.695 50.21 147.005 52.5199 147.005 55.3699" stroke="#1E1E1E" stroke-width="2" stroke-linecap="round" stroke-linejoin="round"/>
<path d="M201.265 60.1897C194.215 70.7097 178.305 78.0397 159.805 78.0397C141.305 78.0397 124.915 70.4797 118.035 59.7197" stroke="#1E1E1E" stroke-width="2" stroke-linecap="round" stroke-linejoin="round"/>
<path d="M87.2852 309.3L65.1553 323.88H139.475L141.725 309.3H87.2852Z" fill="#1E1E1E"/>
<path d="M216.095 194.51L232.015 308.85L254.145 323.88H179.825L161.945 211.59H157.355L139.475 323.88H65.1553L87.2852 308.85L103.205 194.51" stroke="#1E1E1E" stroke-width="2" stroke-linecap="round" stroke-linejoin="round"/>
<path d="M232.015 309.3L254.145 323.88H179.825L177.575 309.3H232.015Z" fill="#1E1E1E"/>
<path d="M78.155 123.89C78.155 123.89 47.3548 134.16 38.0048 135.69C34.9148 136.2 25.575 135.25 18.435 136.43C11.665 137.55 -0.455051 143.83 1.14495 150.01C2.47495 155.16 11.8749 157.73 24.3949 148.85" stroke="#1E1E1E" stroke-width="2" stroke-linecap="round" stroke-linejoin="round"/>
<path d="M85.3054 155.38C85.3054 155.38 61.8254 159.83 42.3154 171.22C40.4554 172.31 38.2555 172.66 36.1455 172.2L34.5654 171.85" stroke="#1E1E1E" stroke-width="2" stroke-linecap="round" stroke-linejoin="round"/>
<path d="M309.784 151.71C309.784 151.71 312.894 154.55 315.024 160.77C317.144 167 322.954 180.02 319.554 182.28C316.154 184.54 310.634 185.68 307.524 171.8" stroke="#1E1E1E" stroke-width="2" stroke-linecap="round" stroke-linejoin="round"/>
<path d="M297.045 172.52C297.045 172.52 303.555 192.96 312.895 183.66" stroke="#1E1E1E" stroke-width="2" stroke-linecap="round" stroke-linejoin="round"/>
<path d="M287.135 173.51C287.135 173.51 293.835 194.88 302.865 184.69" stroke="#1E1E1E" stroke-width="2" stroke-linecap="round" stroke-linejoin="round"/>
<path d="M244.785 160.95L273.805 165.68C273.805 165.68 282.145 195.66 292.145 183.67" stroke="#1E1E1E" stroke-width="2" stroke-linecap="round" stroke-linejoin="round"/>
<path d="M240.635 123.89C240.635 123.89 276.015 137.41 289.745 137.78" stroke="#1E1E1E" stroke-width="2" stroke-linecap="round" stroke-linejoin="round"/>
</svg>
