<svg width="718" height="358" viewBox="0 0 718 358" fill="none" xmlns="http://www.w3.org/2000/svg">
<path d="M210.829 443.532C168.99 436.442 -14.1952 417.537 0.879395 357.321C51.2042 156.293 341.931 -22.473 488.131 2.30482C634.331 27.0701 746.23 200.64 766.683 413.656C772.806 477.467 737.662 532.797 695.823 525.707L210.829 443.532Z" fill="#FFB9FF"/>
<ellipse cx="421.997" cy="129.819" rx="15.5" ry="28.5" transform="rotate(25.1081 421.997 129.819)" fill="url(#paint0_linear_446_247)"/>
<circle cx="420.326" cy="116.888" r="5.5" transform="rotate(25.1081 420.326 116.888)" fill="white"/>
<circle cx="424.106" cy="125.256" r="2.5" transform="rotate(149.395 424.106 125.256)" fill="white"/>
<ellipse cx="481.763" cy="157.825" rx="15.5" ry="28.5" transform="rotate(25.1081 481.763 157.825)" fill="url(#paint1_linear_446_247)"/>
<circle cx="480.092" cy="144.894" r="5.5" transform="rotate(25.1081 480.092 144.894)" fill="white"/>
<circle cx="483.872" cy="153.262" r="2.5" transform="rotate(149.395 483.872 153.262)" fill="white"/>
<path d="M392.122 210.459C391.529 210.082 389.752 208.73 387.698 206.082C386.422 204.437 386.165 202.506 385.826 199.579C385.671 198.244 385.866 197.38 386.086 196.887C386.308 196.392 386.768 196.082 387.343 195.849C389.154 195.115 390.968 195.687 392.622 196.702C393.012 196.941 393.196 197.152 393.213 197.157C394.359 197.495 391.298 193.693 390.882 191.907C390.5 190.265 390.895 188.868 391.137 188.289C391.67 187.016 392.878 186.403 393.986 185.939C395.749 185.2 397.309 185.673 398.521 186.28C399.268 186.654 401.017 188.209 403.41 190.34C404.876 191.811 405.595 192.674 405.992 193.181C406.175 193.405 406.321 193.561 406.471 193.722" stroke="black" stroke-width="4" stroke-linecap="round"/>
<defs>
<linearGradient id="paint0_linear_446_247" x1="421.644" y1="158.319" x2="424.032" y2="101.389" gradientUnits="userSpaceOnUse">
<stop/>
<stop offset="1" stop-color="#4B4B4B"/>
</linearGradient>
<linearGradient id="paint1_linear_446_247" x1="481.409" y1="186.325" x2="483.797" y2="129.395" gradientUnits="userSpaceOnUse">
<stop/>
<stop offset="1" stop-color="#4B4B4B"/>
</linearGradient>
</defs>
</svg>
