<svg width="285" height="238" viewBox="0 0 285 238" fill="none" xmlns="http://www.w3.org/2000/svg">
<path d="M269.307 68.5503C278.752 68.5503 285.96 76.8443 284.81 86.2022C276.103 157.092 215.7 211.98 142.465 211.98C69.2302 211.98 8.80543 157.092 0.120585 86.224C-1.03016 76.8661 6.19997 68.572 15.623 68.572H269.307V68.5503Z" fill="#98D81E"/>
<path d="M212.986 237.579C212.378 237.579 211.77 237.492 211.162 237.318L64.6268 194.437C61.1746 193.416 59.1988 189.812 60.1976 186.36C61.218 182.908 64.8223 180.932 68.2745 181.93L214.81 224.812C218.262 225.832 220.238 229.437 219.239 232.889C218.414 235.733 215.808 237.579 212.986 237.579Z" fill="#1E1E1E"/>
<path d="M66.4292 237.579C63.6066 237.579 61.0228 235.734 60.1761 232.889C59.1556 229.437 61.1531 225.811 64.6053 224.812L211.14 181.931C214.593 180.91 218.219 182.908 219.217 186.36C220.216 189.812 218.24 193.438 214.788 194.437L68.253 237.318C67.645 237.492 67.0371 237.579 66.4292 237.579Z" fill="#1E1E1E"/>
<path d="M121.166 179.238C118.365 179.238 115.455 179.021 112.416 178.565C94.7853 175.96 78.6315 166.776 68.1011 153.357C51.1006 131.711 50.5577 100.445 66.7116 73.7608C70.7717 67.0301 75.6569 60.6468 80.3685 54.4589C90.4646 41.2145 100.018 28.6866 102.189 13.3144L102.254 12.9236C102.602 10.4267 103.123 6.64874 105.967 3.65247C108.421 1.06873 114.066 -2.49207 124.335 2.54513C142.726 11.5557 158.749 24.7132 171.147 40.9104C171.711 39.8248 172.319 38.7176 172.992 37.6102C177.248 30.6189 183.349 26.841 189.711 27.2535C196.637 27.6878 201.218 32.725 204.431 37.0457C218.696 56.2175 227.62 79.8837 229.574 103.68C230.812 118.683 229.466 139.809 216.026 155.246C209.013 163.302 198.982 169.468 185.347 174.093C180.526 175.721 175.923 176.893 171.668 177.545C161.702 179.086 152.909 177.979 145.57 174.288C144.767 173.875 143.985 173.441 143.225 172.985C142.031 173.789 140.772 174.549 139.447 175.222C134.171 177.914 128.048 179.26 121.166 179.26V179.238ZM115.412 13.0972C115.325 13.5966 115.238 14.2263 115.151 14.704L115.086 15.1381C112.437 33.8757 101.408 48.3577 90.7251 62.362C86.0136 68.5499 81.5626 74.3906 77.8499 80.5134C64.5186 102.529 64.714 127.976 78.3275 145.324C86.817 156.158 99.9311 163.562 114.304 165.69C121.708 166.776 127.918 166.189 132.803 163.953C130.198 160.935 128.027 157.808 126.181 154.964C117.366 141.372 113.697 129.822 114.63 118.618C115.781 104.744 126.832 89.7627 142.661 89.7193H142.704C158.901 89.7193 169.909 105.091 170.843 119.356C171.798 134.077 164.286 147.387 158.532 156.115C156.947 158.525 155.21 161.022 153.256 163.454C157.794 165.234 163.309 165.625 169.67 164.648C173.188 164.105 177.052 163.128 181.156 161.738C192.555 157.874 200.74 152.945 206.19 146.692C216.634 134.685 217.611 117.25 216.59 104.744C214.832 83.3359 206.798 62.0364 193.966 44.8187C191.23 41.1493 189.667 40.3025 188.864 40.2591C187.778 40.1939 185.824 41.5835 184.109 44.3844C183.436 45.4917 182.828 46.6642 182.242 47.815C180.678 50.8329 178.898 54.2417 175.967 57.1511C174.577 58.519 172.645 59.2137 170.691 58.9966C168.737 58.7795 167 57.7157 165.914 56.0873C154.211 38.1531 137.84 23.6928 118.603 14.2697C117.127 13.5532 116.041 13.2275 115.39 13.1189L115.412 13.0972ZM142.726 102.768C134.67 102.768 128.331 111.714 127.657 119.704C126.984 127.867 130.002 136.813 137.146 147.864C138.752 150.339 140.641 153.075 142.878 155.616C144.658 153.466 146.243 151.165 147.698 148.972C152.409 141.807 158.597 131.037 157.881 120.203C157.338 111.952 150.998 102.747 142.747 102.747L142.726 102.768Z" fill="#1E1E1E"/>
</svg>
