<svg width="280" height="251" viewBox="0 0 280 251" fill="none" xmlns="http://www.w3.org/2000/svg">
<path d="M248.704 0H76.744C59.4766 0 45.4785 13.998 45.4785 31.2654V203.225C45.4785 220.493 59.4766 234.491 76.744 234.491H248.704C265.971 234.491 279.969 220.493 279.969 203.225V31.2654C279.969 13.998 265.971 0 248.704 0Z" fill="#F6D307"/>
<path d="M118.279 201.728C117.606 201.728 116.933 201.619 116.281 201.402C103.45 197.255 91.1386 190.264 81.6504 181.709C72.8353 173.763 68.7318 163.666 70.0562 153.288C71.2721 143.8 77.2428 134.789 84.9072 130.816C92.5716 126.843 103.384 127.19 111.83 131.684C121.08 136.591 126.942 145.776 128.353 157.565C129.83 169.985 128.614 183.272 124.814 195.952L124.597 196.843C124.141 198.579 123.012 200.056 121.427 200.946C120.45 201.489 119.364 201.749 118.279 201.749V201.728ZM97.1311 141.064C94.6777 141.064 92.4847 141.563 90.8998 142.367C87.5561 144.104 83.7564 148.967 82.9965 154.938C82.2149 161.039 84.7553 166.967 90.3787 172.026C96.9358 177.931 105.078 182.99 113.806 186.616C115.891 177.41 116.455 167.813 115.435 159.063C114.544 151.551 111.201 146.058 105.751 143.17C102.95 141.672 99.8886 141.064 97.1529 141.064H97.1311Z" fill="#1E1E1E"/>
<path d="M161.963 98.7254C171.58 98.7254 179.376 90.9293 179.376 81.3123C179.376 71.6953 171.58 63.8992 161.963 63.8992C152.346 63.8992 144.55 71.6953 144.55 81.3123C144.55 90.9293 152.346 98.7254 161.963 98.7254Z" fill="#1E1E1E"/>
<path d="M99.671 95.3165C109.288 95.3165 117.084 87.5203 117.084 77.9033C117.084 68.2864 109.288 60.4902 99.671 60.4902C90.054 60.4902 82.2578 68.2864 82.2578 77.9033C82.2578 87.5203 90.054 95.3165 99.671 95.3165Z" fill="#1E1E1E"/>
<path d="M204.649 144.95C214.266 144.95 222.063 137.154 222.063 127.537C222.063 117.92 214.266 110.124 204.649 110.124C195.032 110.124 187.236 117.92 187.236 127.537C187.236 137.154 195.032 144.95 204.649 144.95Z" fill="#1E1E1E"/>
<path d="M80.4128 250.146C60.5245 250.146 36.2503 239.529 24.4172 227.261C-10.8215 190.698 -4.15593 131.728 20.6176 92.3638C50.0158 45.7045 98.1514 25.9248 152.67 38.0836C201.24 48.9179 238.412 87.1964 243.101 131.163C244.339 142.779 242.971 154.938 239.15 166.359C227.664 200.642 197.68 222.398 164.547 220.509C153.604 219.879 142.227 217.143 130.72 212.367L130.351 212.215C128.201 211.346 126.247 210.543 124.488 209.783C123.533 212.931 122.339 216.188 120.927 219.488C114.327 234.926 104.578 244.935 92.7669 248.496C88.9673 249.625 84.7986 250.146 80.3911 250.146H80.4128ZM121.644 47.6152C93.2229 47.6152 57.8103 57.7982 31.669 99.3117C13.7999 127.668 -0.378122 182.751 33.8184 218.229C45.1522 229.975 73.4432 240.723 89.0542 236.011C99.1503 232.971 105.468 222.571 108.964 214.364C111.331 208.828 112.959 203.573 113.763 198.775C114.371 195.236 117.758 192.848 121.275 193.434C122.838 193.694 124.184 194.498 125.14 195.605C126.117 196.148 128.744 197.494 135.279 200.143L135.735 200.338C145.875 204.55 155.819 206.96 165.285 207.503C196.681 209.284 218.827 186.052 226.796 162.212C230.031 152.572 231.182 142.302 230.139 132.531C226.036 94.0574 193.012 60.4253 149.826 50.7852C141.988 49.0265 132.283 47.5935 121.601 47.5935L121.644 47.6152ZM126.616 200.946V200.859C126.616 200.859 126.616 200.924 126.616 200.946Z" fill="#1E1E1E"/>
</svg>
