<svg width="139" height="77" viewBox="0 0 139 77" fill="none" xmlns="http://www.w3.org/2000/svg">
<path d="M133.47 13.98H85.5191C82.8798 13.98 80.7402 16.1196 80.7402 18.7589V55.9582C80.7402 58.5975 82.8798 60.7371 85.5191 60.7371H133.47C136.11 60.7371 138.249 58.5975 138.249 55.9582V18.7589C138.249 16.1196 136.11 13.98 133.47 13.98Z" fill="#1E1E1E"/>
<path d="M56.5544 29.3438H8.60309C5.96379 29.3438 3.82422 31.4833 3.82422 34.1226V71.322C3.82422 73.9613 5.96379 76.1009 8.60309 76.1009H56.5544C59.1937 76.1009 61.3333 73.9613 61.3333 71.322V34.1226C61.3333 31.4833 59.1937 29.3438 56.5544 29.3438Z" fill="#1E1E1E"/>
<path d="M56.7729 28.0002C57.3928 28.8064 57.7612 29.8163 57.7612 30.9108V68.1124C57.7612 70.7521 55.6221 72.8912 52.9823 72.8912H5.02887C2.38912 72.8912 0.25 70.7521 0.25 68.1124V30.9108C0.25 28.2711 2.38912 26.132 5.02887 26.132H32.0376" fill="#F6D307"/>
<path d="M56.7729 28.0002C57.3928 28.8064 57.7612 29.8163 57.7612 30.9108V68.1124C57.7612 70.7521 55.6221 72.8912 52.9823 72.8912H5.02887C2.38912 72.8912 0.25 70.7521 0.25 68.1124V30.9108C0.25 28.2711 2.38912 26.132 5.02887 26.132H32.0376" stroke="#1E1E1E" stroke-width="0.5" stroke-linecap="round" stroke-linejoin="round"/>
<path d="M0.654297 34.2593H16.5405" stroke="#1E1E1E" stroke-width="0.5" stroke-linecap="round" stroke-linejoin="round"/>
<path d="M4.60931 31.4938C5.27482 31.4938 5.81432 30.9543 5.81432 30.2888C5.81432 29.6232 5.27482 29.0837 4.60931 29.0837C3.9438 29.0837 3.4043 29.6232 3.4043 30.2888C3.4043 30.9543 3.9438 31.4938 4.60931 31.4938Z" fill="#64BDFF"/>
<path d="M8.68158 31.4938C9.34709 31.4938 9.88659 30.9543 9.88659 30.2888C9.88659 29.6232 9.34709 29.0837 8.68158 29.0837C8.01606 29.0837 7.47656 29.6232 7.47656 30.2888C7.47656 30.9543 8.01606 31.4938 8.68158 31.4938Z" fill="#98D81E"/>
<path d="M12.7519 31.4938C13.4174 31.4938 13.9569 30.9543 13.9569 30.2888C13.9569 29.6232 13.4174 29.0837 12.7519 29.0837C12.0864 29.0837 11.5469 29.6232 11.5469 30.2888C11.5469 30.9543 12.0864 31.4938 12.7519 31.4938Z" fill="#FFB9FF"/>
<path d="M80.9392 9.95959H129.701C132.341 9.95959 134.48 12.0987 134.48 14.7385V51.94C134.48 54.5798 132.341 56.7189 129.701 56.7189H81.7476C79.1079 56.7189 76.9688 54.5798 76.9688 51.94V35.2259" fill="#64BDFF"/>
<path d="M80.9392 9.95959H129.701C132.341 9.95959 134.48 12.0987 134.48 14.7385V51.94C134.48 54.5798 132.341 56.7189 129.701 56.7189H81.7476C79.1079 56.7189 76.9688 54.5798 76.9688 51.94V35.2259" stroke="#1E1E1E" stroke-width="0.5" stroke-linecap="round" stroke-linejoin="round"/>
<path d="M81.4863 18.0869H134.477" stroke="#1E1E1E" stroke-width="0.5" stroke-linecap="round" stroke-linejoin="round"/>
<path d="M80.8574 13.0089C81.0005 12.9483 81.1608 12.9136 81.3256 12.9136C81.9909 12.9136 82.5306 13.4532 82.5306 14.1186C82.5306 14.7839 81.9909 15.3236 81.3256 15.3236" fill="#F6D307"/>
<path d="M85.3964 15.3215C86.0619 15.3215 86.6014 14.782 86.6014 14.1165C86.6014 13.451 86.0619 12.9115 85.3964 12.9115C84.7309 12.9115 84.1914 13.451 84.1914 14.1165C84.1914 14.782 84.7309 15.3215 85.3964 15.3215Z" fill="#FFB9FF"/>
<path d="M89.4687 15.3215C90.1342 15.3215 90.6737 14.782 90.6737 14.1165C90.6737 13.451 90.1342 12.9115 89.4687 12.9115C88.8032 12.9115 88.2637 13.451 88.2637 14.1165C88.2637 14.782 88.8032 15.3215 89.4687 15.3215Z" fill="#8D8DFF"/>
<path d="M19.2207 54.9114C19.2207 54.9114 54.3785 42.8092 57.7616 35.8132V32.1201C57.7616 32.1201 58.3316 29.9962 57.1808 28.6265C57.1808 28.6265 55.4751 31.5133 46.2403 37.935C37.0055 44.3567 18.7266 52.549 18.7266 52.549L19.2207 54.9114Z" fill="#F6D307"/>
<path d="M45.4256 9.30507C39.9206 8.76975 41.9362 20.083 38.3429 22.6837C34.7495 25.2823 15.8789 34.2766 15.8789 34.2766L18.7267 52.549C18.7267 52.549 25.7683 49.7467 37.0056 43.4377C48.243 37.1309 55.6205 31.9706 57.7618 27.6122C59.9031 23.2537 58.8519 10.833 58.8519 10.833C58.8519 10.833 58.5073 6.74116 55.7549 6.91455L55.3539 6.96656C55.3539 6.96656 54.8099 3.81749 51.999 4.01904C51.0844 4.08406 50.5187 4.71475 50.1633 5.60767L50.0766 5.8244C50.0766 5.8244 49.2162 3.96053 47.2092 4.73425C45.5859 5.3606 45.5578 6.84953 45.4386 9.04933L45.4234 9.3029L45.4256 9.30507Z" fill="white" stroke="#1E1E1E" stroke-width="0.25" stroke-miterlimit="10"/>
<path d="M15.8789 34.2768C23.2629 30.7029 35.6641 24.6215 38.3429 22.6839C41.9362 20.0853 39.9206 8.76992 45.4256 9.30525" stroke="#1E1E1E" stroke-width="0.5" stroke-linecap="round" stroke-linejoin="round"/>
<path d="M44.1152 17.1204C44.1152 17.1204 45.0038 13.8521 45.3202 10.7269C45.6367 7.60164 45.2054 5.51021 47.2123 4.73432C49.2192 3.9606 50.0796 5.82447 50.0796 5.82447" stroke="#1E1E1E" stroke-width="0.5" stroke-linecap="round" stroke-linejoin="round"/>
<path d="M48.6152 16.9211C48.6152 16.9211 49.2741 13.4512 49.4475 10.9589C49.6209 8.46647 49.5342 4.1969 51.9984 4.02135C54.8072 3.8198 55.3533 6.65895 55.3533 6.65895" stroke="#1E1E1E" stroke-width="0.5" stroke-linecap="round" stroke-linejoin="round"/>
<path d="M18.9258 52.4212C18.9258 52.4212 25.7679 49.7446 37.0053 43.4378C48.2427 37.131 55.6202 31.9707 57.7614 27.6123C59.9027 23.2539 58.8516 10.8331 58.8516 10.8331C58.8516 10.8331 58.507 6.74128 55.7545 6.91466C53.0021 7.08588 53.2882 10.3542 53.2882 11.8734C53.2882 13.3927 53.0584 16.5179 53.0584 16.5179" stroke="#1E1E1E" stroke-width="0.5" stroke-linecap="round" stroke-linejoin="round"/>
<path d="M81.4874 18.6332L111.637 34.2767L104.14 49.0467C104.14 49.0467 71.1776 32.1961 69.7429 31.5654C68.3103 30.9347 62.6905 29.099 61.945 21.7042C61.1994 14.3094 60.5536 4.06898 65.4842 4.75601C65.5622 3.71355 65.7096 2.79028 65.9588 2.15093C67.0489 -0.65788 70.0788 -0.118224 70.6531 2.23329L70.5665 2.41968C70.7723 1.93854 71.0476 1.53325 71.4052 1.23417C74.1576 -1.05882 75.7051 1.88002 75.82 6.65889L75.7051 6.7911C76.5655 5.51023 78.0133 4.56962 79.4307 5.69878C81.3791 7.25273 80.3474 9.83181 80.8069 12.5843C81.1038 14.3658 81.5459 16.4377 81.4766 18.3926L81.4831 18.631L81.4874 18.6332Z" fill="white" stroke="#1E1E1E" stroke-width="0.25" stroke-miterlimit="10"/>
<path d="M81.4863 18.6331L111.638 34.2766" stroke="#1E1E1E" stroke-width="0.5" stroke-linecap="round" stroke-linejoin="round"/>
<path d="M104.142 49.0466C104.142 49.0466 71.1796 32.1959 69.7448 31.5652C68.3123 30.9345 62.6925 29.0989 61.9469 21.7041C61.2014 14.3093 60.5555 4.06883 65.4861 4.75586" stroke="#1E1E1E" stroke-width="0.5" stroke-linecap="round" stroke-linejoin="round"/>
<path d="M65.7307 13.2171C65.7307 13.2171 64.8702 4.95973 65.9604 2.15093C67.0505 -0.65788 70.0804 -0.118224 70.6547 2.23329" stroke="#1E1E1E" stroke-width="0.5" stroke-linecap="round" stroke-linejoin="round"/>
<path d="M70.8355 12.1854C70.8355 12.1854 68.6574 3.52705 71.4099 1.23406C74.1623 -1.05894 75.7098 1.87991 75.8246 6.65878" stroke="#1E1E1E" stroke-width="0.5" stroke-linecap="round" stroke-linejoin="round"/>
<path d="M75.0206 13.6764C75.0206 13.6764 74.5611 10.0636 75.0206 8.28639C75.4801 6.50921 77.487 4.14687 79.4354 5.70081C81.3838 7.25476 80.3521 9.83384 80.8116 12.5863C81.2711 15.3388 82.073 18.7782 80.8116 21.4158" stroke="#1E1E1E" stroke-width="0.5" stroke-linecap="round" stroke-linejoin="round"/>
<path d="M70.6543 22.7357C70.6543 22.7357 70.598 18.8368 75.184 17.0011" stroke="#1E1E1E" stroke-width="0.5" stroke-linecap="round" stroke-linejoin="round"/>
</svg>
