<svg width="273" height="235" viewBox="0 0 273 235" fill="none" xmlns="http://www.w3.org/2000/svg">
<path d="M203.225 0H31.2655C13.9981 0 0 13.9979 0 31.2654V203.225C0 220.493 13.9981 234.491 31.2655 234.491H203.225C220.493 234.491 234.491 220.493 234.491 203.225V31.2654C234.491 13.9979 220.493 0 203.225 0Z" fill="#FFB9FF"/>
<path d="M156.371 223.59C150.204 223.59 144.016 222.331 138.284 219.791L44.2059 178.299C41.8393 177.257 40.3193 174.912 40.3193 172.35V44.1832C40.3193 41.9902 41.4267 39.9493 43.2506 38.7551C45.0744 37.5393 47.3975 37.3438 49.395 38.2123L119.134 68.0447C133.291 74.1024 145.992 82.1142 157 91.9281C168.247 82.0708 181.405 73.9288 195.756 68.0014C213.929 60.4673 240.375 49.2204 263.129 38.3861C265.148 37.4307 267.515 37.561 269.404 38.7551C271.293 39.9493 272.444 42.0337 272.444 44.2701V172.372C272.444 174.955 270.924 177.3 268.557 178.321L174.479 219.812C168.725 222.353 162.558 223.612 156.392 223.612L156.371 223.59ZM53.3466 168.094L143.539 207.871C151.703 211.475 161.06 211.475 169.202 207.871L259.395 168.094V54.4964C238.768 64.028 216.6 73.4294 200.707 80.0081C187.983 85.2842 176.302 92.4492 166.293 101.069C174.674 110.145 180.363 118.547 183.185 126.103C187.354 137.198 186.377 148.054 180.406 156.674C174.956 164.533 165.512 169.809 156.892 169.809C148.272 169.809 138.827 164.533 133.377 156.674C127.407 148.054 126.43 137.198 130.598 126.103C133.008 119.698 137.503 112.62 143.93 105.064C145.102 103.674 146.318 102.328 147.577 100.982C137.785 92.4058 126.538 85.3493 113.989 79.9864L53.3249 54.0405V168.094H53.3466ZM156.914 110.101C155.871 111.23 154.851 112.359 153.874 113.532C148.424 119.915 144.689 125.69 142.822 130.684C140.152 137.762 140.608 144.189 144.103 149.248C147.534 154.198 153.136 156.782 156.914 156.782C160.691 156.782 166.293 154.198 169.723 149.248C173.241 144.189 173.675 137.762 171.005 130.684C168.812 124.844 163.948 117.765 156.914 110.101Z" fill="#1E1E1E"/>
<path d="M156.957 107.279C154.807 107.279 152.701 106.215 151.442 104.26C151.029 103.609 111.101 41.4691 65.4618 25.9666V45.8985C65.4618 49.5027 62.5524 52.4121 58.9482 52.4121C55.344 52.4121 52.4346 49.5027 52.4346 45.8985V17.4121C52.4346 15.4363 53.3247 13.5908 54.8446 12.3532C56.3644 11.1156 58.362 10.6379 60.2943 11.0504C114.466 22.5796 160.496 94.2296 162.428 97.2693C164.36 100.309 163.449 104.326 160.431 106.258C159.345 106.953 158.129 107.279 156.935 107.279H156.957Z" fill="#1E1E1E"/>
<path d="M156.935 107.279C155.741 107.279 154.525 106.953 153.439 106.258C150.4 104.326 149.509 100.309 151.442 97.2693C153.374 94.2296 199.404 22.5796 253.576 11.0504C255.486 10.6379 257.505 11.1156 259.025 12.3532C260.545 13.5908 261.435 15.458 261.435 17.4121V45.8985C261.435 49.5027 258.526 52.4121 254.922 52.4121C251.318 52.4121 248.408 49.5027 248.408 45.8985V25.9666C202.791 41.4691 162.862 103.587 162.428 104.26C161.191 106.215 159.085 107.279 156.913 107.279H156.935Z" fill="#1E1E1E"/>
</svg>
