<svg width="17" height="19" viewBox="0 0 17 19" fill="none" xmlns="http://www.w3.org/2000/svg">
<path d="M11.5542 3.72387C10.4447 3.72387 9.30508 4.15314 8.16736 4.99929L7.84204 5.24169L7.15198 4.89423C6.96737 4.80117 5.98275 4.33738 4.73659 4.33738C3.20113 4.33738 1.86867 5.03532 0.984241 6.30286C0.351219 7.21018 0.0108818 8.23457 0 9.26722V18.4942C0 18.5832 0.072047 18.6556 0.161353 18.6556H16.0488C16.1377 18.6556 16.2102 18.5836 16.2102 18.4942V8.86121C16.2102 7.82781 15.9216 6.83307 15.3756 5.98428C14.4383 4.52687 13.0811 3.72424 11.5539 3.72387H11.5542ZM6.37862 6.90736C5.42327 7.86234 4.35498 10.1062 4.35498 11.6796C4.35498 12.9704 5.05216 15.4121 7.69157 15.4121C10.1546 15.4121 11.2574 13.4226 11.2574 11.4507C11.2574 9.47885 9.24766 6.82894 9.2274 6.8023L9.08782 6.62031L9.27169 6.48372C10.0829 5.87997 10.851 5.57378 11.5546 5.57378C12.4432 5.57378 13.227 6.06196 13.8207 6.98504C14.1741 7.53476 14.361 8.18354 14.361 8.86159V16.8064H1.86529V9.28898C1.87242 8.62369 2.09831 7.93888 2.50131 7.36102C3.03752 6.59292 3.81051 6.18654 4.73697 6.18654C5.59701 6.18654 6.29156 6.531 6.32046 6.54601L6.59926 6.68635L6.37824 6.90736H6.37862ZM7.69157 13.5625C6.51746 13.5625 6.20414 12.379 6.20414 11.6796C6.20414 10.8136 6.84955 9.45108 7.38726 8.62557C7.52309 8.41693 7.67843 8.22219 7.85104 8.0432L7.86943 8.06496C7.98538 8.20155 8.09194 8.34601 8.188 8.49723C8.68707 9.28147 9.40752 10.6447 9.40752 11.4503C9.40752 12.7925 8.782 13.5625 7.69119 13.5625H7.69157Z" fill="#F6DDE1"/>
<path d="M4.48472 3.57927C5.26784 3.57927 5.90498 2.94212 5.90498 2.159C5.90498 1.37589 5.26784 0.738739 4.48472 0.738739C3.70161 0.738739 3.06445 1.37589 3.06445 2.159C3.06445 2.94212 3.70161 3.57927 4.48472 3.57927Z" fill="#F6DDE1"/>
<path d="M11.8578 2.84053C12.6409 2.84053 13.278 2.20338 13.278 1.42026C13.278 0.637149 12.6409 0 11.8578 0C11.0747 0 10.4375 0.637149 10.4375 1.42026C10.4375 2.20338 11.0747 2.84053 11.8578 2.84053Z" fill="#F6DDE1"/>
</svg>
