<svg width="1291" height="438" viewBox="0 0 1291 438" fill="none" xmlns="http://www.w3.org/2000/svg">
<path d="M507.143 192.42C500.373 185.56 492.233 180.08 482.943 176.14C473.643 172.2 463.332 170.2 452.272 170.2C445.902 170.2 439.813 170.89 434.173 172.25C428.543 173.61 423.193 175.54 418.263 177.98C413.313 180.43 408.753 183.39 404.713 186.78C402.303 188.8 400.043 190.95 397.943 193.23V122.73C397.943 121.5 396.943 120.5 395.713 120.5H374.573C373.343 120.5 372.343 121.5 372.343 122.73V316.05C372.343 317.28 373.343 318.28 374.573 318.28H392.973C394.153 318.28 395.123 317.37 395.203 316.19L396.353 298.02C398.513 300.4 400.902 302.68 403.482 304.85C407.622 308.33 412.243 311.38 417.223 313.92C422.193 316.45 427.653 318.5 433.473 320C439.313 321.5 445.503 322.27 451.883 322.27C462.933 322.27 473.273 320.27 482.613 316.33C491.943 312.39 500.133 306.91 506.943 300.06C513.753 293.21 519.152 285.07 523.002 275.87C526.852 266.67 528.803 256.68 528.803 246.18C528.803 235.68 526.873 225.72 523.073 216.56C519.273 207.41 513.913 199.29 507.153 192.44L507.143 192.42ZM503.042 246.16C503.042 253.78 501.653 260.9 498.903 267.32C496.143 273.75 492.333 279.38 487.583 284.04C482.823 288.71 477.163 292.44 470.783 295.11C464.413 297.77 457.443 299.13 450.093 299.13C442.743 299.13 435.873 297.8 429.443 295.18C423.023 292.56 417.353 288.84 412.593 284.13C407.833 279.42 404.023 273.76 401.263 267.33C398.513 260.91 397.123 253.79 397.123 246.17C397.123 238.55 398.513 231.57 401.263 225.15C404.013 218.72 407.843 213.1 412.643 208.43C417.453 203.75 423.132 200.03 429.522 197.36C435.902 194.7 442.863 193.34 450.223 193.34C457.583 193.34 464.543 194.69 470.923 197.35C477.303 200.02 482.933 203.74 487.653 208.41C492.363 213.08 496.153 218.71 498.913 225.14C501.663 231.56 503.062 238.63 503.062 246.16H503.042Z" fill="black"/>
<path d="M680.343 174.04H659.062C657.832 174.04 656.833 175.04 656.833 176.27V249.45C656.833 266.45 653.063 279.1 645.623 287.06C638.223 294.97 627.363 298.98 613.343 298.98C599.323 298.98 588.133 294.93 580.873 286.94C573.563 278.89 569.853 266.28 569.853 249.45V176.27C569.853 175.04 568.853 174.04 567.623 174.04H546.343C545.113 174.04 544.113 175.04 544.113 176.27V250.14C544.113 262.24 545.723 272.91 548.913 281.85C552.123 290.87 556.803 298.47 562.833 304.45C568.863 310.43 576.263 314.93 584.833 317.82C593.313 320.68 602.903 322.12 613.353 322.12C623.803 322.12 633.393 320.67 641.873 317.82C650.443 314.93 657.843 310.43 663.873 304.45C669.893 298.47 674.582 290.87 677.792 281.85C680.972 272.91 682.593 262.24 682.593 250.14V176.27C682.593 175.04 681.593 174.04 680.363 174.04H680.343Z" fill="black"/>
<path d="M851.963 120.49H830.953C829.723 120.49 828.723 121.49 828.723 122.72V193.32C826.613 191.08 824.323 188.93 821.873 186.9C817.783 183.52 813.233 180.54 808.353 178.05C803.453 175.56 798.093 173.6 792.413 172.24C786.723 170.88 780.663 170.19 774.383 170.19C763.333 170.19 752.993 172.19 743.653 176.13C734.323 180.07 726.153 185.55 719.383 192.41C712.613 199.27 707.283 207.39 703.533 216.54C699.773 225.69 697.873 235.65 697.873 246.15C697.873 256.65 699.823 266.64 703.673 275.84C707.523 285.04 712.922 293.18 719.732 300.03C726.542 306.89 734.732 312.36 744.062 316.3C753.403 320.24 763.693 322.24 774.653 322.24C781.033 322.24 787.203 321.48 792.993 319.97C798.763 318.47 804.213 316.37 809.193 313.74C814.163 311.11 818.793 307.97 822.923 304.39C825.503 302.16 827.893 299.79 830.053 297.32L831.312 316.17C831.393 317.34 832.362 318.25 833.542 318.25H851.943C853.173 318.25 854.173 317.25 854.173 316.02V122.7C854.173 121.47 853.173 120.47 851.943 120.47L851.963 120.49ZM829.553 246.15C829.553 253.77 828.163 260.89 825.403 267.31C822.653 273.73 818.823 279.38 814.013 284.1C809.203 288.82 803.533 292.54 797.153 295.16C790.773 297.78 783.803 299.11 776.443 299.11C769.083 299.11 762.232 297.76 755.812 295.09C749.382 292.42 743.703 288.7 738.943 284.02C734.193 279.36 730.383 273.73 727.623 267.3C724.873 260.88 723.473 253.76 723.473 246.14C723.473 238.52 724.863 231.54 727.623 225.12C730.383 218.69 734.163 213.06 738.883 208.39C743.593 203.72 749.243 200 755.673 197.33C762.093 194.66 769.083 193.31 776.443 193.31C783.803 193.31 790.653 194.66 797.073 197.33C803.503 200 809.173 203.72 813.943 208.39C818.703 213.06 822.533 218.69 825.333 225.13C828.123 231.55 829.542 238.61 829.542 246.14L829.553 246.15Z" fill="black"/>
<path d="M1023.59 120.49H1002.58C1001.35 120.49 1000.35 121.49 1000.35 122.72V193.32C998.243 191.08 995.952 188.93 993.502 186.9C989.412 183.52 984.862 180.54 979.982 178.05C975.082 175.56 969.722 173.6 964.042 172.24C958.352 170.88 952.293 170.19 946.013 170.19C934.963 170.19 924.623 172.19 915.283 176.13C905.953 180.07 897.783 185.55 891.013 192.41C884.243 199.27 878.913 207.39 875.163 216.54C871.403 225.69 869.502 235.65 869.502 246.15C869.502 256.65 871.453 266.64 875.303 275.84C879.153 285.04 884.553 293.18 891.363 300.03C898.173 306.89 906.363 312.36 915.693 316.3C925.033 320.24 935.323 322.24 946.283 322.24C952.663 322.24 958.833 321.48 964.623 319.97C970.393 318.47 975.843 316.37 980.823 313.74C985.793 311.11 990.423 307.97 994.553 304.39C997.133 302.16 999.523 299.79 1001.68 297.32L1002.94 316.17C1003.02 317.34 1003.99 318.25 1005.17 318.25H1023.57C1024.8 318.25 1025.8 317.25 1025.8 316.02V122.7C1025.8 121.47 1024.8 120.47 1023.57 120.47L1023.59 120.49ZM1001.18 246.15C1001.18 253.77 999.793 260.89 997.033 267.31C994.283 273.73 990.453 279.38 985.643 284.1C980.833 288.82 975.163 292.54 968.783 295.16C962.403 297.78 955.433 299.11 948.073 299.11C940.713 299.11 933.863 297.76 927.443 295.09C921.013 292.42 915.333 288.7 910.573 284.02C905.823 279.36 902.012 273.73 899.252 267.3C896.502 260.88 895.103 253.76 895.103 246.14C895.103 238.52 896.492 231.54 899.252 225.12C902.012 218.69 905.793 213.06 910.513 208.39C915.223 203.72 920.873 200 927.303 197.33C933.723 194.66 940.713 193.31 948.073 193.31C955.433 193.31 962.283 194.66 968.703 197.33C975.133 200 980.803 203.72 985.573 208.39C990.333 213.06 994.163 218.69 996.963 225.13C999.753 231.55 1001.17 238.61 1001.17 246.14L1001.18 246.15Z" fill="black"/>
<path d="M1187.61 175.05C1187.2 174.42 1186.49 174.04 1185.74 174.04H1163.08C1162.19 174.04 1161.38 174.57 1161.03 175.39L1115.07 282.1L1068.74 175.39C1068.39 174.57 1067.58 174.05 1066.69 174.05H1043.35C1042.6 174.05 1041.89 174.43 1041.48 175.06C1041.07 175.69 1041 176.49 1041.3 177.18L1100.5 312.5C1098.39 317.48 1096.44 321.97 1094.71 325.86C1092.95 329.81 1091.07 333.16 1089.12 335.81C1087.25 338.34 1085.17 340.29 1082.93 341.59C1080.77 342.85 1078.07 343.48 1074.92 343.48H1050.21C1049.62 343.48 1049.04 343.72 1048.63 344.14C1048.21 344.56 1047.98 345.13 1047.98 345.73L1048.12 363.58C1048.12 364.81 1049.13 365.79 1050.35 365.79H1073.28C1080.64 365.79 1086.93 364.87 1091.96 363.05C1097.07 361.2 1101.7 358.12 1105.72 353.91C1109.65 349.79 1113.38 344.28 1116.81 337.52C1120.15 330.93 1123.94 322.66 1128.05 312.97L1187.78 177.18C1188.08 176.49 1188.02 175.69 1187.61 175.06V175.05Z" fill="black"/>
<path d="M267.863 111.44C252.503 111.44 236.743 117.38 220.993 129.09L216.493 132.44L206.943 127.63C204.383 126.34 190.762 119.93 173.522 119.93C152.272 119.93 133.833 129.59 121.603 147.13C112.843 159.69 108.132 173.86 107.982 188.15V315.84C107.982 317.07 108.983 318.07 110.213 318.07H330.062C331.292 318.07 332.292 317.07 332.292 315.84V182.54C332.292 168.24 328.303 154.47 320.743 142.73C307.773 122.56 288.993 111.45 267.863 111.45V111.44ZM196.243 155.49C183.023 168.71 168.243 199.76 168.243 221.53C168.243 239.39 177.893 273.18 214.413 273.18C248.503 273.18 263.752 245.65 263.752 218.36C263.752 191.07 235.943 154.4 235.663 154.03L233.732 151.51L236.272 149.62C247.502 141.26 258.133 137.03 267.863 137.03C280.163 137.03 291.003 143.78 299.223 156.56C304.113 164.17 306.703 173.15 306.703 182.53V292.47H133.783V188.44C133.883 179.23 137.003 169.76 142.583 161.76C150.003 151.13 160.702 145.51 173.522 145.51C185.422 145.51 195.033 150.28 195.433 150.48L199.292 152.42L196.232 155.48L196.243 155.49ZM214.413 247.58C198.163 247.58 193.833 231.2 193.833 221.52C193.833 209.54 202.763 190.68 210.203 179.26C212.083 176.38 214.233 173.68 216.623 171.2L216.873 171.5C218.473 173.39 219.953 175.39 221.283 177.48C228.183 188.33 238.163 207.19 238.163 218.35C238.163 236.93 229.503 247.58 214.413 247.58Z" fill="black"/>
<path d="M170.062 109.46C180.903 109.46 189.723 100.64 189.723 89.7998C189.723 78.9598 180.903 70.1498 170.062 70.1498C159.222 70.1498 150.403 78.9698 150.403 89.7998C150.403 100.63 159.222 109.46 170.062 109.46Z" fill="black"/>
<path d="M272.062 99.1698C282.903 99.1698 291.723 90.3498 291.723 79.5098C291.723 68.6698 282.903 59.8599 272.062 59.8599C261.222 59.8599 252.413 68.6798 252.413 79.5098C252.413 90.3398 261.233 99.1698 272.062 99.1698Z" fill="black"/>
<path d="M1054.65 146L1063.35 122.218H1068.24L1076.94 146H1072.32L1070.45 140.598H1061.11L1059.2 146H1054.65ZM1062.33 137.099H1069.23L1065.76 127.212L1062.33 137.099ZM1089.28 146V122.218H1098.08C1099.74 122.218 1101.19 122.501 1102.43 123.067C1103.7 123.611 1104.7 124.415 1105.42 125.479C1106.15 126.544 1106.51 127.835 1106.51 129.352C1106.51 130.87 1106.15 132.172 1105.42 133.26C1104.7 134.324 1103.7 135.139 1102.43 135.706C1101.19 136.249 1099.74 136.521 1098.08 136.521H1093.63V146H1089.28ZM1093.63 132.818H1097.98C1099.5 132.818 1100.56 132.501 1101.17 131.867C1101.79 131.21 1102.09 130.372 1102.09 129.352C1102.09 128.356 1101.79 127.54 1101.17 126.906C1100.56 126.249 1099.5 125.921 1097.98 125.921H1093.63V132.818ZM1119.13 146V122.218H1127.93C1129.59 122.218 1131.04 122.501 1132.28 123.067C1133.55 123.611 1134.55 124.415 1135.27 125.479C1136 126.544 1136.36 127.835 1136.36 129.352C1136.36 130.87 1136 132.172 1135.27 133.26C1134.55 134.324 1133.55 135.139 1132.28 135.706C1131.04 136.249 1129.59 136.521 1127.93 136.521H1123.48V146H1119.13ZM1123.48 132.818H1127.83C1129.35 132.818 1130.41 132.501 1131.03 131.867C1131.64 131.21 1131.94 130.372 1131.94 129.352C1131.94 128.356 1131.64 127.54 1131.03 126.906C1130.41 126.249 1129.35 125.921 1127.83 125.921H1123.48V132.818Z" fill="black"/>
</svg>
