<svg width="514" height="491" viewBox="0 0 514 491" fill="none" xmlns="http://www.w3.org/2000/svg">
<path d="M-154.433 158.651C-126.888 124.686 -87.6599 98.6881 -37.838 81.3696L-23.5808 76.417L-15.3136 48.1106C-13.0999 40.5352 -0.490721 0.804153 30.4379 -37.3328C68.5497 -84.3271 119.428 -110.676 173.706 -111.531C212.565 -112.143 247.139 -101.374 273.741 -80.3516L509.078 110.504C511.352 112.348 511.397 116.048 509.188 118.772L114.818 605.055C112.605 607.783 108.975 608.495 106.706 606.654L-138.977 407.408C-165.331 386.035 -183.541 356.629 -191.638 322.362C-205.54 263.524 -192.326 205.384 -154.424 158.64L-154.433 158.651ZM55.2284 66.0744C103.298 56.5913 187.043 70.3078 227.167 102.848C260.091 129.549 305.048 201.388 239.537 282.167C178.396 357.558 100.283 350.154 49.9898 309.366C-0.30395 268.579 -18 152.253 -18.1726 151.079L-19.3474 143.044L-27.4001 145.84C-62.9432 158.188 -89.8136 175.361 -107.276 196.894C-129.336 224.095 -136.341 258.177 -127.529 295.443C-122.291 317.635 -110.377 336.782 -93.082 350.808L109.551 515.141L419.73 132.671L228.002 -22.8176C210.862 -36.3675 187.79 -43.6125 163.042 -43.2236C130.14 -42.7062 100.598 -27.4454 77.5944 0.919388C56.2463 27.243 47.8015 55.6244 47.4513 56.8219L44.1077 68.2673L55.2241 66.0797L55.2284 66.0744ZM192.376 243.92C221.516 207.988 199.104 173.919 181.262 159.45C159.174 141.537 108.404 133.112 74.0087 132.489C65.3195 132.332 56.4939 133.064 47.6404 134.641L47.7366 135.648C48.3488 142.027 49.3821 148.273 50.8533 154.349C58.4684 185.841 75.347 236.092 95.8981 252.758C130.135 280.524 165.298 277.3 192.376 243.911L192.376 243.92Z" fill="#F6DDE1" fill-opacity="0.05"/>
</svg>
