<svg width="434" height="131" viewBox="0 0 434 131" fill="none" xmlns="http://www.w3.org/2000/svg">
<path d="M71.5956 38.2008C68.0021 34.5542 63.674 31.6511 58.744 29.5534C53.8051 27.4557 48.3264 26.3936 42.4582 26.3936C39.0771 26.3936 35.8465 26.7565 32.846 27.4823C29.8544 28.2081 27.0132 29.226 24.3933 30.5271C21.7646 31.8281 19.3483 33.4036 17.1975 35.2003C15.9141 36.2713 14.7192 37.4131 13.604 38.6257V1.18603C13.604 0.531056 13.0729 0 12.418 0H1.18606C0.531083 0 0 0.531056 0 1.18603V103.849C0 104.504 0.531083 105.035 1.18606 105.035H10.9575C11.5859 105.035 12.0993 104.548 12.1435 103.928L12.7543 94.2806C13.9049 95.5463 15.1706 96.7589 16.5425 97.9095C18.7375 99.7594 21.1981 101.379 23.8445 102.724C26.4821 104.07 29.3853 105.159 32.4743 105.955C35.5721 106.752 38.8647 107.159 42.2457 107.159C48.1139 107.159 53.6015 106.097 58.5669 103.999C63.5235 101.91 67.8693 98.9982 71.4894 95.3605C75.1006 91.7227 77.9771 87.3946 80.0217 82.5177C82.0663 77.632 83.1019 72.3214 83.1019 66.7453C83.1019 61.1691 82.0751 55.8762 80.0571 51.017C78.0391 46.1579 75.198 41.8475 71.6045 38.2097L71.5956 38.2008ZM69.4183 66.7364C69.4183 70.7813 68.6748 74.5607 67.2143 77.9683C65.7539 81.3848 63.7271 84.3675 61.2046 86.8458C58.6732 89.3241 55.6727 91.3067 52.2827 92.7229C48.9017 94.139 45.202 94.856 41.2898 94.856C37.3777 94.856 33.7399 94.1479 30.3235 92.7583C26.9158 91.3687 23.9065 89.3949 21.3751 86.8901C18.8526 84.3853 16.8257 81.3848 15.3565 77.9683C13.896 74.5607 13.1526 70.7813 13.1526 66.7364C13.1526 62.6915 13.896 58.9829 15.3565 55.5753C16.8169 52.1588 18.8526 49.176 21.4017 46.6978C23.9508 44.2106 26.969 42.2369 30.3677 40.8207C33.7577 39.4045 37.4485 38.6876 41.3606 38.6876C45.2728 38.6876 48.9636 39.4045 52.3536 40.8207C55.7435 42.2369 58.7351 44.2106 61.2399 46.6978C63.7448 49.176 65.7539 52.1677 67.2232 55.5842C68.6836 58.9918 69.4271 62.7446 69.4271 66.7453L69.4183 66.7364Z" fill="#1E1E1E"/>
<path d="M163.6 28.418H152.298C151.643 28.418 151.112 28.9491 151.112 29.6041V68.4687C151.112 77.4967 149.111 84.2146 145.164 88.4365C141.234 92.6408 135.472 94.765 128.019 94.765C120.567 94.765 114.628 92.6142 110.778 88.3746C106.892 84.0995 104.927 77.3994 104.927 68.4599V29.5952C104.927 28.9403 104.396 28.4092 103.741 28.4092H92.4385C91.7835 28.4092 91.2524 28.9403 91.2524 29.5952V68.8228C91.2524 75.2486 92.111 80.9132 93.8015 85.6662C95.5009 90.4546 97.988 94.4906 101.192 97.6681C104.396 100.846 108.326 103.235 112.875 104.767C117.381 106.28 122.47 107.05 128.019 107.05C133.569 107.05 138.658 106.28 143.163 104.767C147.713 103.235 151.643 100.846 154.847 97.6681C158.042 94.4906 160.529 90.4546 162.237 85.6662C163.928 80.9132 164.786 75.2486 164.786 68.8228V29.5952C164.786 28.9403 164.255 28.4092 163.6 28.4092V28.418Z" fill="#1E1E1E"/>
<path d="M254.749 0H243.596C242.941 0 242.41 0.531056 242.41 1.18603V38.6788C241.286 37.4839 240.074 36.3421 238.773 35.2712C236.604 33.4744 234.188 31.8901 231.595 30.5713C228.992 29.2436 226.142 28.2081 223.133 27.4823C220.115 26.7565 216.893 26.3936 213.556 26.3936C207.688 26.3936 202.2 27.4557 197.235 29.5534C192.278 31.6422 187.941 34.5542 184.348 38.2008C180.754 41.8474 177.922 46.1579 175.931 51.017C173.939 55.8762 172.921 61.1691 172.921 66.7453C172.921 72.3214 173.957 77.632 176.002 82.5177C178.046 87.4035 180.914 91.7227 184.534 95.3605C188.154 99.0071 192.5 101.91 197.456 103.999C202.413 106.097 207.883 107.159 213.707 107.159C217.097 107.159 220.372 106.752 223.452 105.955C226.514 105.159 229.408 104.043 232.055 102.645C234.692 101.246 237.153 99.5824 239.348 97.6794C240.72 96.4934 241.986 95.2365 243.136 93.9266L243.809 103.937C243.853 104.557 244.366 105.043 244.995 105.043H254.766C255.421 105.043 255.952 104.512 255.952 103.857V1.19489C255.952 0.539915 255.421 0.00883261 254.766 0.00883261L254.749 0ZM242.844 66.7364C242.844 70.7813 242.101 74.5607 240.64 77.9683C239.18 81.3759 237.144 84.3764 234.595 86.8901C232.046 89.3949 229.028 91.3686 225.638 92.7671C222.248 94.1567 218.548 94.8648 214.636 94.8648C210.724 94.8648 207.086 94.1479 203.679 92.7317C200.262 91.3156 197.253 89.3329 194.721 86.8547C192.199 84.3764 190.172 81.3936 188.712 77.9771C187.251 74.5695 186.508 70.7901 186.508 66.7453C186.508 62.7004 187.251 58.9918 188.712 55.5842C190.172 52.1677 192.19 49.176 194.695 46.6978C197.2 44.2195 200.2 42.2457 203.608 40.8296C207.015 39.4134 210.733 38.6965 214.636 38.6965C218.539 38.6965 222.177 39.4134 225.594 40.8296C229.01 42.2457 232.019 44.2283 234.551 46.7066C237.073 49.1849 239.118 52.1765 240.605 55.593C242.092 59.0006 242.844 62.7535 242.844 66.7541V66.7364Z" fill="#1E1E1E"/>
<path d="M345.863 0H334.711C334.056 0 333.525 0.531056 333.525 1.18603V38.6788C332.401 37.4839 331.188 36.3421 329.887 35.2712C327.718 33.4744 325.302 31.8901 322.709 30.5713C320.107 29.2436 317.257 28.2081 314.247 27.4823C311.229 26.7565 308.007 26.3936 304.671 26.3936C298.802 26.3936 293.315 27.4557 288.349 29.5534C283.393 31.6422 279.056 34.5542 275.462 38.2008C271.869 41.8474 269.036 46.1579 267.045 51.017C265.054 55.8762 264.036 61.1691 264.036 66.7453C264.036 72.3214 265.071 77.632 267.116 82.5177C269.16 87.4035 272.028 91.7227 275.648 95.3605C279.268 99.0071 283.614 101.91 288.571 103.999C293.527 106.097 298.997 107.159 304.821 107.159C308.211 107.159 311.486 106.752 314.566 105.955C317.628 105.159 320.523 104.043 323.169 102.645C325.807 101.246 328.267 99.5824 330.462 97.6794C331.834 96.4934 333.1 95.2365 334.25 93.9266L334.923 103.937C334.967 104.557 335.481 105.043 336.109 105.043H345.881C346.536 105.043 347.067 104.512 347.067 103.857V1.19489C347.067 0.539915 346.536 0.00883261 345.881 0.00883261L345.863 0ZM333.958 66.7364C333.958 70.7813 333.215 74.5607 331.755 77.9683C330.294 81.3759 328.258 84.3764 325.709 86.8901C323.16 89.3949 320.142 91.3686 316.752 92.7671C313.362 94.1567 309.662 94.8648 305.75 94.8648C301.838 94.8648 298.2 94.1479 294.793 92.7317C291.376 91.3156 288.367 89.3329 285.836 86.8547C283.313 84.3764 281.286 81.3936 279.826 77.9771C278.365 74.5695 277.622 70.7901 277.622 66.7453C277.622 62.7004 278.365 58.9918 279.826 55.5842C281.286 52.1677 283.304 49.176 285.809 46.6978C288.314 44.2195 291.314 42.2457 294.722 40.8296C298.13 39.4134 301.847 38.6965 305.75 38.6965C309.654 38.6965 313.291 39.4134 316.708 40.8296C320.124 42.2457 323.134 44.2283 325.665 46.7066C328.188 49.1849 330.232 52.1765 331.719 55.593C333.206 59.0006 333.958 62.7535 333.958 66.7541V66.7364Z" fill="#1E1E1E"/>
<path d="M433.004 28.9491C432.782 28.6128 432.411 28.4092 432.012 28.4092H419.984C419.515 28.4092 419.081 28.6924 418.895 29.1261L394.493 85.799L369.887 29.1261C369.701 28.6924 369.277 28.4092 368.799 28.4092H356.407C356.009 28.4092 355.637 28.6128 355.416 28.9491C355.195 29.2855 355.159 29.7103 355.319 30.0732L386.757 101.934C385.633 104.581 384.598 106.962 383.686 109.033C382.748 111.13 381.756 112.909 380.712 114.317C379.721 115.662 378.614 116.698 377.428 117.388C376.278 118.052 374.844 118.397 373.171 118.397H360.045C359.726 118.397 359.425 118.521 359.204 118.751C358.983 118.972 358.859 119.282 358.859 119.592L358.93 129.071C358.93 129.726 359.461 130.249 360.116 130.249H372.295C376.207 130.249 379.544 129.762 382.217 128.788C384.934 127.806 387.395 126.168 389.528 123.938C391.616 121.752 393.599 118.822 395.414 115.237C397.193 111.741 399.202 107.342 401.388 102.2L433.11 30.0909C433.269 29.728 433.234 29.3031 433.021 28.9668L433.004 28.9491Z" fill="#1E1E1E"/>
</svg>
