<svg width="15" height="15" viewBox="0 0 15 15" fill="none" xmlns="http://www.w3.org/2000/svg">
<path d="M7.00965 14.0193C10.881 14.0193 14.0193 10.881 14.0193 7.00965C14.0193 3.13833 10.881 0 7.00965 0C3.13833 0 0 3.13833 0 7.00965C0 10.881 3.13833 14.0193 7.00965 14.0193Z" fill="#FFCF03"/>
<path d="M9.4532 3.96298C9.44832 3.66921 9.68263 3.42736 9.97595 3.42293C10.2697 3.41805 10.5116 3.65235 10.516 3.94568" fill="#FFCF03"/>
<path d="M9.4532 3.96298C9.44832 3.66921 9.68263 3.42736 9.97595 3.42293C10.2697 3.41805 10.5116 3.65235 10.516 3.94568" stroke="#1E1E1E" stroke-width="0.3" stroke-linecap="round" stroke-linejoin="round"/>
<path d="M5.91023 4.0206C5.90535 3.72683 6.13966 3.48498 6.43298 3.48054C6.72675 3.47566 6.9686 3.70997 6.97304 4.00329" fill="#FFCF03"/>
<path d="M5.91023 4.0206C5.90535 3.72683 6.13966 3.48498 6.43298 3.48054C6.72675 3.47566 6.9686 3.70997 6.97304 4.00329" stroke="#1E1E1E" stroke-width="0.3" stroke-linecap="round" stroke-linejoin="round"/>
<path d="M11.7607 4.8457C11.7926 6.7947 10.2386 8.40023 8.2896 8.43218C6.3406 8.46413 4.73508 6.91008 4.70312 4.96108L11.7607 4.8457Z" fill="#FFCF03" stroke="#1E1E1E" stroke-width="0.3" stroke-linecap="round" stroke-linejoin="round"/>
<path d="M11.7537 11.5068V15.0001L7.15234 11.5068H11.7537Z" fill="#FFCF03"/>
</svg>
