<svg width="15" height="15" viewBox="0 0 15 15" fill="none" xmlns="http://www.w3.org/2000/svg">
<path d="M7.00965 14.0193C10.881 14.0193 14.0193 10.881 14.0193 7.00965C14.0193 3.13833 10.881 0 7.00965 0C3.13833 0 0 3.13833 0 7.00965C0 10.881 3.13833 14.0193 7.00965 14.0193Z" fill="#64BDFF"/>
<path d="M9.45515 3.96323C9.45027 3.66946 9.68458 3.42761 9.9779 3.42317C10.2717 3.41829 10.5135 3.6526 10.518 3.94592" stroke="#1E1E1E" stroke-width="0.4" stroke-linecap="round" stroke-linejoin="round"/>
<path d="M5.91023 4.02085C5.90535 3.72708 6.13966 3.48523 6.43298 3.48079C6.72675 3.47591 6.9686 3.71021 6.97304 4.00354" stroke="#1E1E1E" stroke-width="0.4" stroke-linecap="round" stroke-linejoin="round"/>
<path d="M11.7607 4.84595C11.7926 6.79495 10.2386 8.40047 8.2896 8.43242C6.3406 8.46438 4.73508 6.91033 4.70312 4.96133L11.7607 4.84595Z" stroke="#1E1E1E" stroke-width="0.4" stroke-linecap="round" stroke-linejoin="round"/>
<path d="M11.7557 11.5068V15.0001L7.1543 11.5068H11.7557Z" fill="#64BDFF"/>
</svg>
