<svg width="63" height="65" viewBox="0 0 63 65" fill="none" xmlns="http://www.w3.org/2000/svg">
<rect x="21.8223" width="28.399" height="24" transform="rotate(65.4047 21.8223 0)" fill="white"/>
<circle cx="35.125" cy="41.625" r="22.875" fill="#FFCF03"/>
<circle cx="40.125" cy="41.625" r="22.875" fill="#FFF2A4"/>
<path d="M37.0762 33.0958C37.1228 32.9446 37.9651 31.4621 39.9934 28.4127C41.2392 26.5396 43.0656 24.1011 44.1216 22.6767C45.7638 20.4617 46.4265 20.091 46.9998 19.8005C47.6556 19.4682 48.7576 19.5128 49.5228 19.6182C50.0263 19.6875 50.8429 21.166 52.102 23.315C52.7231 24.3753 53.1232 25.4772 53.7336 27.7705C54.3441 30.0639 55.1055 33.5417 55.5361 36.546C55.9666 39.5503 56.0434 41.9758 56.0647 43.3465C56.0898 44.9595 55.8522 45.7722 55.4549 46.9665C55.242 47.6067 54.9079 48.2815 54.2339 49.3343C53.56 50.387 52.5311 51.7885 51.6628 52.8934C50.1182 54.7643 49.3259 55.6739 49.1274 55.9096C49.0244 56.0249 48.9168 56.1315 48.5826 56.3979" stroke="black" stroke-width="1.5" stroke-linecap="round"/>
<path d="M48.5837 56.3706C48.4451 56.3988 47.3047 57.0893 45.0225 58.5425C43.6556 59.4129 41.7401 60.3496 40.1121 61.0725C38.4841 61.7954 37.1698 62.2241 36.0967 62.4858C35.0235 62.7474 34.2314 62.8292 33.1743 62.8801C30.821 62.9936 29.3392 62.9501 28.9824 62.8806C28.4779 62.7822 27.504 62.3172 26.1394 61.5727C24.7607 60.8204 23.7319 59.6712 22.8955 58.7012C22.2252 57.9239 21.8605 57.1289 21.4362 56.0247C21.1559 55.2954 20.8438 54.1865 20.5107 52.4729C20.1777 50.7593 19.8587 48.4654 19.6618 46.303C19.465 44.1407 19.4 42.1793 19.3985 41.0794C19.3969 39.9794 19.4607 39.8002 19.6189 39.3857" stroke="black" stroke-width="1.5" stroke-linecap="round"/>
<path d="M19.6191 39.3859C19.6191 39.3779 19.6409 38.4439 19.8726 35.8458C20.0219 34.171 20.48 31.799 20.7688 30.2793C21.1716 28.1596 21.7153 26.9276 22.2506 25.8809C22.5532 25.2891 22.808 25.0081 23.4161 24.4488C25.9395 22.1275 27.1269 21.6342 27.7228 21.4779C28.5004 21.274 29.0008 21.6605 30.056 22.406C30.7888 22.9237 31.3446 23.6822 32.2765 25.1907C32.9828 26.334 33.9953 28.3439 35.0086 30.6666C36.022 32.9892 36.9627 35.5891 37.8163 38.4887C38.6699 41.3883 39.4078 44.5087 39.8046 46.1728C40.2013 47.8369 40.2345 47.9501 40.2735 48.1488" stroke="black" stroke-width="1.5" stroke-linecap="round"/>
<path d="M19.699 35.2753C19.6868 35.2753 19.6746 35.2753 18.0625 34.1894C16.4503 33.1036 13.2386 30.9319 10.777 29.1042C8.31539 27.2765 6.70129 25.8586 5.74963 24.9931C4.79797 24.1275 4.55767 23.8573 4.4019 23.6663C4.24612 23.4752 4.18214 23.3714 4 23.0732" stroke="black" stroke-width="1.5" stroke-linecap="round"/>
<path d="M4 23.1227C4 23.1147 4.0166 22.5037 4.37923 20.6881C4.62549 19.4552 5.40022 17.6871 6.09828 16.198C6.79634 14.7088 7.49705 13.5772 8.45913 12.262C9.42121 10.9468 10.6234 9.48243 12.1236 7.88514C13.6237 6.28784 15.3854 4.60203 16.4327 3.64092C17.7246 2.45529 18.181 2.23695 18.6271 2.06964C20.4844 1.37308 22.2784 1.48859 22.9669 1.54118C23.2253 1.56092 23.2802 1.69897 24.1786 4.34399C25.077 6.98901 26.8125 12.1707 27.9236 15.5444C29.0347 18.9181 29.4687 20.3268 29.9867 22.0358" stroke="black" stroke-width="1.5" stroke-linecap="round"/>
<path d="M14.312 31.4712C14.312 31.4844 14.312 31.4975 14.2366 33.4438C14.1613 35.3901 14.0105 39.269 14.0041 41.6801C13.9977 44.0911 14.1401 44.9166 14.5155 46.1698C14.8909 47.423 15.495 49.0789 16.1496 50.5272C16.8041 51.9755 17.4908 53.1659 18.185 54.1596C19.4617 55.9868 20.7343 57.1108 21.5852 57.824C21.9637 58.1241 22.2339 58.2986 22.4245 58.4197C22.6152 58.5407 22.7181 58.6031 23.0926 58.8539" stroke="black" stroke-width="1.5" stroke-linecap="round"/>
</svg>
