<svg width="370" height="203" viewBox="0 0 370 203" fill="none" xmlns="http://www.w3.org/2000/svg">
<path d="M313.125 59.5488C322.569 59.5488 329.778 67.8428 328.627 77.2008C319.921 148.091 259.517 202.979 186.283 202.979C113.048 202.979 52.6228 148.091 43.938 77.2008C42.7872 67.8428 50.0174 59.5488 59.4404 59.5488H313.125Z" fill="#F6D307"/>
<path d="M280.49 81.2611C285.267 76.0502 290.261 70.9696 295.081 65.7804C320.093 38.7923 317.032 38.7705 342.305 12.0212C347.19 6.85374 354.181 -1.70083 360.195 0.296689C362.063 0.92634 367.36 6.00697 368.511 7.72223C370.205 10.1974 368.772 15.3866 365.949 18.7086C362.757 22.4648 358.828 25.6347 355.419 29.0435C325.174 59.2016 322.46 61.4163 292.041 91.4441C291.737 91.7698 291.585 92.0738 291.563 92.4429L280.49 81.2394V81.2611Z" fill="#1E1E1E"/>
<path d="M248.703 169.022C246.489 169.022 244.339 167.893 243.123 165.873C238.824 158.73 236.219 149.329 235.329 139.081C225.059 138.733 215.527 136.627 208.167 132.697C204.997 131.004 203.781 127.074 205.475 123.882C207.168 120.712 211.12 119.496 214.29 121.19C219.414 123.926 226.753 125.641 235.09 126.053C235.633 114.98 237.999 103.625 242.233 93.5937C246.836 82.6725 255.043 75.4641 265.292 73.3363C274.649 71.3822 285.136 74.0528 291.39 80.0019C297.643 85.9293 300.878 96.2643 299.401 105.709C297.795 116.066 291.042 124.62 280.382 129.788C270.589 134.543 259.386 137.517 248.356 138.625C249.181 146.94 251.309 154.17 254.305 159.143C256.151 162.226 255.152 166.221 252.069 168.088C251.027 168.718 249.854 169.022 248.725 169.022H248.703ZM271.61 85.7122C270.416 85.7122 269.178 85.8208 267.962 86.0813C261.926 87.3406 257.193 91.683 254.24 98.6526C250.549 107.403 248.617 116.739 248.096 125.597C256.911 124.62 266.138 122.21 274.693 118.042C281.489 114.741 285.592 109.769 286.548 103.69C287.46 97.7624 285.18 92.0087 282.444 89.425C280.273 87.3623 276.169 85.6905 271.631 85.6905L271.61 85.7122Z" fill="#1E1E1E"/>
<path d="M95.7865 102.213C90.5756 97.4365 85.495 92.4427 80.3058 87.6226C53.3176 62.6103 38.7705 52.2102 12.0212 26.9373C6.85367 22.0521 -1.70082 15.0608 0.296691 9.04651C0.926342 7.17927 6.00694 1.88152 7.7222 0.730778C10.1974 -0.962767 15.3866 0.470237 18.7085 3.29281C22.4647 6.48449 25.6347 10.4144 29.0435 13.8232C59.2016 44.0681 75.9416 60.2437 105.969 90.6623C106.295 90.9663 106.599 91.1183 106.968 91.14L95.7648 102.213H95.7865Z" fill="#1E1E1E"/>
<path d="M133.066 172.192C131.395 172.192 129.723 171.562 128.463 170.281L91.5096 133.327C79.7416 121.559 80.4581 101.671 93.138 89.0126C105.796 76.3544 125.684 75.6162 137.452 87.3842L174.406 124.338C175.622 125.554 176.317 127.226 176.317 128.941C176.317 130.656 175.622 132.328 174.406 133.544L137.669 170.281C136.388 171.562 134.738 172.192 133.066 172.192ZM116.782 92.0306C111.745 92.0306 106.447 94.1366 102.344 98.2402C94.7664 105.818 94.0282 117.434 100.715 124.143L133.066 156.494L160.576 128.985L128.225 96.6335C125.163 93.5721 121.038 92.0523 116.761 92.0523L116.782 92.0306Z" fill="#1E1E1E"/>
<path d="M151.434 153.823C149.762 153.823 148.09 153.193 146.831 151.912L95.1777 100.259C92.6374 97.7188 92.6374 93.5935 95.1777 91.0532C97.718 88.5129 101.843 88.5129 104.384 91.0532L156.037 142.706C158.577 145.247 158.577 149.372 156.037 151.912C154.756 153.193 153.106 153.823 151.434 153.823Z" fill="#1E1E1E"/>
</svg>
