<svg width="128" height="112" viewBox="0 0 128 112" fill="none" xmlns="http://www.w3.org/2000/svg">
<path d="M19.964 78.9705C14.2545 78.9117 10.1105 73.476 11.6138 67.9684C16.6324 49.5815 33.5471 36.1523 53.498 36.3582C73.4489 36.563 90.0829 50.3383 94.7229 68.8243C96.1123 74.362 91.8571 79.7106 86.1476 79.6518L19.964 78.9705Z" fill="#64BDFF"/>
<path d="M53.4958 48.8198C53.491 47.9365 54.2035 47.2177 55.0868 47.2128C55.97 47.2079 56.6889 47.9205 56.6937 48.8037" stroke="#1E1E1E" stroke-width="0.665324" stroke-linecap="round" stroke-linejoin="round"/>
<path d="M42.8376 48.8745C42.8328 47.9912 43.5453 47.2724 44.4285 47.2675C45.3118 47.2626 46.0307 47.9751 46.0355 48.8584" stroke="#1E1E1E" stroke-width="0.665324" stroke-linecap="round" stroke-linejoin="round"/>
<path d="M52.5919 52.0199C52.5993 53.596 51.3283 54.8812 49.7511 54.8888C48.1749 54.8962 46.8897 53.6252 46.8822 52.048L52.5918 52.0188L52.5919 52.0199Z" stroke="#1E1E1E" stroke-width="0.665324" stroke-linecap="round" stroke-linejoin="round"/>
<path d="M12.3892 42.3883C12.3892 42.3883 11.5123 37.5058 14.0944 36.8605C16.6765 36.2151 16.1722 40.8482 15.8662 46.8164C15.5602 52.7847 18.2588 60.3889 24.5843 59.1101" stroke="#1E1E1E" stroke-width="0.665324" stroke-linecap="round" stroke-linejoin="round"/>
<path d="M5.03485 45.6465C4.35762 45.7388 3.80108 45.1114 3.97674 44.4508C4.21625 43.5487 4.96206 42.4721 7.06092 42.02C10.9783 41.1763 12.2815 41.9484 13.3812 43.9044C13.9305 44.8825 13.4618 45.51 12.8539 45.8941C12.2293 46.2888 11.46 46.3859 10.7454 46.1945C9.55562 45.8757 7.16111 45.3566 5.03276 45.6478L5.03485 45.6465Z" stroke="#1E1E1E" stroke-width="0.665324" stroke-linecap="round" stroke-linejoin="round"/>
<path d="M4.28859 48.5022C3.01296 47.6827 3.48962 45.7103 4.98951 45.4977C5.73228 45.3921 6.76702 45.42 8.20675 45.6858C13.7252 46.7078 12.9937 48.6276 12.9937 48.6276C12.9937 48.6276 13.0488 50.4687 9.1595 49.0117C6.18143 47.8958 5.38788 49.2078 4.28848 48.5011L4.28859 48.5022Z" stroke="#1E1E1E" stroke-width="0.665324" stroke-linecap="round" stroke-linejoin="round"/>
<path d="M4.33411 49.445C4.31547 49.4814 4.30499 49.5214 4.30136 49.563C4.25377 50.0336 4.12946 52.909 8.25005 52.6144C12.7359 52.2944 13.128 50.1455 12.1033 49.8402C11.0902 49.5383 5.11472 47.9593 4.33422 49.4461L4.33411 49.445Z" stroke="#1E1E1E" stroke-width="0.665324" stroke-linecap="round" stroke-linejoin="round"/>
<path d="M6.05858 52.3905C6.05858 52.3905 5.66364 64.8135 13.4932 68.8703" stroke="#1E1E1E" stroke-width="0.665324" stroke-linecap="round" stroke-linejoin="round"/>
<path d="M90.3107 41.9709C90.3107 41.9709 91.5572 37.1699 89.0323 36.3284C86.5075 35.487 86.6565 40.1459 86.506 46.1198C86.3556 52.0948 83.0848 59.4712 76.8752 57.7128" stroke="#1E1E1E" stroke-width="0.665324" stroke-linecap="round" stroke-linejoin="round"/>
<path d="M97.8039 49.6218C97.8199 49.6592 97.8263 49.7009 97.8282 49.742C97.8399 50.2144 97.7446 53.0903 93.6574 52.4833C89.2091 51.8211 88.9827 49.6495 90.0277 49.4234C91.0606 49.1996 97.1392 48.0814 97.804 49.6229L97.8039 49.6218Z" stroke="#1E1E1E" stroke-width="0.665324" stroke-linecap="round" stroke-linejoin="round"/>
<path d="M95.8606 52.4268C95.8606 52.4268 95.3058 64.8447 87.1904 68.2921" stroke="#1E1E1E" stroke-width="0.665324" stroke-linecap="round" stroke-linejoin="round"/>
<path d="M71.8471 81.703C71.8471 81.703 66.8609 80.1653 61.7147 82.7591C56.5685 85.3541 57.143 90.9222 60.8931 106.054L39.7295 100.272L44.6302 97.2963C44.6302 97.2963 36.2686 84.4009 44.8322 78.5527C53.3958 72.7045 61.0956 76.9236 61.0956 76.9236" stroke="#1E1E1E" stroke-width="0.665324" stroke-linecap="round" stroke-linejoin="round"/>
<path d="M41.8307 91.2041C40.0425 92.6771 35.9042 94.7309 31.4941 107.333L16.7108 90.5174L22.4963 92.2247C22.4963 92.2247 29.0319 70.2913 43.5811 76.4588" stroke="#1E1E1E" stroke-width="0.665324" stroke-linecap="round" stroke-linejoin="round"/>
<path d="M31.7092 106.727C31.7092 106.727 39.3065 91.943 42.622 93.3683L41.6477 91.3518C41.6477 91.3518 35.7939 95.2592 31.7093 106.728L31.7092 106.727Z" fill="#1E1E1E"/>
<path d="M23.801 59.2253C23.801 59.2253 18.4152 59.1942 15.8431 47.8239C15.8431 47.8239 15.6883 59.24 23.801 59.2253Z" fill="#1E1E1E"/>
<path d="M77.3598 57.8802C77.3598 57.8802 82.7307 58.2861 86.2156 47.1617C86.2156 47.1617 85.4443 58.5526 77.3598 57.8802Z" fill="#1E1E1E"/>
<path d="M22.4973 92.2259L16.7129 90.5185L31.4951 107.334L32.8602 103.529L22.4973 92.2259Z" fill="#1E1E1E"/>
<path d="M44.6296 97.2964L39.729 100.274L60.8925 106.054L59.6967 100.98L44.6296 97.2964Z" fill="#1E1E1E"/>
<rect x="86.5039" y="25.0624" width="6" height="24.75" rx="3" transform="rotate(-5.72004 86.5039 25.0624)" fill="#8793A1"/>
<path d="M97.3973 45.7798C98.0659 45.9245 98.6683 45.3404 98.5429 44.6676C98.373 43.7496 97.7115 42.6201 95.6532 42.0083C91.8123 40.8674 90.4531 41.5385 89.2069 43.4051C88.5837 44.3379 89.0045 45.0001 89.58 45.4283C90.1725 45.8693 90.9325 46.025 91.6589 45.8887C92.8698 45.6616 95.2968 45.326 97.3962 45.7799L97.3973 45.7798Z" stroke="#1E1E1E" stroke-width="0.665324" stroke-linecap="round" stroke-linejoin="round"/>
<path d="M97.9205 48.6839C99.2548 47.9641 98.9305 45.9616 97.4502 45.6352C96.7174 45.4734 95.6836 45.4221 94.2271 45.578C88.6469 46.176 89.2298 48.1458 89.2298 48.1458C89.2298 48.1458 89.0344 49.9774 93.0241 48.8211C96.078 47.9357 96.769 49.3041 97.9205 48.6839Z" stroke="#1E1E1E" stroke-width="0.665324" stroke-linecap="round" stroke-linejoin="round"/>
<rect x="57.166" y="6.06538" width="60.8564" height="24.0761" rx="3" transform="rotate(-5.72004 57.166 6.06538)" fill="#98D81E"/>
<path d="M63.5484 20.1559L63.0251 14.9321L64.958 14.7385C65.3211 14.7021 65.6458 14.7324 65.9319 14.8293C66.2224 14.9208 66.459 15.0755 66.6417 15.2934C66.8243 15.5113 66.9323 15.7869 66.9657 16.1202C66.9991 16.4536 66.9481 16.7476 66.8128 17.0024C66.6771 17.2521 66.4761 17.4532 66.2099 17.6055C65.9483 17.7523 65.6358 17.8439 65.2727 17.8802L64.2951 17.9782L64.5036 20.0602L63.5484 20.1559ZM64.2136 17.1647L65.1688 17.0691C65.5021 17.0357 65.729 16.9426 65.8494 16.7898C65.9692 16.6321 66.018 16.4413 65.9955 16.2174C65.9736 15.9985 65.8885 15.8261 65.7402 15.7003C65.5914 15.5695 65.3504 15.5207 65.0171 15.5541L64.0618 15.6498L64.2136 17.1647ZM67.9703 15.492C67.8012 15.5089 67.6484 15.4639 67.5121 15.357C67.3802 15.2446 67.3058 15.1038 67.2889 14.9346C67.2714 14.7605 67.3164 14.6078 67.4239 14.4764C67.5363 14.3445 67.6771 14.2701 67.8462 14.2532C68.0204 14.2357 68.1731 14.2807 68.3045 14.3882C68.4358 14.4956 68.5102 14.6364 68.5277 14.8105C68.5446 14.9797 68.4996 15.1324 68.3927 15.2688C68.2852 15.4001 68.1444 15.4745 67.9703 15.492ZM67.9113 19.7189L67.5405 16.0174L68.4958 15.9218L68.8665 19.6232L67.9113 19.7189ZM71.3125 19.4687C70.9394 19.506 70.6053 19.4566 70.3102 19.3203C70.0147 19.1791 69.7754 18.9719 69.5922 18.6988C69.4086 18.4207 69.2978 18.0926 69.26 17.7145C69.2226 17.3414 69.2638 17.0006 69.3837 16.6921C69.5085 16.3831 69.702 16.1326 69.9642 15.9405C70.2258 15.7434 70.5457 15.626 70.9238 15.5881C71.3716 15.5432 71.7609 15.6173 72.0918 15.8103C72.4276 16.0028 72.6722 16.3124 72.8255 16.7393L71.8031 16.8417C71.7439 16.7019 71.6446 16.5887 71.5053 16.5022C71.3705 16.4102 71.2011 16.3744 70.9971 16.3948C70.7931 16.4152 70.6317 16.4842 70.5128 16.6016C70.3939 16.719 70.3108 16.8681 70.2636 17.0487C70.2208 17.2238 70.2097 17.4134 70.2301 17.6173C70.2505 17.8213 70.2993 18.0074 70.3765 18.1755C70.4581 18.3382 70.5688 18.4653 70.7086 18.5568C70.8479 18.6434 71.0196 18.6764 71.2236 18.656C71.4176 18.6366 71.5726 18.5783 71.6885 18.4813C71.8039 18.3793 71.883 18.2407 71.9257 18.0656L72.9481 17.9632C72.9113 18.2482 72.8183 18.4988 72.6691 18.7147C72.5249 18.9302 72.3361 19.1023 72.1028 19.2312C71.8744 19.3596 71.611 19.4388 71.3125 19.4687ZM73.624 19.1467L73.1008 13.9228L74.056 13.8271L74.3655 16.9167L75.4398 15.2262L76.6712 15.1029L75.2304 17.124L77.0643 18.8021L75.833 18.9254L74.4215 17.4764L74.5792 19.051L73.624 19.1467ZM80.7054 18.4374C80.3074 18.4772 79.9967 18.4104 79.7733 18.2368C79.5548 18.0627 79.4262 17.7816 79.3873 17.3935L79.2131 15.6547L78.7355 15.7026L78.6555 14.9041L79.1331 14.8562L79.0427 13.9533L79.9979 13.8576L80.0884 14.7606L80.9316 14.6761L81.0116 15.4746L80.1683 15.5591L80.3433 17.3053C80.3572 17.4446 80.404 17.5354 80.4836 17.5777C80.5632 17.62 80.6627 17.6351 80.7821 17.6232L81.2224 17.5791L81.3024 18.3776L80.7054 18.4374ZM81.8665 18.3211L81.3432 13.0972L82.291 13.0023L82.4868 14.9575C82.5987 14.7704 82.7574 14.6239 82.9629 14.5179C83.1728 14.4064 83.3872 14.3397 83.6061 14.3177C84.034 14.2749 84.3987 14.3791 84.7002 14.6303C85.0013 14.8765 85.1779 15.2608 85.2303 15.7832L85.4485 17.9623L84.5008 18.0572L84.2952 16.005C84.2673 15.7264 84.1728 15.5097 84.0115 15.355C83.8548 15.1948 83.6396 15.1284 83.366 15.1559C83.0923 15.1833 82.8896 15.2915 82.7578 15.4806C82.6305 15.6642 82.5808 15.8953 82.6087 16.1739L82.8142 18.2261L81.8665 18.3211ZM87.8345 17.8137C87.4465 17.8526 87.1022 17.8017 86.8017 17.6609C86.5061 17.5197 86.2665 17.31 86.0829 17.0319C85.8993 16.7538 85.789 16.4307 85.7521 16.0625C85.7128 15.6695 85.7582 15.3207 85.8885 15.0162C86.0188 14.7117 86.2178 14.4657 86.4854 14.2781C86.7526 14.0855 87.0727 13.9705 87.4458 13.9331C87.814 13.8963 88.1429 13.9437 88.4324 14.0755C88.727 14.2068 88.9653 14.404 89.1475 14.6672C89.3346 14.9299 89.4463 15.2428 89.4827 15.606C89.4892 15.6706 89.4932 15.7356 89.4947 15.8007C89.4957 15.8609 89.494 15.9189 89.4895 15.9746L86.7432 16.2497C86.7756 16.4223 86.8358 16.5721 86.9239 16.6989C87.0165 16.8203 87.1312 16.9118 87.268 16.9735C87.4093 17.0297 87.5645 17.0493 87.7337 17.0324C87.9078 17.0149 88.0533 16.9627 88.1702 16.8756C88.2921 16.788 88.3826 16.6634 88.4418 16.5017L89.4642 16.3993C89.4165 16.6251 89.325 16.8403 89.1897 17.0448C89.0544 17.2493 88.8731 17.4208 88.6457 17.5591C88.4233 17.697 88.153 17.7818 87.8345 17.8137ZM86.6872 15.6146L88.4707 15.436C88.4408 15.1877 88.3291 15.0004 88.1356 14.8741C87.947 14.7472 87.7333 14.6958 87.4945 14.7197C87.2905 14.7401 87.1079 14.8238 86.9468 14.9705C86.7851 15.1124 86.6985 15.3271 86.6872 15.6146ZM93.6495 17.2313C93.2763 17.2686 92.9422 17.2192 92.6472 17.0829C92.3516 16.9417 92.1123 16.7345 91.9292 16.4614C91.7455 16.1833 91.6348 15.8552 91.5969 15.4771C91.5595 15.104 91.6008 14.7632 91.7206 14.4547C91.8455 14.1457 92.039 13.8952 92.3011 13.7031C92.5628 13.506 92.8827 13.3886 93.2608 13.3507C93.7085 13.3058 94.0978 13.3799 94.4287 13.5729C94.7646 13.7654 95.0092 14.075 95.1625 14.5019L94.1401 14.6043C94.0809 14.4645 93.9816 14.3513 93.8423 14.2648C93.7074 14.1728 93.538 14.137 93.334 14.1574C93.1301 14.1778 92.9686 14.2468 92.8497 14.3642C92.7308 14.4816 92.6478 14.6306 92.6006 14.8113C92.5578 14.9864 92.5466 15.1759 92.5671 15.3799C92.5875 15.5839 92.6363 15.77 92.7134 15.9381C92.795 16.1008 92.9058 16.2279 93.0456 16.3194C93.1849 16.406 93.3566 16.439 93.5605 16.4186C93.7546 16.3991 93.9095 16.3409 94.0254 16.2439C94.1408 16.1419 94.2199 16.0033 94.2627 15.8282L95.2851 15.7257C95.2483 16.0108 95.1553 16.2613 95.0061 16.4773C94.8618 16.6927 94.6731 16.8649 94.4397 16.9938C94.2114 17.1222 93.948 17.2014 93.6495 17.2313ZM97.7759 16.8179C97.4028 16.8553 97.0615 16.8091 96.752 16.6793C96.447 16.544 96.1977 16.3378 96.0041 16.0607C95.8105 15.7837 95.6946 15.4536 95.6562 15.0705C95.6158 14.6675 95.6683 14.313 95.8135 14.007C95.9632 13.6955 96.1771 13.448 96.4552 13.2644C96.7382 13.0802 97.0589 12.9702 97.4171 12.9344C97.7902 12.897 98.1317 12.9457 98.4417 13.0805C98.7512 13.2103 99.005 13.411 99.203 13.6826C99.4061 13.9537 99.5273 14.2858 99.5666 14.6788C99.604 15.0519 99.5528 15.3937 99.4131 15.7042C99.2733 16.0147 99.0627 16.2694 98.7811 16.4685C98.504 16.6621 98.1689 16.7786 97.7759 16.8179ZM97.7079 15.9881C97.9069 15.9681 98.0735 15.9012 98.2078 15.7872C98.3466 15.6678 98.4498 15.5193 98.5175 15.3417C98.5846 15.1591 98.608 14.9658 98.5875 14.7618C98.5641 14.528 98.4969 14.3337 98.3859 14.179C98.2799 14.0238 98.1481 13.9114 97.9903 13.8417C97.8326 13.7721 97.6642 13.7463 97.4851 13.7642C97.2911 13.7836 97.1242 13.8481 96.9844 13.9576C96.8496 14.0666 96.7484 14.2099 96.6807 14.3875C96.6176 14.5596 96.5969 14.7552 96.6189 14.9741C96.6408 15.193 96.7025 15.3828 96.804 15.5434C96.9105 15.7036 97.0432 15.8235 97.2019 15.9031C97.3601 15.9777 97.5288 16.006 97.7079 15.9881ZM102.119 16.3829C101.746 16.4202 101.405 16.374 101.095 16.2442C100.79 16.1089 100.541 15.9028 100.348 15.6257C100.154 15.3486 100.038 15.0185 99.9997 14.6354C99.9593 14.2324 100.012 13.8779 100.157 13.5719C100.307 13.2605 100.521 13.0129 100.799 12.8293C101.082 12.6452 101.402 12.5352 101.761 12.4993C102.134 12.4619 102.475 12.5106 102.785 12.6454C103.095 12.7752 103.348 12.9759 103.547 13.2475C103.75 13.5186 103.871 13.8507 103.91 14.2437C103.948 14.6169 103.896 14.9587 103.757 15.2691C103.617 15.5796 103.406 15.8344 103.125 16.0334C102.848 16.227 102.512 16.3435 102.119 16.3829ZM102.051 15.553C102.25 15.5331 102.417 15.4661 102.551 15.3522C102.69 15.2327 102.793 15.0842 102.861 14.9066C102.928 14.724 102.951 14.5307 102.931 14.3267C102.908 14.0929 102.84 13.8986 102.729 13.7439C102.623 13.5887 102.492 13.4763 102.334 13.4067C102.176 13.337 102.008 13.3112 101.829 13.3291C101.635 13.3486 101.468 13.413 101.328 13.5225C101.193 13.6315 101.092 13.7748 101.024 13.9524C100.961 14.1246 100.94 14.3201 100.962 14.539C100.984 14.7579 101.046 14.9477 101.148 15.1084C101.254 15.2686 101.387 15.3884 101.545 15.468C101.704 15.5426 101.872 15.5709 102.051 15.553ZM104.648 16.0391L104.125 10.8153L105.08 10.7196L105.389 13.8091L106.464 12.1186L107.695 11.9953L106.254 14.0164L108.088 15.6945L106.857 15.8179L105.445 14.3688L105.603 15.9434L104.648 16.0391ZM108.651 11.4172C108.481 11.4341 108.329 11.3891 108.192 11.2822C108.06 11.1698 107.986 11.029 107.969 10.8598C107.952 10.6857 107.997 10.533 108.104 10.4016C108.217 10.2697 108.357 10.1953 108.526 10.1784C108.701 10.1609 108.853 10.2059 108.985 10.3134C109.116 10.4208 109.19 10.5616 109.208 10.7357C109.225 10.9049 109.18 11.0576 109.073 11.194C108.965 11.3253 108.825 11.3997 108.651 11.4172ZM108.592 15.6441L108.221 11.9426L109.176 11.847L109.547 15.5484L108.592 15.6441ZM112.023 15.3909C111.635 15.4298 111.29 15.3788 110.99 15.2381C110.694 15.0968 110.455 14.8872 110.271 14.6091C110.087 14.331 109.977 14.0079 109.94 13.6397C109.901 13.2467 109.946 12.8979 110.077 12.5934C110.207 12.2889 110.406 12.0429 110.673 11.8552C110.941 11.6627 111.261 11.5477 111.634 11.5103C112.002 11.4734 112.331 11.5209 112.62 11.6527C112.915 11.784 113.153 11.9812 113.336 12.2444C113.523 12.507 113.634 12.8199 113.671 13.1831C113.677 13.2478 113.681 13.3127 113.683 13.3779C113.684 13.4381 113.682 13.4961 113.678 13.5518L110.931 13.8269C110.964 13.9995 111.024 14.1492 111.112 14.2761C111.205 14.3975 111.319 14.489 111.456 14.5507C111.597 14.6069 111.753 14.6265 111.922 14.6095C112.096 14.5921 112.241 14.5398 112.358 14.4528C112.48 14.3652 112.571 14.2405 112.63 14.0788L113.652 13.9764C113.605 14.2023 113.513 14.4175 113.378 14.622C113.242 14.8265 113.061 14.9979 112.834 15.1363C112.611 15.2741 112.341 15.359 112.023 15.3909ZM110.875 13.1918L112.659 13.0131C112.629 12.7649 112.517 12.5776 112.324 12.4512C112.135 12.3244 111.921 12.273 111.683 12.2969C111.479 12.3173 111.296 12.4009 111.135 12.5477C110.973 12.6895 110.887 12.9042 110.875 13.1918Z" fill="white"/>
</svg>
