<svg width="95" height="95" viewBox="0 0 95 95" fill="none" xmlns="http://www.w3.org/2000/svg">
<path d="M35.3186 90.3117L30.7412 94.3438L50.4115 94.3007L50.4026 90.2787L35.3186 90.3117Z" fill="#1E1E1E"/>
<path d="M83.1226 72.2256L89.2215 72.2959L74.2874 85.0954L71.6699 82.0409L83.1226 72.2256Z" fill="#1E1E1E"/>
<path d="M59.8843 44.9319L83.1747 72.2369L89.1473 72.1721L74.182 84.9376L51.8114 58.7103" stroke="#1E1E1E" stroke-width="0.619894" stroke-linecap="round" stroke-linejoin="round"/>
<path d="M35.2424 54.6184L35.3211 90.508L30.7433 94.3439L50.4135 94.3007L50.338 59.8296" stroke="#1E1E1E" stroke-width="0.619894" stroke-linecap="round" stroke-linejoin="round"/>
<path d="M62.7315 10.9562L7.46662 37.8219C3.39254 39.8024 1.69538 44.7107 3.67589 48.7847L15.4291 72.962C17.4096 77.0361 22.3179 78.7333 26.3919 76.7528L81.6569 49.887C85.7309 47.9065 87.4281 42.9983 85.4476 38.9242L73.6944 14.7469C71.7138 10.6728 66.8056 8.97565 62.7315 10.9562Z" fill="#F6D307"/>
<path d="M43.9056 33.2005C43.5455 32.4605 43.8545 31.5692 44.5945 31.2091C45.3345 30.849 46.2257 31.158 46.5858 31.898" stroke="#1E1E1E" stroke-width="0.619894" stroke-linecap="round" stroke-linejoin="round"/>
<path d="M34.974 37.543C34.6138 36.803 34.9228 35.9118 35.6628 35.5516C36.4028 35.1915 37.2941 35.5005 37.6542 36.2405" stroke="#1E1E1E" stroke-width="0.619894" stroke-linecap="round" stroke-linejoin="round"/>
<path d="M51.0067 33.1363C53.3947 38.0478 51.3476 43.9661 46.436 46.3542C41.5244 48.7422 35.6062 46.6951 33.2181 41.7835L51.0067 33.1363Z" stroke="#1E1E1E" stroke-width="0.619894" stroke-linecap="round" stroke-linejoin="round"/>
<path d="M9.38099 54.7732C9.38099 54.7732 4.27516 74.1096 6.86564 86.5225C6.86564 86.5225 0.745559 86.2115 0.749903 88.1931C0.754248 90.1747 6.96917 88.5038 6.96917 88.5038C6.96917 88.5038 0.602712 89.3867 0.655995 91.0706C0.709279 92.7546 7.27334 91.5252 7.27334 91.5252C7.27334 91.5252 -0.122995 92.0177 0.837875 93.9176C1.75516 95.7309 10.5686 91.7845 22.7007 93.507C23.4034 93.6067 23.7858 92.6916 23.2815 92.1926C22.5733 91.4916 21.1953 90.6516 18.5169 89.9653C18.5169 89.9653 17.0462 74.6591 20.3014 67.9137" stroke="#1E1E1E" stroke-width="0.619894" stroke-linecap="round" stroke-linejoin="round"/>
<path d="M69.6665 24.6316C69.6665 24.6316 78.8082 21.4677 81.2573 11.7982C81.2573 11.7982 76.0427 11.7176 76.0375 9.33931C76.0323 6.96099 81.2494 8.22965 81.2494 8.22965C81.2494 8.22965 82.3302 0.267812 84.1601 0.355752C85.9901 0.443691 85.7229 3.91984 85.4545 6.39071C85.4545 6.39071 86.1725 0.258354 88.1853 0.345893C90.1981 0.433431 89.4785 5.83328 89.4785 5.83328C89.4785 5.83328 90.5637 -0.119078 92.6682 0.33503C94.7737 0.79017 96.3625 16.2469 79.6533 31.379" stroke="#1E1E1E" stroke-width="0.619894" stroke-linecap="round" stroke-linejoin="round"/>
<path d="M80.9369 11.7859C79.4748 20.6556 69.6654 24.6321 69.6654 24.6321C69.6654 24.6321 78.9358 17.9892 78.933 11.5258L80.9369 11.7859Z" fill="#1E1E1E"/>
<path d="M2.75968 94.6768C2.47766 94.6919 2.43749 94.2767 2.71635 94.2358C6.29822 93.7227 11.1031 93.1036 13.8295 93.0357C16.3771 92.9722 20.0369 93.112 22.8732 93.2545C23.1542 93.2684 23.1541 93.6837 22.8731 93.6967C20.2605 93.8181 16.7029 94.5564 12.9963 94.735C9.5067 94.9038 5.88668 94.5119 2.75967 94.6758L2.75968 94.6768Z" fill="#1E1E1E"/>
<path d="M19.7907 69.1526C19.7907 69.1526 16.6231 87.5787 21.8391 91.1761L18.5201 89.9653C18.5201 89.9653 17.415 72.7377 19.7917 69.1526L19.7907 69.1526Z" fill="#1E1E1E"/>
<path d="M40.4201 23.3542C40.4201 23.3542 35.9403 18.6549 30.8113 18.4646C25.6823 18.2744 21.528 22.0628 29.9086 26.1337C38.2882 30.2045 39.2837 25.7763 34.2026 24.3514C29.1215 22.9264 22.8668 22.937 22.4403 26.3009C22.0148 29.6647 32.5734 30.9744 32.5734 30.9744" stroke="#1E1E1E" stroke-width="0.619894" stroke-linecap="round" stroke-linejoin="round"/>
</svg>
