<svg width="310" height="235" viewBox="0 0 310 235" fill="none" xmlns="http://www.w3.org/2000/svg">
<path d="M154.805 234.491C219.558 234.491 272.05 181.998 272.05 117.245C272.05 52.4925 219.558 0 154.805 0C90.0521 0 37.5596 52.4925 37.5596 117.245C37.5596 181.998 90.0521 234.491 154.805 234.491Z" fill="#F6D307"/>
<path d="M292.786 200.967H16.8465C8.68279 200.967 1.88694 195.365 0.323663 187.354C-1.23961 179.342 2.97243 171.591 10.5282 168.529L152.352 111.188C153.915 110.558 155.674 110.558 157.237 111.188L299.082 168.529C306.66 171.591 310.85 179.32 309.287 187.354C307.724 195.365 300.928 200.967 292.764 200.967H292.786ZM154.827 124.258L15.4352 180.623C12.808 181.687 12.9385 183.945 13.1339 184.878C13.3076 185.812 14.0457 187.962 16.8683 187.962H292.807C295.63 187.962 296.368 185.812 296.542 184.878C296.716 183.945 296.846 181.687 294.24 180.623L154.849 124.258H154.827Z" fill="#1E1E1E"/>
<path d="M121.195 130.272C113.639 130.272 105.931 127.884 99.4177 123.368C90.7545 117.375 85.3048 108.322 84.4363 98.5511C84.1106 94.9686 86.7594 91.7986 90.3419 91.4947C93.8593 91.169 97.0944 93.8178 97.3983 97.4003C97.9411 103.415 101.285 108.821 106.822 112.664C112.879 116.854 120.348 118.287 126.797 116.507C132.398 114.965 138.912 111.166 145.23 105.716C138 97.3135 131.899 87.4344 128.078 77.2514C123.909 66.1565 124.886 55.3005 130.857 46.6808C136.285 38.8211 145.751 33.545 154.371 33.545C162.991 33.545 172.457 38.8211 177.885 46.6808C183.856 55.3005 184.833 66.1565 180.664 77.2514C176.843 87.4344 170.742 97.3135 163.512 105.716C169.852 111.166 176.344 114.965 181.945 116.507C188.394 118.287 195.863 116.854 201.92 112.664C207.457 108.821 210.822 103.393 211.343 97.4003C211.669 93.8178 214.861 91.169 218.4 91.4947C221.982 91.8203 224.631 94.9686 224.306 98.5511C223.437 108.343 217.966 117.375 209.324 123.368C200.118 129.73 188.589 131.857 178.472 129.057C170.438 126.842 162.079 121.805 154.371 114.987C146.663 121.805 138.304 126.82 130.271 129.057C127.339 129.882 124.278 130.272 121.195 130.272ZM154.371 46.5723C150.593 46.5723 144.991 49.156 141.561 54.1063C138.044 59.1653 137.609 65.592 140.258 72.6702C143.602 81.5721 148.639 89.6708 154.349 96.445C160.059 89.6708 165.097 81.5721 168.441 72.6702C171.111 65.592 170.655 59.1653 167.138 54.1063C163.707 49.156 158.106 46.5723 154.328 46.5723H154.371Z" fill="#1E1E1E"/>
</svg>
