<svg width="141" height="94" viewBox="0 0 141 94" fill="none" xmlns="http://www.w3.org/2000/svg">
<path d="M82.3506 3.07073L35.7297 83.8195C33.3676 87.9138 36.3202 93.0317 41.0488 93.0317H134.286C139.015 93.0317 141.972 87.9138 139.605 83.8195L92.9843 3.07073C90.6222 -1.02358 84.7083 -1.02358 82.3462 3.07073H82.3506Z" fill="#64BDFF"/>
<path d="M134.543 92.5464H17.6719L12.7246 68.8685L19.2029 73.5577L73.6362 74.2313" stroke="#1E1E1E" stroke-width="0.874852" stroke-linecap="round" stroke-linejoin="round"/>
<path d="M12.7248 74.2312H6.46962L0.4375 70.2069L4.90798 92.5462H17.6721" stroke="#1E1E1E" stroke-width="0.874852" stroke-linecap="round" stroke-linejoin="round"/>
<path d="M96.7103 60.1591C96.7103 60.1591 67.674 52.1192 60.9727 68.8682" stroke="#1E1E1E" stroke-width="0.874852" stroke-linecap="round" stroke-linejoin="round"/>
<path d="M70.5783 63.5494C70.5783 63.5494 65.8891 64.8486 65.666 70.2115C65.666 70.2115 72.5905 68.8729 82.1964 72.0005C91.8022 75.1281 109.671 81.1996 116.372 67.775" stroke="#1E1E1E" stroke-width="0.874852" stroke-linecap="round" stroke-linejoin="round"/>
<path d="M44.8887 60.8286C44.8887 60.8286 57.399 60.1594 57.6221 68.8685" stroke="#1E1E1E" stroke-width="0.874852" stroke-linecap="round" stroke-linejoin="round"/>
<path d="M49.1328 60.8154C49.1328 60.8154 52.2517 63.7593 52.7066 68.8685" stroke="#1E1E1E" stroke-width="0.874852" stroke-linecap="round" stroke-linejoin="round"/>
<path d="M22.9876 40.5012H36.854C39.1942 40.5012 41.2195 42.1372 41.705 44.4293L46.9017 68.8683H65.4398C67.1676 68.8683 68.5674 70.268 68.5674 71.9959C68.5674 73.7237 67.1676 75.1235 65.4398 75.1235H25.3803L18.8277 45.6891C18.2372 43.0295 20.2581 40.5012 22.9876 40.5012Z" fill="#1E1E1E"/>
<path d="M83.1426 40.2622C83.1426 40.2622 88.8029 42.0513 91.4799 35.4987" stroke="#1E1E1E" stroke-width="0.874852" stroke-linecap="round" stroke-linejoin="round"/>
<path d="M89.516 31.9948C89.2491 30.5645 90.1896 29.1866 91.6199 28.9154C93.0503 28.6485 94.4282 29.589 94.6994 31.0194" stroke="#1E1E1E" stroke-width="0.874852" stroke-linecap="round" stroke-linejoin="round"/>
<path d="M77.4691 33.714C77.2022 32.2836 78.1427 30.9057 79.5731 30.6345C81.0035 30.3677 82.3814 31.3081 82.6526 32.7385" stroke="#1E1E1E" stroke-width="0.874852" stroke-linecap="round" stroke-linejoin="round"/>
</svg>
