<svg width="361" height="237" viewBox="0 0 361 237" fill="none" xmlns="http://www.w3.org/2000/svg">
<path d="M153.005 15.6327L52.6078 189.525C40.5793 210.369 55.6258 236.423 79.6828 236.423H280.498C304.577 236.423 319.602 210.369 307.573 189.525L207.176 15.6327C195.148 -5.21091 165.055 -5.21091 153.026 15.6327H153.005Z" fill="#FFB9FF"/>
<path d="M325.551 76.4701C325.551 66.913 317.804 59.1655 308.247 59.1655C298.69 59.1655 290.942 66.913 290.942 76.4701V123.629C290.942 133.186 298.69 140.933 308.247 140.933C317.804 140.933 325.551 133.186 325.551 123.629V76.4701Z" fill="#1E1E1E"/>
<path d="M360.16 76.4701C360.16 66.913 352.412 59.1655 342.855 59.1655C333.298 59.1655 325.551 66.913 325.551 76.4701V123.629C325.551 133.186 333.298 140.933 342.855 140.933C352.412 140.933 360.16 133.186 360.16 123.629V76.4701Z" fill="#1E1E1E"/>
<path d="M34.6091 76.4701C34.6091 66.913 26.8616 59.1655 17.3046 59.1655C7.74751 59.1655 0 66.913 0 76.4701V123.629C0 133.186 7.74751 140.933 17.3046 140.933C26.8616 140.933 34.6091 133.186 34.6091 123.629V76.4701Z" fill="#1E1E1E"/>
<path d="M69.2185 76.4701C69.2185 66.913 61.471 59.1655 51.9139 59.1655C42.3569 59.1655 34.6094 66.913 34.6094 76.4701V123.629C34.6094 133.186 42.3569 140.933 51.9139 140.933C61.471 140.933 69.2185 133.186 69.2185 123.629V76.4701Z" fill="#1E1E1E"/>
<path d="M178.952 191.566C170.332 191.566 160.887 186.29 155.437 178.43C149.467 169.81 148.49 158.954 152.658 147.859C156.653 137.264 162.711 127.233 169.789 118.83C167.205 116.702 164.513 114.835 161.734 113.25C151.03 107.149 137.764 106.454 126.213 106.563L112.795 106.693C92.7111 106.889 71.9544 107.084 51.5667 107.475C47.9842 107.518 45.0097 104.674 44.9228 101.091C44.836 97.5089 47.7237 94.5343 51.3062 94.4475C71.759 94.0567 92.5375 93.8613 112.643 93.6658L126.039 93.5356C139.37 93.4053 154.764 94.2955 168.161 101.938C171.873 104.066 175.456 106.585 178.843 109.472C186.768 102.438 195.323 97.5523 203.443 95.9239C215.211 93.5573 225.35 93.6659 231.951 93.9481C250.775 94.7515 307.943 93.9481 308.53 93.9481C308.551 93.9481 308.595 93.9481 308.616 93.9481C312.177 93.9481 315.087 96.8141 315.13 100.375C315.173 103.979 312.307 106.932 308.703 106.975C306.337 107.019 250.58 107.779 231.408 106.975C221.855 106.563 214.017 107.106 206.005 108.712C200.316 109.863 194.063 113.467 188.071 118.7C195.171 126.972 201.055 136.916 205.18 147.859C209.349 158.954 208.372 169.81 202.401 178.43C196.951 186.29 187.506 191.566 178.886 191.566H178.952ZM179.06 128.123C173.198 135.266 168.117 143.734 164.839 152.441C162.168 159.519 162.624 165.945 166.141 171.004C169.572 175.955 175.174 178.538 178.952 178.538C182.73 178.538 188.331 175.955 191.762 171.004C195.279 165.945 195.713 159.519 193.064 152.441C189.634 143.321 184.836 135.027 179.082 128.123H179.06Z" fill="#1E1E1E"/>
<path d="M360.16 76.4701C360.16 66.913 352.412 59.1655 342.855 59.1655C333.298 59.1655 325.551 66.913 325.551 76.4701V123.629C325.551 133.186 333.298 140.933 342.855 140.933C352.412 140.933 360.16 133.186 360.16 123.629V76.4701Z" fill="#1E1E1E"/>
</svg>
