<svg width="172" height="164" viewBox="0 0 172 164" fill="none" xmlns="http://www.w3.org/2000/svg">
<g opacity="0.4">
<path d="M128.015 77.6719L138.534 89.7467C138.534 89.7467 129.623 88.0091 123.02 81.9144L128.015 77.6719Z" fill="#33ABFF"/>
<path d="M47.1105 100.917L49.0049 144.014L41.2732 147.929L69.4866 151.804L75.468 108.257" stroke="#33ABFF" stroke-width="0.945345" stroke-linecap="round" stroke-linejoin="round"/>
<path d="M49.3644 141.206L41.243 148.068L69.3973 151.935L70.4796 144.056L49.3644 141.206Z" fill="#33ABFF"/>
<path d="M111.038 109.697L97.5949 150.687L103.985 156.542L75.7702 152.666L81.7516 109.119" stroke="#33ABFF" stroke-width="0.945345" stroke-linecap="round" stroke-linejoin="round"/>
<path d="M97.9033 147.874L103.874 156.671L75.7196 152.804L76.8019 144.924L97.9033 147.874Z" fill="#33ABFF"/>
<path d="M127.445 60.3919C127.445 60.3919 141.078 72.8992 143.946 70.9919C146.108 69.5553 145.573 62.613 145.177 59.2746C145.052 58.2157 144.224 57.3768 143.168 57.2317L139.529 56.7319C138.555 56.5981 137.646 56.1186 137.049 55.3384C136.021 53.995 135.929 51.8225 143.288 50.09L144.696 43.5592C144.977 42.2493 145.433 40.9792 146.093 39.8134C146.75 38.6505 147.613 37.5937 148.424 38.012C150.047 38.8488 149.212 48.6533 149.212 48.6533C149.212 48.6533 151.441 38.3772 154.654 38.8184C156.46 39.0665 155.176 49.1655 155.176 49.1655C155.176 49.1655 158.454 37.9567 161.666 38.398C164.879 38.8392 161.788 53.1415 161.788 53.1415C161.788 53.1415 165.853 59.2439 163.82 74.0906C161.525 90.8433 145.222 96.7672 127.12 83.3964" stroke="#33ABFF" stroke-width="0.945345" stroke-linecap="round" stroke-linejoin="round"/>
<path d="M61.0001 8.42084L122.237 16.8319C128.086 17.6353 132.182 23.6028 131.269 30.2542L121.89 98.5359C120.976 105.187 115.423 109.829 109.573 109.026L48.3369 100.615C42.4877 99.8114 38.3904 93.8438 39.304 87.1924L48.6828 18.9107C49.5964 12.2593 55.1509 7.61742 61.0001 8.42084Z" stroke="#33ABFF" stroke-width="0.932452"/>
<path d="M41.4933 64.2898C41.4933 64.2898 30.1081 61.231 28.3544 68.9277C26.8688 75.4477 33.3242 77.9709 40.5786 79.8881C47.8313 81.8051 56.1629 88.1643 53.8953 90.1541C52.4505 91.422 48.7077 90.3497 46.1831 89.4049C45.1063 89.001 43.9987 89.9208 44.1864 91.055C45.0037 96.0116 46.3406 106.159 43.7107 106.78C40.2226 107.605 41.0136 96.8217 41.0136 96.8217C41.0136 96.8217 40.7531 107.274 38.948 107.02C36.5968 106.689 36.8389 95.9413 36.8389 95.9413C36.8389 95.9413 37.0344 106.988 34.4978 106.282C31.4954 105.446 32.8555 94.7803 32.8555 94.7803C17.5338 91.2954 3.18311 75.6471 13.7683 57.7717C24.3533 39.8978 42.3278 45.918 42.3278 45.918" stroke="#33ABFF" stroke-width="0.945345" stroke-linecap="round" stroke-linejoin="round"/>
<path d="M28.2011 71.6263C28.2011 71.6263 31.6794 64.5275 41.8702 64.3671C41.8702 64.3671 27.6967 60.9174 28.2011 71.6263Z" fill="#33ABFF"/>
<path d="M102.211 47.2714C101.078 55.5225 93.4707 61.2939 85.2181 60.1603C76.9655 59.0268 71.1957 51.4196 72.3292 43.167" stroke="#33ABFF" stroke-width="0.945345" stroke-linecap="round" stroke-linejoin="round"/>
<path d="M92.2818 45.7894C92.4524 44.5469 93.5993 43.6771 94.8418 43.8477C96.0843 44.0184 96.9541 45.1653 96.7835 46.4077" stroke="#33ABFF" stroke-width="0.945345" stroke-linecap="round" stroke-linejoin="round"/>
<path d="M77.274 43.7284C77.4446 42.4859 78.5915 41.616 79.834 41.7867C81.0764 41.9574 81.9463 43.1042 81.7756 44.3467" stroke="#33ABFF" stroke-width="0.945345" stroke-linecap="round" stroke-linejoin="round"/>
<path d="M85.5863 9.06901C85.5863 9.06901 72.1422 18.6381 79.3883 21.2985C86.6328 23.9587 100.69 18.5849 96.6609 14.1573C91.5953 8.59027 73.8236 30.6425 102.525 23.4061" stroke="#33ABFF" stroke-width="0.945345" stroke-linecap="round" stroke-linejoin="round"/>
</g>
</svg>
