<svg width="313" height="196" viewBox="0 0 313 196" fill="none" xmlns="http://www.w3.org/2000/svg">
<path d="M281.389 0H31.2655C13.9981 0 0 13.998 0 31.2654V164.144C0 181.411 13.9981 195.409 31.2655 195.409H281.389C298.656 195.409 312.655 181.411 312.655 164.144V31.2654C312.655 13.998 298.656 0 281.389 0Z" fill="#8D8DFF"/>
<path d="M156.306 146.709C147.687 146.709 138.242 141.433 132.792 133.573C126.821 124.953 125.844 114.097 130.013 103.002C134.008 92.4067 140.066 82.3757 147.144 73.9731C144.56 71.8453 141.868 69.9781 139.088 68.3931C128.384 62.292 115.14 61.5972 103.567 61.7058C103.546 61.7058 103.524 61.7058 103.502 61.7058C99.9416 61.7058 97.0322 58.8398 96.9888 55.2573C96.9453 51.6531 99.833 48.7219 103.437 48.6785C116.747 48.5482 132.162 49.4384 145.559 57.0811C149.272 59.2089 152.854 61.7275 156.241 64.6152C164.166 57.5805 172.721 52.6953 180.841 51.0668C192.609 48.7002 202.748 48.8088 209.349 49.091C212.953 49.243 215.732 52.2827 215.58 55.8652C215.428 59.4694 212.41 62.2703 208.806 62.0966C199.253 61.6841 191.415 62.2269 183.403 63.8336C177.714 64.9843 171.461 68.5885 165.469 73.8211C172.569 82.0935 178.453 92.0376 182.578 102.981C186.747 114.075 185.769 124.931 179.799 133.551C174.349 141.411 164.904 146.687 156.285 146.687L156.306 146.709ZM156.415 83.2659C150.553 90.4092 145.472 98.8769 142.193 107.583C139.523 114.662 139.979 121.088 143.496 126.147C146.927 131.098 152.528 133.681 156.306 133.681C160.084 133.681 165.686 131.098 169.116 126.147C172.634 121.088 173.068 114.662 170.397 107.583C166.967 98.4644 162.169 90.1704 156.415 83.2659Z" fill="#1E1E1E"/>
<path d="M156.306 146.709C147.687 146.709 138.242 141.433 132.792 133.573C126.821 124.953 125.844 114.097 130.013 103.002C134.008 92.4067 140.066 82.3757 147.144 73.9731C144.56 71.8453 141.868 69.9781 139.088 68.3931C128.384 62.292 115.14 61.5972 103.567 61.7058C103.546 61.7058 103.524 61.7058 103.502 61.7058C99.9416 61.7058 97.0322 58.8398 96.9888 55.2573C96.9453 51.6531 99.833 48.7219 103.437 48.6785C116.747 48.5482 132.162 49.4384 145.559 57.0811C149.272 59.2089 152.854 61.7275 156.241 64.6152C164.166 57.5805 172.721 52.6953 180.841 51.0668C192.609 48.7002 202.748 48.8088 209.349 49.091C212.953 49.243 215.732 52.2827 215.58 55.8652C215.428 59.4694 212.41 62.2703 208.806 62.0966C199.253 61.6841 191.415 62.2269 183.403 63.8336C177.714 64.9843 171.461 68.5885 165.469 73.8211C172.569 82.0935 178.453 92.0376 182.578 102.981C186.747 114.075 185.769 124.931 179.799 133.551C174.349 141.411 164.904 146.687 156.285 146.687L156.306 146.709ZM156.415 83.2659C150.553 90.4092 145.472 98.8769 142.193 107.583C139.523 114.662 139.979 121.088 143.496 126.147C146.927 131.098 152.528 133.681 156.306 133.681C160.084 133.681 165.686 131.098 169.116 126.147C172.634 121.088 173.068 114.662 170.397 107.583C166.967 98.4644 162.169 90.1704 156.415 83.2659Z" fill="#1E1E1E"/>
<path d="M247.714 124.215C260.077 124.215 270.099 114.193 270.099 101.83C270.099 89.467 260.077 79.4448 247.714 79.4448C235.351 79.4448 225.329 89.467 225.329 101.83C225.329 114.193 235.351 124.215 247.714 124.215Z" fill="#1E1E1E"/>
<path d="M64.9189 130.511C61.3147 130.511 58.4053 127.602 58.4053 123.998V79.2058C58.4053 75.6016 61.3147 72.6921 64.9189 72.6921C68.5231 72.6921 71.4325 75.6016 71.4325 79.2058V123.998C71.4325 127.602 68.5231 130.511 64.9189 130.511Z" fill="#1E1E1E"/>
<path d="M87.3047 108.126H42.5127C38.9084 108.126 35.999 105.217 35.999 101.613C35.999 98.0085 38.9084 95.0991 42.5127 95.0991H87.3047C90.909 95.0991 93.8184 98.0085 93.8184 101.613C93.8184 105.217 90.909 108.126 87.3047 108.126Z" fill="#1E1E1E"/>
</svg>
