<svg width="346" height="235" viewBox="0 0 346 235" fill="none" xmlns="http://www.w3.org/2000/svg">
<path d="M172.482 234.491C237.235 234.491 289.727 181.998 289.727 117.245C289.727 52.4925 237.235 0 172.482 0C107.729 0 55.2363 52.4925 55.2363 117.245C55.2363 181.998 107.729 234.491 172.482 234.491Z" fill="#98D81E"/>
<path d="M68.2845 214.646C68.2845 214.646 68.176 214.646 68.1109 214.646C65.0712 214.581 62.4875 212.41 61.9012 209.435L40.2975 103.133L27.3789 160.214C26.7059 163.188 24.0786 165.294 21.0172 165.294H6.51363C2.90942 165.294 0 162.385 0 158.781C0 155.177 2.90942 152.267 6.51363 152.267H15.8282L34.2835 70.673C34.9566 67.6984 37.6053 65.5923 40.645 65.5923C40.6667 65.5923 40.6885 65.5923 40.7102 65.5923C43.7716 65.6357 46.3988 67.807 47.0285 70.8032L69.0229 179.016L85.9147 113.012C86.6095 110.254 89.0412 108.278 91.8855 108.126C94.7732 107.974 97.3355 109.69 98.3342 112.36L113.163 152.05H128.036C140.955 152.093 153.07 148.207 162.928 141.064C162.493 140.564 162.059 140.065 161.647 139.544C155.024 131.445 149.683 122.304 146.231 113.12C142.062 102.025 143.039 91.1691 149.01 82.5494C154.438 74.6897 163.905 69.4136 172.524 69.4136C181.144 69.4136 190.589 74.6897 196.039 82.5494C202.01 91.1691 202.986 102.025 198.818 113.12C195.387 122.218 190.133 131.271 183.597 139.305C183.098 139.913 182.599 140.521 182.099 141.107C191.848 148.229 203.811 152.18 216.448 152.289H226.327L244.782 70.6947C245.455 67.7202 248.104 65.614 251.144 65.614C251.166 65.614 251.187 65.614 251.209 65.614C254.27 65.6574 256.898 67.8287 257.527 70.825L279.522 179.038L296.414 113.033C297.109 110.276 299.54 108.3 302.385 108.148C305.294 107.996 307.834 109.711 308.833 112.382L323.662 152.072H338.535C342.139 152.072 345.049 154.981 345.049 158.585C345.049 162.189 342.139 165.099 338.535 165.099H319.146C316.432 165.099 314 163.405 313.045 160.865L303.904 136.396L285.123 209.804C284.363 212.735 281.584 214.798 278.653 214.711C275.613 214.646 273.03 212.475 272.422 209.5L250.797 103.198L237.878 160.279C237.205 163.253 234.578 165.359 231.516 165.359H216.339C200.099 165.229 184.748 159.845 172.503 150.226C160.105 159.91 144.451 165.164 128.015 165.121H108.647C105.933 165.121 103.502 163.427 102.546 160.887L93.4055 136.417L74.6245 209.826C73.8863 212.714 71.2808 214.733 68.3062 214.733L68.2845 214.646ZM172.481 82.4192C168.703 82.4192 163.101 85.003 159.671 89.9533C156.154 95.0123 155.719 101.439 158.39 108.517C161.343 116.399 165.946 124.258 171.699 131.293C171.96 131.619 172.22 131.923 172.481 132.227C172.807 131.836 173.132 131.467 173.458 131.076C179.125 124.106 183.663 116.312 186.594 108.517C189.264 101.439 188.808 95.0123 185.313 89.9533C181.882 85.0247 176.28 82.4192 172.503 82.4192H172.481Z" fill="#1E1E1E"/>
</svg>
