<svg width="133" height="75" viewBox="0 0 133 75" fill="none" xmlns="http://www.w3.org/2000/svg">
<path d="M63.0237 26.464C63.0237 11.8483 51.1754 0 36.5597 0C21.944 0 10.0957 11.8483 10.0957 26.464C10.0957 41.0796 21.944 52.928 36.5597 52.928C51.1754 52.928 63.0237 41.0796 63.0237 26.464Z" fill="#8D8DFF"/>
<path d="M39.1816 12.6801C39.1816 12.0274 39.7106 11.4984 40.3633 11.4984C41.016 11.4984 41.545 12.0274 41.545 12.6801" stroke="#1E1E1E" stroke-width="0.458013" stroke-linecap="round" stroke-linejoin="round"/>
<path d="M31.3008 12.6801C31.3008 12.0274 31.8298 11.4984 32.4824 11.4984C33.1351 11.4984 33.6641 12.0274 33.6641 12.6801" stroke="#1E1E1E" stroke-width="0.458013" stroke-linecap="round" stroke-linejoin="round"/>
<path d="M46.0895 13.7839C44.475 16.1931 40.8315 17.8717 36.5949 17.8717C32.3583 17.8717 28.6049 16.1404 27.0293 13.6763" stroke="#1E1E1E" stroke-width="0.458013" stroke-linecap="round" stroke-linejoin="round"/>
<path d="M19.9878 70.8317L14.9199 74.1706H31.9397L32.455 70.8317H19.9878Z" fill="#1E1E1E"/>
<path d="M49.4861 44.5441L53.1319 70.7287L58.1999 74.1706H41.1801L37.0855 48.4555H36.0343L31.9397 74.1706H14.9199L19.9878 70.7287L23.6336 44.5441" stroke="#1E1E1E" stroke-width="0.458013" stroke-linecap="round" stroke-linejoin="round"/>
<path d="M53.1331 70.8317L58.2011 74.1706H41.1813L40.666 70.8317H53.1331Z" fill="#1E1E1E"/>
<path d="M96.568 2.56032L75.575 38.922C73.7635 42.0594 76.0284 45.9822 79.6513 45.9822H121.637C125.26 45.9822 127.525 42.0594 125.714 38.922L104.721 2.56032C102.909 -0.577072 98.3795 -0.577072 96.568 2.56032Z" fill="#98D81E"/>
<path d="M102.682 20.732C102.675 20.1595 103.135 19.6901 103.708 19.6832C104.28 19.6763 104.75 20.1366 104.757 20.7091" stroke="#1E1E1E" stroke-width="0.458013" stroke-linecap="round" stroke-linejoin="round"/>
<path d="M95.7657 20.8121C95.7588 20.2396 96.2191 19.7701 96.7916 19.7633C97.3642 19.7564 97.8336 20.2167 97.8405 20.7892" stroke="#1E1E1E" stroke-width="0.458013" stroke-linecap="round" stroke-linejoin="round"/>
<path d="M104.838 22.8297C104.85 23.819 102.821 24.6457 100.304 24.6755C97.7892 24.7053 95.7396 23.9244 95.7305 22.9351L104.838 22.8297Z" stroke="#1E1E1E" stroke-width="0.458013" stroke-linecap="round" stroke-linejoin="round"/>
<path d="M17.8973 28.3716C17.8973 28.3716 10.8438 30.7235 8.70263 31.0739C7.995 31.1907 5.85612 30.9731 4.22102 31.2433C2.67064 31.4998 -0.104924 32.938 0.261486 34.3532C0.566065 35.5326 2.71873 36.1212 5.58589 34.0876" stroke="#1E1E1E" stroke-width="0.458013" stroke-linecap="round" stroke-linejoin="round"/>
<path d="M18.5983 35.496C18.5983 35.496 13.2212 36.515 8.75332 39.1234C8.32736 39.3731 7.82357 39.4532 7.34036 39.3479L6.97852 39.2677" stroke="#1E1E1E" stroke-width="0.458013" stroke-linecap="round" stroke-linejoin="round"/>
<path d="M9.13546 37.8639C9.13546 37.8639 8.47271 38.5646 7.03996 39.0274C5.60721 39.4901 2.60044 40.7659 2.09661 39.9783C1.59277 39.1907 1.3539 37.9222 4.5445 37.2658" stroke="#1E1E1E" stroke-width="0.458013" stroke-linecap="round" stroke-linejoin="round"/>
<path d="M4.42188 34.8634C4.42188 34.8634 -0.284424 36.272 1.80753 38.4479" stroke="#1E1E1E" stroke-width="0.458013" stroke-linecap="round" stroke-linejoin="round"/>
<path d="M83.034 28.3716C83.034 28.3716 75.9806 30.7235 73.8394 31.0739C73.1318 31.1907 70.9928 30.9731 69.3577 31.2433C67.8074 31.4998 65.0318 32.938 65.3982 34.3532C65.7028 35.5326 67.8554 36.1212 70.7226 34.0876" stroke="#1E1E1E" stroke-width="0.458013" stroke-linecap="round" stroke-linejoin="round"/>
<path d="M84.6706 35.583C84.6706 35.583 79.2935 36.6021 74.8256 39.2105C74.3996 39.4601 73.8958 39.5402 73.4126 39.4349L73.0508 39.3547" stroke="#1E1E1E" stroke-width="0.458013" stroke-linecap="round" stroke-linejoin="round"/>
<path d="M70.9414 34.7424C70.9414 34.7424 71.6536 35.3928 72.1414 36.8172C72.6269 38.2439 73.9574 41.2256 73.1788 41.7432C72.4002 42.2607 71.136 42.5218 70.4238 39.3432" stroke="#1E1E1E" stroke-width="0.458013" stroke-linecap="round" stroke-linejoin="round"/>
<path d="M68.0234 39.5082C68.0234 39.5082 69.5143 44.1891 71.6532 42.0593" stroke="#1E1E1E" stroke-width="0.458013" stroke-linecap="round" stroke-linejoin="round"/>
<path d="M65.7559 39.7349C65.7559 39.7349 67.2902 44.6287 69.3581 42.2952" stroke="#1E1E1E" stroke-width="0.458013" stroke-linecap="round" stroke-linejoin="round"/>
<path d="M56.0566 36.8586L62.7024 37.9418C62.7024 37.9418 64.6123 44.8075 66.9024 42.0617" stroke="#1E1E1E" stroke-width="0.458013" stroke-linecap="round" stroke-linejoin="round"/>
<path d="M55.1055 28.3716C55.1055 28.3716 63.2077 31.4677 66.3519 31.5525" stroke="#1E1E1E" stroke-width="0.458013" stroke-linecap="round" stroke-linejoin="round"/>
<path d="M115.688 30.8815L126.696 35.4524C126.696 35.4524 128.839 32.2212 129.927 33.0616C130.5 33.5036 129.439 35.9425 129.439 35.9425C129.439 35.9425 132.634 37.1837 132.192 38.157C131.752 39.1303 128.697 38.1662 128.697 38.1662C128.697 38.1662 132.494 39.8196 131.858 40.9761C131.221 42.1326 127.637 40.6188 127.637 40.6188C127.637 40.6188 131.319 42.6318 130.332 43.3898C129.345 44.1455 125.434 42.7211 118.999 40.0898" stroke="#1E1E1E" stroke-width="0.458013" stroke-linecap="round" stroke-linejoin="round"/>
<path d="M84.0718 70.8317L79.0039 74.1706H96.0236L96.5389 70.8317H84.0718Z" fill="#1E1E1E"/>
<path d="M117.215 70.8317L122.283 74.1706H105.263L104.748 70.8317H117.215Z" fill="#1E1E1E"/>
<path d="M113.57 44.5441L117.216 70.7287L122.284 74.1706H105.264L101.169 48.4555H100.118L96.0236 74.1706H79.0039L84.0718 70.7287L87.7176 44.5441" stroke="#1E1E1E" stroke-width="0.458013" stroke-linecap="round" stroke-linejoin="round"/>
</svg>
