<svg width="124" height="136" viewBox="0 0 124 136" fill="none" xmlns="http://www.w3.org/2000/svg">
<g opacity="0.4">
<path d="M79.3382 83.5781L79.4245 120.561L86.0574 123.662L62.5575 127.908L55.8523 90.7971" stroke="#E769CE" stroke-width="1.23121" stroke-linecap="round" stroke-linejoin="round"/>
<path d="M79.423 120.562L86.056 123.662L62.556 127.908L61.7992 123.719L79.423 120.562Z" fill="#E769CE"/>
<path d="M26.0504 93.2061L38.9115 127.881L33.7828 133.107L57.2827 128.861L50.5776 91.7501" stroke="#E769CE" stroke-width="1.23121" stroke-linecap="round" stroke-linejoin="round"/>
<path d="M38.9113 127.881L33.7826 133.107L57.2825 128.861L56.5257 124.672L38.9113 127.881Z" fill="#E769CE"/>
<path d="M94.4053 31.4217L94.1506 22.6411C94.1022 20.9423 91.7808 20.4237 91.0546 21.9619C90.0101 24.1679 90.7855 29.3911 90.9872 36.3143C91.2868 46.5749 82.5819 43.9539 82.5819 43.9539" stroke="#E769CE" stroke-width="1.23121" stroke-linecap="round" stroke-linejoin="round"/>
<path d="M86.9984 67C109.617 70.907 107.776 48.5263 107.327 33.0588C107.035 23.0102 104.178 17.4598 102.209 14.8001C101.517 13.8669 100.046 14.1957 99.8069 15.3333L98.9065 19.6177C98.5982 21.0894 99.0908 22.5847 100.124 23.6787C101.046 24.6516 101.934 26.5895 101.771 30.446" stroke="#E769CE" stroke-width="1.23121" stroke-linecap="round" stroke-linejoin="round"/>
<path d="M98.788 5.33453L94.6372 5.45618L94.1333 22.085L94.3979 31.2035C94.4084 31.5444 94.866 31.6481 95.022 31.3463L98.7321 24.1432L98.788 5.33453Z" fill="#E769CE"/>
<path d="M65.6373 7.06401L10.174 17.0851C4.88667 18.0404 1.37425 23.2181 2.35945 28.6709L12.6361 85.5488C13.6215 91.0013 18.7235 94.6217 24.0107 93.6664L79.474 83.6453C84.7612 82.69 88.2737 77.5131 87.2887 72.0605L77.012 15.1826C76.0576 9.90037 71.2396 6.33655 66.1326 6.98742L65.6373 7.06401Z" stroke="#E769CE"/>
<path d="M32.2385 60.4433C32.2385 60.4433 35.1852 60.912 36.2614 56.5688C37.3371 52.2227 38.1395 45.566 42.7477 47.3098C46.1163 48.5832 47.7136 51.8992 47.5264 54.4072C47.4195 55.8455 45.7465 56.6198 44.6018 55.7413C43.834 55.1525 43.0094 54.2162 42.4403 52.7467C42.4403 52.7467 42.7245 55.1185 40.2688 54.988" stroke="#E769CE" stroke-width="1.23121" stroke-linecap="round" stroke-linejoin="round"/>
<path d="M44.4677 48.2315C44.4677 48.2315 50.4357 45.8545 51.3804 51.0832C53.0468 60.3062 45.8885 56.0949 45.8885 56.0949" stroke="#E769CE" stroke-width="1.23121" stroke-linecap="round" stroke-linejoin="round"/>
<path d="M48.5058 47.8141C48.5058 47.8141 55.0619 46.9783 54.2196 56.5764C53.3774 66.1744 40.3823 78.2779 25.1534 72.744" stroke="#E769CE" stroke-width="1.23121" stroke-linecap="round" stroke-linejoin="round"/>
<path d="M50.7776 47.7289C50.7776 47.7289 54.7037 43.5683 57.522 43.8257C58.7507 43.9374 59.1104 45.5619 58.0777 46.2355C56.6684 47.1546 54.1298 49.4772 53.8576 51.3151" stroke="#E769CE" stroke-width="1.23121" stroke-linecap="round" stroke-linejoin="round"/>
<path d="M50.0244 29.5958C51.3193 29.7406 52.9127 30.3066 54.2637 30.1466C55.7531 29.9707 56.9084 29.0435 58.2428 28.5258" stroke="#E769CE" stroke-width="1.33207" stroke-linecap="round" stroke-linejoin="round"/>
<path d="M47.4588 23.6322C47.29 22.1986 45.9895 21.1739 44.5564 21.3457C43.1228 21.5145 42.0982 22.815 42.2699 24.248" stroke="#E769CE" stroke-width="1.33207" stroke-linecap="round" stroke-linejoin="round"/>
<path d="M64.7635 21.5795C64.5946 20.1459 63.2942 19.1212 61.8611 19.2929C60.4275 19.4618 59.4028 20.7623 59.5746 22.1953" stroke="#E769CE" stroke-width="1.33207" stroke-linecap="round" stroke-linejoin="round"/>
</g>
</svg>
