<svg width="278" height="271" viewBox="0 0 278 271" fill="none" xmlns="http://www.w3.org/2000/svg">
<path d="M138.524 270.236C208.997 270.236 266.126 213.107 266.126 142.634C266.126 72.1614 208.997 15.032 138.524 15.032C68.0513 15.032 10.9219 72.1614 10.9219 142.634C10.9219 213.107 68.0513 270.236 138.524 270.236Z" fill="#64BDFF"/>
<path d="M277.025 119.858C277.025 110.301 269.278 102.554 259.721 102.554C250.164 102.554 242.416 110.301 242.416 119.858V167.017C242.416 176.574 250.164 184.321 259.721 184.321C269.278 184.321 277.025 176.574 277.025 167.017V119.858Z" fill="#1E1E1E"/>
<path d="M34.6091 119.858C34.6091 110.301 26.8616 102.553 17.3046 102.553C7.74751 102.553 0 110.301 0 119.858V167.017C0 176.574 7.74751 184.321 17.3046 184.321C26.8616 184.321 34.6091 176.574 34.6091 167.017V119.858Z" fill="#1E1E1E"/>
<path d="M259.699 119.619C256.355 119.619 253.511 117.079 253.228 113.692C253.142 112.715 253.055 111.499 252.946 110.044C251.795 94.1292 248.3 45.7112 219.879 24.0859C206.135 13.6424 187.875 10.6027 165.642 15.0537C159.823 16.2262 153.44 19.9606 147.338 25.367C154.721 33.8564 160.93 43.8657 164.817 54.2006C168.985 65.2955 168.008 76.1516 162.038 84.7713C156.588 92.6311 147.143 97.9071 138.523 97.9071C129.904 97.9071 120.459 92.6311 115.009 84.7713C109.038 76.1516 108.061 65.2955 112.23 54.2006C116.16 43.7354 122.131 33.8347 129.1 25.4972C122.869 20.1778 116.464 16.465 110.949 14.9451C102.546 12.622 76.101 10.1468 54.758 26.3657C34.2401 41.9767 23.8183 70.463 23.8183 111C23.8183 114.604 20.9089 117.513 17.3046 117.513C13.7004 117.513 10.791 114.604 10.791 111C10.791 66.164 22.9281 34.2038 46.8765 15.9873C71.5198 -2.75022 101.83 -1.1001 114.423 2.37384C122.326 4.56676 130.533 9.45198 138.133 16.0959C146.144 8.90918 154.829 3.9154 163.058 2.26528C189.134 -2.96734 210.912 0.875702 227.76 13.6858C260.871 38.8719 264.692 91.6975 265.952 109.067C266.06 110.435 266.125 111.586 266.212 112.498C266.538 116.08 263.889 119.25 260.307 119.554C260.111 119.554 259.916 119.576 259.72 119.576L259.699 119.619ZM138.35 34.8117C132.618 41.8682 127.646 50.2056 124.432 58.7819C121.762 65.86 122.218 72.2868 125.713 77.3457C129.144 82.2961 134.745 84.8799 138.523 84.8799C142.301 84.8799 147.903 82.2961 151.333 77.3457C154.851 72.2868 155.285 65.86 152.615 58.7819C149.227 49.7931 144.147 41.6293 138.35 34.8117Z" fill="#1E1E1E"/>
</svg>
