<svg width="345" height="402" viewBox="0 0 345 402" fill="none" xmlns="http://www.w3.org/2000/svg">
<path d="M280.416 64.6426C280.416 64.6426 276.581 112.842 262.827 100.686L266.48 110.087C266.48 110.087 287.879 126.381 280.416 64.6426Z" fill="#1E1E1E"/>
<path d="M254.172 104.694C254.172 104.694 276.844 118.647 279.984 104.694C283.124 90.7404 279.984 59.6984 279.984 59.6984C279.984 59.6984 260.801 46.0948 262.196 37.0257C263.591 27.9567 285.218 40.8606 285.218 40.8606C285.218 40.8606 297.427 0.749492 308.241 5.6295C319.054 10.5095 303.706 39.1159 303.706 39.1159C303.706 39.1159 318.705 10.8637 326.379 15.748C334.053 20.6324 320.799 48.1849 320.799 48.1849C320.799 48.1849 336.497 15.748 341.727 20.2826C346.961 24.8171 337.542 55.1638 333.008 61.0933C333.008 61.0933 360.91 191.545 270.919 161.898" stroke="#1E1E1E" stroke-width="2.53457" stroke-linecap="round" stroke-linejoin="round"/>
<path d="M249.028 212.343L278.291 371.142L301.702 384.331L214.67 400.37L186.56 247.842" stroke="#1E1E1E" stroke-width="2.53457" stroke-linecap="round" stroke-linejoin="round"/>
<path d="M234.082 26.7428L316.899 239.809C324.047 258.198 308.608 277.428 289.109 274.423L63.1821 239.61C43.6836 236.605 34.7485 213.621 47.0996 198.238L190.213 19.9841C202.565 4.60129 226.939 8.35421 234.086 26.7428H234.082Z" fill="#F6D307"/>
<path d="M184.418 228.196L120.248 376.376L132.34 400.37L51.1289 365.203L112.764 222.88" stroke="#1E1E1E" stroke-width="2.53457" stroke-linecap="round" stroke-linejoin="round"/>
<path d="M113.347 123.98C113.347 123.98 52.066 158.339 25.0532 193.847C-1.95527 229.358 0.920887 241.671 1.81052 242.56C2.70015 243.45 15.561 244.949 27.6617 223.537C27.6617 223.537 13.3714 250.563 19.737 256.099C26.0983 261.64 43.6059 234.545 43.6059 234.545C43.6059 234.545 29.1127 266.153 36.912 266.287C44.7114 266.421 58.7943 240.423 58.7943 240.423C58.7943 240.423 69.9493 261.148 74.6004 255.672C79.2515 250.196 71.3096 231.185 71.3096 231.185C71.3096 231.185 103.453 198.476 136.486 177.332" stroke="#1E1E1E" stroke-width="2.53457" stroke-linecap="round" stroke-linejoin="round"/>
<path d="M188.789 106.058C189.691 102.742 187.731 99.3172 184.414 98.4189C181.097 97.5163 177.673 99.4769 176.774 102.794" stroke="#1E1E1E" stroke-width="2.53457" stroke-linecap="round" stroke-linejoin="round"/>
<path d="M228.852 116.942C229.755 113.626 227.794 110.201 224.477 109.303C221.161 108.4 217.736 110.361 216.838 113.677" stroke="#1E1E1E" stroke-width="2.53457" stroke-linecap="round" stroke-linejoin="round"/>
<path d="M173.095 114.99C171.536 120.73 182.082 128.59 196.653 132.545C211.224 136.501 224.296 135.059 225.855 129.324L173.095 114.99Z" stroke="#1E1E1E" stroke-width="2.53457" stroke-linecap="round" stroke-linejoin="round"/>
<path d="M120.248 376.376L132.34 400.371L51.1287 365.204L57.9089 349.554L120.248 376.376Z" fill="#1E1E1E"/>
<path d="M278.252 370.68L301.702 383.804L214.717 400.094L211.577 383.329L278.252 370.68Z" fill="#1E1E1E"/>
<path d="M174.649 31.4026C183.273 17.4838 193.785 -6.03965 220.802 3.46989C247.814 12.9838 241.509 45.1919 241.509 45.1919L148.279 25.9612" stroke="#1E1E1E" stroke-width="2.53457" stroke-linecap="round" stroke-linejoin="round"/>
</svg>
