<svg width="307" height="235" viewBox="0 0 307 235" fill="none" xmlns="http://www.w3.org/2000/svg">
<path d="M299.953 234.296C299.432 234.296 298.889 234.231 298.368 234.1C290.139 232.038 281.519 226.892 273.616 219.792C261.544 229.128 246.563 234.296 230.822 234.296H123.434C119.829 234.296 116.92 231.386 116.92 227.782C116.92 224.178 119.829 221.268 123.434 221.268H230.822C243.132 221.268 254.879 217.382 264.497 210.347C257.527 202.075 251.622 192.348 247.822 182.252C243.653 171.157 244.631 160.301 250.601 151.681C256.051 143.821 265.496 138.545 274.116 138.545C282.735 138.545 292.18 143.821 297.63 151.681C303.601 160.301 304.578 171.157 300.409 182.252C296.87 191.697 291.355 201.054 284.472 209.305C284.06 209.804 283.625 210.304 283.213 210.782C289.596 216.318 296.088 220.096 301.538 221.464C305.034 222.332 307.14 225.871 306.271 229.367C305.533 232.32 302.884 234.296 299.953 234.296ZM274.116 151.573C270.338 151.573 264.736 154.156 261.305 159.107C257.788 164.166 257.354 170.592 260.024 177.671C263.368 186.551 268.384 194.671 274.072 201.445C274.202 201.293 274.333 201.141 274.463 200.989C280.412 193.824 285.167 185.769 288.228 177.671C290.899 170.592 290.443 164.166 286.947 159.107C283.517 154.156 277.915 151.573 274.137 151.573H274.116Z" fill="#1E1E1E"/>
<path d="M117.245 234.491C181.998 234.491 234.491 181.998 234.491 117.245C234.491 52.4925 181.998 0 117.245 0C52.4925 0 0 52.4925 0 117.245C0 181.998 52.4925 234.491 117.245 234.491Z" fill="#64BDFF"/>
<path d="M117.31 142.258C129.577 142.258 139.522 132.313 139.522 120.046C139.522 107.779 129.577 97.835 117.31 97.835C105.043 97.835 95.0986 107.779 95.0986 120.046C95.0986 132.313 105.043 142.258 117.31 142.258Z" fill="#1E1E1E"/>
<path d="M117.311 71.1729C104.392 71.1729 93.8838 60.6643 93.8838 47.7456C93.8838 34.8269 104.392 24.3181 117.311 24.3181C130.23 24.3181 140.738 34.8269 140.738 47.7456C140.738 60.6643 130.23 71.1729 117.311 71.1729Z" fill="#1E1E1E"/>
<path d="M47.7235 121.74C34.8048 121.74 24.2744 111.232 24.2744 98.2913C24.2744 85.3509 34.783 74.8423 47.7235 74.8423C60.6639 74.8423 71.1726 85.3509 71.1726 98.2913C71.1726 111.232 60.6639 121.74 47.7235 121.74Z" fill="#1E1E1E"/>
<path d="M186.79 121.762C173.871 121.762 163.362 111.254 163.362 98.335C163.362 85.4163 173.871 74.9077 186.79 74.9077C199.708 74.9077 210.217 85.4163 210.217 98.335C210.217 111.254 199.708 121.762 186.79 121.762Z" fill="#1E1E1E"/>
<path d="M74.3209 203.465C61.4022 203.465 50.8936 192.956 50.8936 180.038C50.8936 167.119 61.4022 156.61 74.3209 156.61C87.2396 156.61 97.7483 167.119 97.7483 180.038C97.7483 192.956 87.2396 203.465 74.3209 203.465Z" fill="#1E1E1E"/>
<path d="M160.257 203.53C147.339 203.53 136.83 193.021 136.83 180.081C136.83 167.14 147.339 156.632 160.257 156.632C173.176 156.632 183.707 167.14 183.707 180.081C183.707 193.021 173.198 203.53 160.257 203.53Z" fill="#1E1E1E"/>
</svg>
