<svg width="130" height="87" viewBox="0 0 130 87" fill="none" xmlns="http://www.w3.org/2000/svg">
<path d="M24.7619 13.4544L24.6173 1.92035C24.6081 1.13507 25.236 0.488897 26.0231 0.479745L49.7354 0.183204C50.5207 0.174052 51.1669 0.801913 51.176 1.58903L51.2017 3.61357L51.2621 8.42596L51.3206 13.123C51.3298 13.9083 50.7019 14.5545 49.9148 14.5636L42.9351 14.6515L42.9717 14.6899L38.9391 17.6517L39.3766 14.6954L26.2007 14.8602C25.4154 14.8693 24.7692 14.2415 24.76 13.4544H24.7619Z" fill="white" stroke="#1E1E1E" stroke-width="0.366101" stroke-linecap="round" stroke-linejoin="round"/>
<path d="M45.4577 49.2042C45.4577 49.2042 47.6635 53.8097 50.1988 51.7778C52.7322 49.746 52.7431 45.9276 52.8457 44.1666C52.9482 42.4057 54.0098 42.1952 54.7073 43.3557C54.7073 43.3557 56.6769 38.5213 57.8502 39.5794C59.0236 40.6374 56.8068 43.4692 56.8068 43.4692C56.8068 43.4692 58.7819 39.0321 59.9095 40.1651C61.0371 41.3 58.5879 44.3112 58.5879 44.3112C58.5879 44.3112 60.8614 40.0754 61.6723 41.9371C62.4833 43.7987 58.1651 50.1652 57.4713 53.1654C56.7776 56.1656 54.7201 62.1257 48.8295 60.6283C42.9372 59.131 41.2988 55.913 41.2988 55.913" stroke="#1E1E1E" stroke-width="0.366101" stroke-linecap="round" stroke-linejoin="round"/>
<path d="M12.7029 44.939C6.1442 41.6258 21.3648 26.0775 24.7256 19.9398C25.3571 18.7866 25.7269 17.0604 26.234 16.5131C27.0961 15.5814 27.9675 13.0059 27.2572 12.3048C26.3347 11.395 25.6189 12.6929 25.2583 13.9156C24.8977 15.1384 24.7879 14.6222 24.4602 12.2206C24.2534 10.7031 24.5865 9.23686 24.6506 8.25388C24.678 7.83653 24.2113 7.57477 23.8671 7.81273C23.0123 8.40765 21.7071 9.63408 20.8285 11.935C19.8693 14.4465 19.549 17.3918 19.549 17.3918C19.549 17.3918 2.10976 29.6067 0.240812 43.3099C-0.244272 46.872 2.26538 55.4699 11.2129 51.1792" fill="white"/>
<path d="M12.7029 44.939C6.1442 41.6258 21.3648 26.0775 24.7256 19.9398C25.3571 18.7866 25.7269 17.0604 26.234 16.5131C27.0961 15.5814 27.9675 13.0059 27.2572 12.3048C26.3347 11.395 25.6189 12.6929 25.2583 13.9156C24.8977 15.1384 24.7879 14.6222 24.4602 12.2206C24.2534 10.7031 24.5865 9.23686 24.6506 8.25388C24.678 7.83653 24.2113 7.57477 23.8671 7.81273C23.0123 8.40765 21.7071 9.63408 20.8285 11.935C19.8693 14.4465 19.549 17.3918 19.549 17.3918C19.549 17.3918 2.10976 29.6067 0.240812 43.3099C-0.244272 46.872 2.26538 55.4699 11.2129 51.1792" stroke="#1E1E1E" stroke-width="0.366101" stroke-linecap="round" stroke-linejoin="round"/>
<path d="M13.8496 55.6858L17.0072 83.5021L14.0985 86.7348H25.7204V57.9227" stroke="#1E1E1E" stroke-width="0.366101" stroke-linecap="round" stroke-linejoin="round"/>
<path d="M17.0083 83.5023L14.0996 86.735H25.7215V83.4822L17.0083 83.5023Z" fill="#1E1E1E"/>
<path d="M40.2027 55.6858L37.0433 83.5021L39.952 86.7348H28.3301V57.9227" stroke="#1E1E1E" stroke-width="0.366101" stroke-linecap="round" stroke-linejoin="round"/>
<path d="M37.0433 83.5023L39.952 86.735H28.3301V83.4822L37.0433 83.5023Z" fill="#1E1E1E"/>
<path d="M43.2673 30.9607L15.4045 27.1242C12.6063 26.7389 10.0255 28.6949 9.64025 31.4931L5.8037 59.3559C5.4184 62.1541 7.37445 64.7349 10.1727 65.1202L38.0354 68.9567C40.8337 69.342 43.4144 67.386 43.7997 64.5878L47.6363 36.725C48.0216 33.9268 46.0655 31.346 43.2673 30.9607Z" fill="#FFB9FF"/>
<path d="M91.0352 55.6858L94.1946 83.5021L91.286 86.7348H102.906V57.9227" stroke="#1E1E1E" stroke-width="0.366101" stroke-linecap="round" stroke-linejoin="round"/>
<path d="M94.1938 83.5023L91.2852 86.735H102.905V83.4822L94.1938 83.5023Z" fill="#1E1E1E"/>
<path d="M117.386 55.6858L114.229 83.5021L117.136 86.7348H105.516V57.9227" stroke="#1E1E1E" stroke-width="0.366101" stroke-linecap="round" stroke-linejoin="round"/>
<path d="M114.229 83.5023L117.136 86.735H105.516V83.4822L114.229 83.5023Z" fill="#1E1E1E"/>
<path d="M104.674 13.7363L104.819 2.20234C104.828 1.41705 104.2 0.770883 103.413 0.76173L79.7005 0.465187C78.9152 0.456034 78.2691 1.0839 78.2599 1.87101L78.2343 3.89555L78.1739 8.70794L78.1153 13.405C78.1062 14.1903 78.734 14.8365 79.5211 14.8456L86.5008 14.9335L86.4642 14.9719L90.4968 17.9337L90.0594 14.9774L103.235 15.1422C104.021 15.1513 104.667 14.5235 104.676 13.7363H104.674Z" fill="white" stroke="#1E1E1E" stroke-width="0.366101" stroke-linecap="round" stroke-linejoin="round"/>
<path d="M89.959 52.9145C89.8657 47.9868 81.2715 43.4307 79.1096 42.3598C78.738 42.1749 78.3994 41.926 78.1248 41.6148C78.0113 41.4867 77.9235 41.3658 77.9253 41.2963C77.9491 40.5293 78.4287 38.6494 77.2718 37.3918C75.855 35.8542 75.7909 40.4469 75.7909 40.4469C75.7909 40.4469 73.4259 37.0916 71.5496 37.3735C69.1718 37.7305 73.1733 40.5714 73.1733 40.5714C73.1733 40.5714 71.3483 38.5743 70.0779 39.1766C68.4707 39.9381 71.8023 41.818 71.8023 41.818L70.3287 41.0455C70.0432 40.7673 69.5599 41.029 69.6496 41.4171C70.0981 43.3684 71.7107 42.8614 73.4845 45.4314C73.9092 46.0464 75.3406 48.9478 75.7891 50.1669C78.5897 57.78 85.8349 62.845 93.9459 62.845" stroke="#1E1E1E" stroke-width="0.366101" stroke-linecap="round" stroke-linejoin="round"/>
<path d="M116.665 44.939C123.224 41.6258 108.003 26.0775 104.642 19.9398C104.011 18.7866 103.641 17.0604 103.134 16.5131C102.272 15.5814 101.401 13.0059 102.111 12.3048C103.033 11.395 103.749 12.6929 104.11 13.9156C104.47 15.1384 104.58 14.6222 104.908 12.2206C105.115 10.7031 104.782 9.23686 104.717 8.25388C104.69 7.83653 105.157 7.57477 105.501 7.81273C106.356 8.40765 107.661 9.63408 108.54 11.935C109.499 14.4465 109.819 17.3918 109.819 17.3918C109.819 17.3918 127.258 29.6067 129.127 43.3099C129.612 46.872 127.103 55.4699 118.155 51.1792" fill="white"/>
<path d="M116.665 44.939C123.224 41.6258 108.003 26.0775 104.642 19.9398C104.011 18.7866 103.641 17.0604 103.134 16.5131C102.272 15.5814 101.401 13.0059 102.111 12.3048C103.033 11.395 103.749 12.6929 104.11 13.9156C104.47 15.1384 104.58 14.6222 104.908 12.2206C105.115 10.7031 104.782 9.23686 104.717 8.25388C104.69 7.83653 105.157 7.57477 105.501 7.81273C106.356 8.40765 107.661 9.63408 108.54 11.935C109.499 14.4465 109.819 17.3918 109.819 17.3918C109.819 17.3918 127.258 29.6067 129.127 43.3099C129.612 46.872 127.103 55.4699 118.155 51.1792" stroke="#1E1E1E" stroke-width="0.366101" stroke-linecap="round" stroke-linejoin="round"/>
<path d="M104.211 69.2922C116.37 69.2922 126.226 59.4355 126.226 47.2767C126.226 35.1179 116.37 25.2612 104.211 25.2612C92.052 25.2612 82.1953 35.1179 82.1953 47.2767C82.1953 59.4355 92.052 69.2922 104.211 69.2922Z" fill="#98D81E"/>
<path d="M97.8196 22.6179C97.8196 22.6179 92.8625 27.2839 95.9726 27.9648C99.0826 28.6458 104.527 25.6602 102.632 24.0768C100.249 22.0852 94.2226 32.0963 105.548 27.5273" stroke="#1E1E1E" stroke-width="0.366101" stroke-linecap="round" stroke-linejoin="round"/>
<path d="M34.7567 30.0315C34.1984 27.7214 33.814 24.0018 29.6587 24.0897C25.5035 24.1775 24.9141 28.9039 24.9141 28.9039L38.641 30.4763" stroke="#1E1E1E" stroke-width="0.366101" stroke-linecap="round" stroke-linejoin="round"/>
</svg>
