<svg width="13" height="16" viewBox="0 0 13 16" fill="none" xmlns="http://www.w3.org/2000/svg">
<path d="M11.6289 0H1.32294C0.592299 0 0 0.5923 0 1.32294V11.6289C0 12.3595 0.592299 12.9518 1.32294 12.9518H11.6289C12.3595 12.9518 12.9518 12.3595 12.9518 11.6289V1.32294C12.9518 0.5923 12.3595 0 11.6289 0Z" fill="#FFB9FF"/>
<path d="M10 5.974C9.40717 5.40013 8.06914 5 6.51313 5C4.95711 5 3.57901 5.41224 3 6" fill="#FFB9FF"/>
<path d="M10 5.974C9.40717 5.40013 8.06914 5 6.51313 5C4.95711 5 3.57901 5.41224 3 6" stroke="#1E1E1E" stroke-width="0.3" stroke-linecap="round" stroke-linejoin="round"/>
<path d="M7.62116 2.96626C7.61665 2.69487 7.83311 2.47144 8.10409 2.46734C8.37508 2.46324 8.59892 2.67929 8.60301 2.95028" fill="#FFB9FF"/>
<path d="M7.62116 2.96626C7.61665 2.69487 7.83311 2.47144 8.10409 2.46734C8.37508 2.46324 8.59892 2.67929 8.60301 2.95028" stroke="#1E1E1E" stroke-width="0.3" stroke-linecap="round" stroke-linejoin="round"/>
<path d="M4.34773 3.01998C4.34322 2.74859 4.55967 2.52516 4.83066 2.52107C5.10205 2.51656 5.32548 2.73301 5.32958 3.004" fill="#FFB9FF"/>
<path d="M4.34773 3.01998C4.34322 2.74859 4.55967 2.52516 4.83066 2.52107C5.10205 2.51656 5.32548 2.73301 5.32958 3.004" stroke="#1E1E1E" stroke-width="0.3" stroke-linecap="round" stroke-linejoin="round"/>
<path d="M1.67578 12.584V15.1036L4.9944 12.584H1.67578Z" fill="#FFB9FF"/>
</svg>
