<svg width="13" height="16" viewBox="0 0 13 16" fill="none" xmlns="http://www.w3.org/2000/svg">
<path d="M11.6289 0H1.32294C0.592299 0 0 0.5923 0 1.32294V11.6289C0 12.3595 0.592299 12.9518 1.32294 12.9518H11.6289C12.3595 12.9518 12.9518 12.3595 12.9518 11.6289V1.32294C12.9518 0.5923 12.3595 0 11.6289 0Z" fill="#8D8DFF"/>
<path d="M1.67578 12.584V15.1036L4.9944 12.584H1.67578Z" fill="#8D8DFF"/>
<path d="M9 6.974C8.57655 6.40013 7.62082 6 6.50938 6C5.39794 6 4.41358 6.41224 4 7" fill="#8D8DFF"/>
<path d="M9 6.974C8.57655 6.40013 7.62082 6 6.50938 6C5.39794 6 4.41358 6.41224 4 7" stroke="#1E1E1E" stroke-width="0.3" stroke-linecap="round" stroke-linejoin="round"/>
<line x1="3.1135" y1="2.77725" x2="4.89551" y2="3.68523" stroke="black" stroke-width="0.5"/>
<line x1="7.88432" y1="3.70366" x2="9.65735" y2="2.77826" stroke="black" stroke-width="0.5"/>
</svg>
