<svg width="28" height="28" viewBox="0 0 28 28" fill="none" xmlns="http://www.w3.org/2000/svg">
<path d="M0.517653 10.3826C0.545566 10.2785 0.604627 10.185 0.687252 10.1157C0.769849 10.0464 0.872107 10.0042 0.979469 9.9948L0.981356 9.99531L3.82161 9.74129L3.82256 9.74155C6.12194 9.53586 8.34865 8.83075 10.3479 7.67648C12.2224 6.59424 13.8548 5.14117 15.1456 3.40751L15.3993 3.05693L17.0389 0.726084L17.0394 0.724197C17.1012 0.635851 17.1889 0.568497 17.2902 0.531565C17.3915 0.494624 17.502 0.490267 17.6062 0.518166C17.7104 0.546086 17.8038 0.605118 17.8731 0.687766C17.9424 0.770388 17.9846 0.872584 17.994 0.979983L17.9935 0.98187L18.248 3.82024C18.4537 6.1198 19.1585 8.34714 20.3128 10.3466C21.4672 12.346 23.0437 14.07 24.9324 15.3979L27.2632 17.0375L27.2651 17.038C27.3534 17.0998 27.4208 17.1875 27.4577 17.2888C27.4947 17.3902 27.4991 17.5006 27.4711 17.6048C27.4432 17.709 27.3842 17.8025 27.3015 17.8718C27.2189 17.941 27.1167 17.9833 27.0093 17.9926L27.0074 17.9921L24.1691 18.2466C21.8695 18.4523 19.6422 19.1571 17.6427 20.3114C15.6435 21.4657 13.9195 23.0416 12.5916 24.9301L12.5914 24.931L10.9513 27.2637L10.9508 27.2656C10.889 27.3539 10.8013 27.4213 10.7 27.4583C10.5987 27.4951 10.4882 27.4996 10.384 27.4716C10.2798 27.4437 10.1863 27.3847 10.117 27.302C10.0478 27.2194 10.0055 27.1172 9.99617 27.0098L9.99668 27.0079L9.74267 24.1677L9.74292 24.1667C9.53722 21.8673 8.83215 19.6407 7.67785 17.6414C6.52356 15.6421 4.94773 13.9181 3.05924 12.5903L3.0583 12.59L0.72557 10.9499L0.723683 10.9494C0.635363 10.8876 0.567967 10.7999 0.531051 10.6986C0.494112 10.5973 0.489754 10.4868 0.517653 10.3826Z" fill="#64BDFF" stroke="black"/>
</svg>
