<svg width="41" height="35" viewBox="0 0 41 35" fill="none" xmlns="http://www.w3.org/2000/svg">
<path d="M0.748974 15.0296C0.789384 14.8788 0.875342 14.7439 0.994958 14.6436C1.11457 14.5433 1.26241 14.4823 1.4179 14.4688L1.42004 14.4684L5.53308 14.1014C8.86187 13.8037 12.0858 12.7837 14.9801 11.1126C17.8744 9.44161 20.3697 7.15958 22.292 4.42567L24.6655 1.04996L24.667 1.04833C24.7564 0.920361 24.8831 0.822934 25.0298 0.76946C25.1766 0.715979 25.3362 0.709034 25.4871 0.749437C25.6379 0.789855 25.7728 0.875773 25.8731 0.995421C25.9734 1.11507 26.0344 1.26282 26.0479 1.41836L26.0484 1.4205L26.416 5.53071C26.7138 8.85949 27.7338 12.0834 29.4048 14.9777C31.0759 17.872 33.3579 20.3674 36.0918 22.2896L39.4675 24.6631L39.4691 24.6646C39.5971 24.7541 39.6946 24.8808 39.748 25.0275C39.8015 25.1742 39.8085 25.3339 39.768 25.4847C39.7276 25.6356 39.6417 25.7704 39.5221 25.8708C39.4024 25.9711 39.2547 26.0321 39.0991 26.0456L39.097 26.046L34.9868 26.4137C31.658 26.7114 28.434 27.7315 25.5397 29.4025C22.6454 31.0735 20.1501 33.3555 18.2279 36.0894L15.8536 39.468L15.8521 39.4696C15.7627 39.5975 15.6359 39.695 15.4893 39.7485C15.3426 39.8019 15.1828 39.8089 15.032 39.7685C14.8812 39.7281 14.7463 39.6422 14.646 39.5225C14.5457 39.4029 14.4847 39.2551 14.4712 39.0996L14.4707 39.0974L14.1038 34.9844C13.8061 31.6556 12.7861 28.4317 11.115 25.5374C9.44395 22.643 7.16201 20.1477 4.42804 18.2255L1.0495 15.8512L1.04787 15.8498C0.919954 15.7603 0.822454 15.6336 0.768997 15.4869C0.715542 15.3402 0.708579 15.1804 0.748974 15.0296Z" fill="#FFB9FF" stroke="black" stroke-width="1.44763"/>
</svg>
