<svg width="31" height="34" viewBox="0 0 31 34" fill="none" xmlns="http://www.w3.org/2000/svg">
<path d="M16.889 23.3223L16.8894 23.3215C17.792 23.3962 18.7005 23.2701 19.5513 22.951C20.4022 22.6318 21.1747 22.1271 21.8163 21.4744L22.3401 20.942L22.2764 21.6915C22.197 22.6092 22.3144 23.5337 22.6215 24.399C22.9285 25.264 23.4178 26.0497 24.0552 26.7012L24.5964 27.2545L23.8303 27.1911C22.928 27.1164 22.0199 27.2431 21.1693 27.5621C20.3184 27.8812 19.5451 28.3855 18.9035 29.0382L18.378 29.572L18.4433 28.8211C18.5228 27.9033 18.4062 26.9793 18.0991 26.114C17.7921 25.2487 17.3022 24.4631 16.6645 23.8114L16.123 23.259L16.889 23.3223Z" fill="#FFB9FF" stroke="#F6DDE1"/>
<path d="M3.93315 10.2585C3.94274 10.21 3.96704 10.1664 4.00065 10.1335C4.03414 10.1008 4.07488 10.0807 4.11693 10.074L4.11808 10.0732L6.08466 9.75261C7.6987 9.48895 9.23899 8.87012 10.5976 7.94016C11.9561 7.0102 13.1003 5.79084 13.9519 4.36854L14.9912 2.63436L14.9916 2.63244C15.0164 2.59078 15.0529 2.5594 15.0933 2.54111C15.1334 2.52301 15.1768 2.51885 15.2175 2.52694C15.2583 2.53507 15.2968 2.55534 15.327 2.58749C15.3573 2.61978 15.3782 2.66264 15.3853 2.71057L15.3859 2.71268L15.6866 4.7128C15.9333 6.35317 16.5285 7.91756 17.4311 9.2963C18.3338 10.6751 19.5225 11.8354 20.9146 12.6957L22.609 13.7428L22.6098 13.7439C22.6461 13.7663 22.6761 13.8003 22.6947 13.8434C22.7133 13.8866 22.7192 13.9362 22.7096 13.9848C22.6999 14.0331 22.6757 14.076 22.6423 14.1088C22.6087 14.1416 22.5679 14.1626 22.5258 14.1693L22.5248 14.1691L20.5602 14.4901C18.946 14.7537 17.4059 15.3725 16.0472 16.3025C14.6886 17.2325 13.5436 18.4516 12.692 19.874L11.6532 21.6103L11.6521 21.611L11.6074 21.6659C11.5904 21.6811 11.5714 21.6934 11.5514 21.7025C11.5112 21.7208 11.4677 21.7257 11.4269 21.7177C11.3861 21.7096 11.3479 21.6884 11.3176 21.6562C11.2872 21.6238 11.2655 21.5809 11.2584 21.5329L11.2586 21.5319L10.9572 19.5297C10.7105 17.8894 10.1162 16.3251 9.2137 14.9464C8.3111 13.5677 7.12228 12.4073 5.73022 11.547L4.03387 10.4995L4.03291 10.4993C3.99655 10.477 3.96677 10.442 3.94823 10.3989C3.92973 10.3558 3.92369 10.3069 3.93315 10.2585Z" fill="#F6D307" stroke="#F6DDE1"/>
</svg>
