<svg width="28" height="28" viewBox="0 0 28 28" fill="none" xmlns="http://www.w3.org/2000/svg">
<path d="M0.691574 4.51667C0.763999 4.41468 0.866136 4.33751 0.983963 4.29551C1.10188 4.25353 1.23007 4.24837 1.35072 4.28166L1.35231 4.28279L4.54383 5.15374C7.12738 5.85897 9.83368 5.99252 12.4741 5.54494C14.9495 5.1253 17.3113 4.20441 19.4152 2.84071L19.8323 2.56199L22.5574 0.689454L22.5585 0.687862C22.6614 0.616693 22.7842 0.579291 22.9093 0.580062C23.0344 0.580861 23.1563 0.620103 23.2583 0.692503C23.3603 0.76491 23.4374 0.867107 23.4794 0.984892C23.5214 1.10276 23.5265 1.23105 23.4933 1.35165L23.4922 1.35324L22.6223 4.54317C21.9171 7.12675 21.7835 9.83299 22.2312 12.4734C22.6508 14.9489 23.5717 17.3106 24.9354 19.4146L25.2141 19.8317L27.0866 22.5567L27.0882 22.5578C27.1594 22.6608 27.1968 22.7836 27.196 22.9087C27.1952 23.0337 27.156 23.1557 27.0836 23.2576C27.0111 23.3596 26.909 23.4368 26.7912 23.4788C26.6733 23.5208 26.5451 23.5259 26.4244 23.4926L26.4228 23.4915L23.2329 22.6217C20.6494 21.9165 17.9431 21.7829 15.3027 22.2305C12.6623 22.6781 10.1512 23.6961 7.94441 25.2134L5.21824 27.0876L5.21711 27.0892C5.11417 27.1604 4.99144 27.1977 4.86628 27.197C4.74119 27.1961 4.61933 27.1569 4.51734 27.0845C4.41534 27.0121 4.33814 26.91 4.29617 26.7921C4.25419 26.6742 4.24902 26.546 4.28233 26.4254L4.28346 26.4238L5.1544 23.2323C5.85965 20.6486 5.99322 17.9425 5.5456 15.302C5.09798 12.6615 4.07999 10.1506 2.56265 7.94375L0.688525 5.21757L0.686933 5.21644C0.615722 5.1135 0.578362 4.99079 0.579133 4.86561C0.579911 4.7405 0.619156 4.6187 0.691574 4.51667Z" fill="#8D8DFF" stroke="black" stroke-width="1.16"/>
</svg>
