<svg width="25" height="25" viewBox="0 0 25 25" fill="none" xmlns="http://www.w3.org/2000/svg">
<path d="M0.505742 10.1868C0.518686 10.1108 0.555139 10.0403 0.609363 9.98551C0.663452 9.93097 0.73293 9.89452 0.80849 9.88073L0.810579 9.8801L3.20477 9.43885C5.15353 9.07957 7.00076 8.30003 8.61732 7.15395C10.2339 6.00785 11.5809 4.52277 12.5649 2.80277L13.7736 0.690541L13.7747 0.689742C13.8128 0.622787 13.8701 0.568573 13.9397 0.535557C14.0093 0.502539 14.0878 0.49243 14.1638 0.505362C14.2398 0.518306 14.3104 0.553798 14.3652 0.60802C14.42 0.66221 14.456 0.732316 14.4698 0.80811L14.4706 0.809236L14.912 3.20246C15.2713 5.15124 16.0508 6.99844 17.1969 8.61501C18.343 10.2316 19.8281 11.5786 21.5481 12.5626L23.6603 13.7713L23.6611 13.7724C23.7281 13.8105 23.7823 13.8678 23.8153 13.9374C23.8483 14.007 23.8585 14.0854 23.8455 14.1614C23.8326 14.2374 23.7971 14.3081 23.7429 14.3629C23.6887 14.4176 23.6185 14.4537 23.5428 14.4675L23.5416 14.4683L21.1484 14.9097C19.1996 15.269 17.3524 16.0485 15.7359 17.1946C14.1193 18.3407 12.7723 19.8258 11.7882 21.5458L10.5794 23.659L10.5781 23.6607C10.5401 23.7275 10.4827 23.781 10.4133 23.814C10.3437 23.847 10.2651 23.8581 10.1891 23.8451C10.1131 23.8322 10.0426 23.7957 9.98781 23.7415C9.93329 23.6874 9.89682 23.6179 9.88304 23.5424L9.8824 23.5403L9.44116 21.1461C9.08187 19.1973 8.30235 17.3501 7.15625 15.7336C6.01015 14.117 4.52509 12.77 2.80507 11.7859L0.691884 10.5771L0.690122 10.5758C0.623393 10.5378 0.569893 10.4804 0.5369 10.411C0.503882 10.3414 0.49281 10.2628 0.505742 10.1868Z" fill="#F6D307" stroke="black"/>
</svg>
