<svg width="25" height="25" viewBox="0 0 25 25" fill="none" xmlns="http://www.w3.org/2000/svg">
<path d="M0.504604 10.3566C0.518133 10.2755 0.556032 10.2013 0.611318 10.1442C0.666421 10.0874 0.735778 10.0506 0.809405 10.0369L0.810528 10.0361L3.19594 9.58847C5.13765 9.22302 6.9769 8.42923 8.58627 7.26454C10.1957 6.09972 11.5366 4.5907 12.5156 2.84401L13.7192 0.6972L13.7203 0.696404C13.7597 0.625631 13.8185 0.570549 13.8875 0.537137C13.9564 0.503799 14.0325 0.492967 14.1056 0.50567C14.1786 0.518381 14.247 0.554332 14.3012 0.609059C14.3554 0.663896 14.393 0.735741 14.4073 0.815828L14.4081 0.816958L14.8478 3.24945C15.2052 5.22839 15.9803 7.10536 17.1213 8.74831C18.2624 10.3913 19.7414 11.7617 21.4553 12.7627L23.5582 13.9907L23.56 13.9919C23.625 14.0297 23.6785 14.0879 23.7121 14.1601C23.7458 14.2327 23.7575 14.3155 23.7439 14.3966C23.7304 14.4776 23.6926 14.5511 23.6374 14.608C23.5822 14.665 23.5129 14.7026 23.4391 14.7163L23.4372 14.716L21.0545 15.1651C19.1127 15.5306 17.2727 16.324 15.6632 17.4889C14.1547 18.5807 12.8826 19.9746 11.923 21.5834L11.7351 21.9086L10.5311 24.0573L10.53 24.0581L10.4968 24.1088C10.4604 24.1556 10.4144 24.1924 10.3628 24.2174C10.294 24.2507 10.2178 24.2615 10.1447 24.2489C10.0717 24.2361 10.0033 24.2002 9.94913 24.1455C9.8949 24.0906 9.85727 24.0188 9.84303 23.9387L9.84223 23.9376L9.40285 21.5031C9.04544 19.5242 8.26921 17.6481 7.12817 16.0051C5.98716 14.3622 4.50899 12.9918 2.79518 11.9908L0.689529 10.7614L0.688566 10.7613C0.623405 10.7235 0.570197 10.6645 0.536598 10.5921C0.50302 10.5197 0.491161 10.4376 0.504604 10.3566Z" fill="#FFB9FF" stroke="#F6DDE1"/>
</svg>
