<svg width="25" height="25" viewBox="0 0 25 25" fill="none" xmlns="http://www.w3.org/2000/svg">
<path d="M0.595483 20.0285C0.533575 19.9402 0.49988 19.8349 0.499835 19.7271C0.499825 19.6193 0.533132 19.5138 0.594914 19.4255L0.596513 19.4244L2.22635 17.0844L2.22715 17.0839C3.54657 15.1895 4.43656 13.0301 4.83624 10.7563C5.21094 8.62455 5.14588 6.44013 4.64643 4.33718L4.5407 3.91756L3.8076 1.16371L3.80648 1.16211C3.77847 1.058 3.78318 0.947522 3.81995 0.846167C3.85674 0.744763 3.92434 0.657325 4.01266 0.595386C4.101 0.533465 4.20626 0.49977 4.31413 0.499738C4.42195 0.499728 4.52741 0.532998 4.61573 0.594817L4.61685 0.596416L6.95565 2.22465C8.85011 3.54422 11.0099 4.43486 13.2837 4.83454C15.5576 5.23422 17.8916 5.13345 20.1225 4.539L22.8764 3.80591L22.878 3.80479C22.9821 3.77679 23.0926 3.78148 23.1939 3.81825C23.2953 3.85507 23.3828 3.92264 23.4447 4.01097C23.5066 4.09931 23.5403 4.20456 23.5404 4.31244C23.5404 4.42025 23.5071 4.52571 23.4453 4.61403L23.4437 4.61515L21.8154 6.95395C20.4959 8.84842 19.6052 11.0082 19.2056 13.2821C18.8059 15.5558 18.9062 17.8893 19.5005 20.12L19.5011 20.1208L20.2353 22.8763L20.2364 22.8779C20.2644 22.982 20.2597 23.0925 20.223 23.1938C20.1861 23.2952 20.1186 23.3827 20.0302 23.4446C19.9419 23.5065 19.8367 23.5402 19.7288 23.5403C19.621 23.5403 19.5155 23.507 19.4272 23.4452L19.4261 23.4436L17.0861 21.8137L17.0856 21.8129C15.1912 20.4935 13.0318 19.6035 10.758 19.2039C8.48431 18.8042 6.15082 18.9045 3.92005 19.4988L3.91925 19.4994L1.1638 20.2336L1.16221 20.2347C1.0581 20.2627 0.947603 20.258 0.846264 20.2213C0.744861 20.1845 0.65742 20.1169 0.595483 20.0285Z" fill="#98D81E" stroke="black"/>
</svg>
