<svg width="13" height="16" viewBox="0 0 13 16" fill="none" xmlns="http://www.w3.org/2000/svg">
<path d="M11.6289 0H1.32294C0.592299 0 0 0.5923 0 1.32294V11.6289C0 12.3595 0.592299 12.9518 1.32294 12.9518H11.6289C12.3595 12.9518 12.9518 12.3595 12.9518 11.6289V1.32294C12.9518 0.5923 12.3595 0 11.6289 0Z" fill="#FFB9FF"/>
<path d="M10.6289 3.44819C9.92536 4.49768 8.33759 5.22946 6.49114 5.22946C4.64468 5.22946 3.00936 4.47555 2.32227 3.40063" fill="#FFB9FF"/>
<path d="M10.6289 3.44819C9.92536 4.49768 8.33759 5.22946 6.49114 5.22946C4.64468 5.22946 3.00936 4.47555 2.32227 3.40063" stroke="#1E1E1E" stroke-width="0.3" stroke-linecap="round" stroke-linejoin="round"/>
<path d="M7.62312 2.96602C7.61861 2.69463 7.83506 2.4712 8.10605 2.4671C8.37703 2.463 8.60087 2.67905 8.60497 2.95003" fill="#FFB9FF"/>
<path d="M7.62312 2.96602C7.61861 2.69463 7.83506 2.4712 8.10605 2.4671C8.37703 2.463 8.60087 2.67905 8.60497 2.95003" stroke="#1E1E1E" stroke-width="0.3" stroke-linecap="round" stroke-linejoin="round"/>
<path d="M4.34773 3.01974C4.34322 2.74835 4.55967 2.52492 4.83066 2.52082C5.10205 2.51631 5.32548 2.73277 5.32958 3.00375" fill="#FFB9FF"/>
<path d="M4.34773 3.01974C4.34322 2.74835 4.55967 2.52492 4.83066 2.52082C5.10205 2.51631 5.32548 2.73277 5.32958 3.00375" stroke="#1E1E1E" stroke-width="0.3" stroke-linecap="round" stroke-linejoin="round"/>
<path d="M1.67578 12.584V15.1036L4.9944 12.584H1.67578Z" fill="#FFB9FF"/>
</svg>
