<svg width="120" height="367" viewBox="0 0 120 367" fill="none" xmlns="http://www.w3.org/2000/svg">
<path d="M103.722 0.388855H49.6781C44.9306 0.388855 41.082 4.25132 41.082 9.01591V127.183C41.082 131.947 44.9306 135.81 49.6781 135.81H103.722C108.47 135.81 112.318 131.947 112.318 127.183V9.01591C112.318 4.25132 108.47 0.388855 103.722 0.388855Z" stroke="#1E1E1E" stroke-width="0.777721" stroke-linejoin="round"/>
<path d="M98.8799 4.68927H54.5199C49.7724 4.68927 45.9238 8.55173 45.9238 13.3163V115.85C45.9238 120.615 49.7724 124.477 54.5199 124.477H98.8799C103.627 124.477 107.476 120.615 107.476 115.85V13.3163C107.476 8.55173 103.627 4.68927 98.8799 4.68927Z" fill="#F6DDE1"/>
<path d="M80.3012 129.769H73.0998C72.1375 129.769 71.3574 130.551 71.3574 131.515C71.3574 132.48 72.1375 133.262 73.0998 133.262H80.3012C81.2635 133.262 82.0436 132.48 82.0436 131.515C82.0436 130.551 81.2635 129.769 80.3012 129.769Z" fill="#1E1E1E"/>
<path d="M94.6399 85.571C99.7175 83.691 101.684 77.4956 98.5846 73.0413C88.2424 58.1738 68.8629 51.5581 51.1175 58.125C33.3757 64.6919 22.9176 82.3551 24.6712 100.401C25.1947 105.808 30.6985 109.238 35.7762 107.358L94.6362 85.571H94.6399Z" fill="#F6D307"/>
<path d="M82.0664 89.913L100.07 124.477" stroke="#1E1E1E" stroke-width="0.777721" stroke-linecap="round" stroke-linejoin="round"/>
<path d="M65.3496 93.8792L78.6157 124.477" stroke="#1E1E1E" stroke-width="0.777721" stroke-linecap="round" stroke-linejoin="round"/>
<path d="M45.8691 100.964L59.7036 124.477" stroke="#1E1E1E" stroke-width="0.777721" stroke-linecap="round" stroke-linejoin="round"/>
<path d="M80.4512 62.6507L101.539 59.8476L106.74 49.7983V66.9999C106.74 66.9999 94.4165 76.5839 84.594 78.1712" stroke="#1E1E1E" stroke-width="0.777721" stroke-linecap="round" stroke-linejoin="round"/>
<path d="M29.3377 86.8735C29.3377 86.8735 25.3892 94.4386 20.005 93.0877C14.6208 91.7367 11.5697 87.2337 11.5697 87.2337C11.5697 87.2337 12.6915 81.4698 11.5697 81.5149C10.448 81.5599 9.46092 84.1717 9.46092 84.1717C9.46092 84.1717 3.40368 77.9124 2.41658 79.3984C1.42947 80.8844 4.39078 83.954 4.39078 83.954C4.39078 83.954 1.83329 79.9838 0.621841 81.1096C-0.589609 82.2353 3.31393 86.2093 3.31393 86.2093C3.31393 86.2093 1.07051 83.0009 0.576952 84.622C0.083398 86.243 2.19222 88.1343 2.19222 88.1343C2.19222 88.1343 0.846182 87.1887 0.666708 88.6297C0.487234 90.0706 8.55981 99.0429 11.7941 102.139C15.7425 105.921 27.3186 111.505 34.4116 100.788" stroke="#1E1E1E" stroke-width="0.777721" stroke-linecap="round" stroke-linejoin="round"/>
<path d="M52.691 73.4881C52.4218 72.67 51.5394 72.2272 50.7243 72.4974C49.9092 72.7676 49.468 73.6532 49.7372 74.4712" stroke="#1E1E1E" stroke-width="0.777721" stroke-linecap="round" stroke-linejoin="round"/>
<path d="M62.5367 70.2083C62.2675 69.3902 61.3851 68.9474 60.57 69.2176C59.7549 69.4878 59.3137 70.3734 59.5829 71.1914" stroke="#1E1E1E" stroke-width="0.777721" stroke-linecap="round" stroke-linejoin="round"/>
<path d="M44.5176 77.7472C47.5312 80.0963 52.7809 80.6855 58.0753 78.9218C63.4484 77.1318 67.3407 73.4281 68.2867 69.6793" stroke="#1E1E1E" stroke-width="0.777721" stroke-linecap="round" stroke-linejoin="round"/>
<path d="M72.7734 8.36292H81.7471" stroke="#1E1E1E" stroke-width="0.777721" stroke-linecap="round" stroke-linejoin="round"/>
<path d="M49.3887 312.51L49.3887 365.701" stroke="#8793A1" stroke-width="1.32362" stroke-linecap="round" stroke-linejoin="round"/>
<path d="M49.3887 131.861L49.3887 304.481" stroke="#8793A1" stroke-width="1.32362" stroke-linecap="round" stroke-linejoin="round"/>
<path d="M103.281 131.513V365.701" stroke="#8793A1" stroke-width="1.32362" stroke-linecap="round" stroke-linejoin="round"/>
<path d="M49.6602 313.658H103.282" stroke="#8793A1" stroke-width="1.32362" stroke-linecap="round" stroke-linejoin="round"/>
<path d="M97.4121 283.189H103.282" stroke="#8793A1" stroke-width="1.32362" stroke-linecap="round" stroke-linejoin="round"/>
<path d="M73.1777 283.189H80.0426" stroke="#8793A1" stroke-width="1.32362" stroke-linecap="round" stroke-linejoin="round"/>
<path d="M49.3887 283.406H97.3887" stroke="#8793A1" stroke-width="1.32362" stroke-linecap="round" stroke-linejoin="round"/>
<path d="M103.389 252.294L49.3887 252.294" stroke="#8793A1" stroke-width="1.32362" stroke-linecap="round" stroke-linejoin="round"/>
<path d="M49.6602 222.255H103.282" stroke="#8793A1" stroke-width="1.32362" stroke-linecap="round" stroke-linejoin="round"/>
<path d="M49.6602 191.786H103.282" stroke="#8793A1" stroke-width="1.32362" stroke-linecap="round" stroke-linejoin="round"/>
<path d="M49.6602 161.317H103.282" stroke="#8793A1" stroke-width="1.32362" stroke-linecap="round" stroke-linejoin="round"/>
<path d="M48.4201 299.464C48.4201 299.464 46.3337 299.4 46.3898 303.111" stroke="#1E1E1E" stroke-width="0.777721" stroke-linecap="round" stroke-linejoin="round"/>
<path d="M71.0594 269.527L48.1652 327.534C46.7407 331.14 49.7431 334.941 53.5644 334.375L115.068 325.271C118.893 324.705 120.669 320.198 118.272 317.158L79.6667 268.255C77.2662 265.216 72.4877 265.921 71.0631 269.527H71.0594Z" fill="#64BDFF"/>
<path d="M48.7403 303.799C48.7403 303.799 47.929 303.998 46.8671 303.548C46.1903 303.259 45.4388 303.769 45.4014 304.509C45.3415 305.676 45.4724 307.274 46.2427 308.948C46.5979 309.721 47.2559 310.314 48.0449 310.629C53.5749 312.839 60.6492 314.036 67.4169 310.167" stroke="#1E1E1E" stroke-width="0.777721" stroke-linecap="round" stroke-linejoin="round"/>
<path d="M63.3887 296.453C63.3887 296.453 59.4457 298.289 56.1414 301.025C54.6387 302.268 53.0091 303.326 51.2526 304.099L50.3887 304.481" stroke="#1E1E1E" stroke-width="0.777721" stroke-linecap="round" stroke-linejoin="round"/>
<path d="M79.0755 291.776C78.2417 292.106 77.2845 292.771 76.3609 292.906C75.3402 293.056 74.4054 292.647 73.4258 292.542" stroke="#1E1E1E" stroke-width="0.777721" stroke-linecap="round" stroke-linejoin="round"/>
<path d="M79.7072 287.341C79.5614 286.354 80.2419 285.438 81.2215 285.292C82.2011 285.145 83.1172 285.828 83.263 286.811" stroke="#1E1E1E" stroke-width="0.777721" stroke-linecap="round" stroke-linejoin="round"/>
<path d="M67.8556 289.093C67.7098 288.106 68.3903 287.19 69.3699 287.044C70.3533 286.898 71.2656 287.581 71.4114 288.564" stroke="#1E1E1E" stroke-width="0.777721" stroke-linecap="round" stroke-linejoin="round"/>
<path d="M70.5775 318.641L60.3961 324.652C57.6853 326.251 56.5449 329.598 57.7152 332.529L65.5148 352.087L61.3458 358.823L78.923 350.451L74.1931 337.504C73.135 334.611 74.2866 331.377 76.9301 329.808L78.923 328.626" stroke="#1E1E1E" stroke-width="0.777721" stroke-linecap="round" stroke-linejoin="round"/>
<path d="M65.5147 352.087L61.3457 358.823L78.9192 350.454L77.4572 346.451L65.5147 352.087Z" fill="#1E1E1E"/>
<path d="M85.8221 356.29L79.2676 361.265H98.0338V356.545L85.8221 356.29Z" fill="#1E1E1E"/>
<path d="M81.354 328.945L85.8221 356.289L79.2676 361.265H98.0338V334.026L101.014 325.057" stroke="#1E1E1E" stroke-width="0.777721" stroke-linecap="round" stroke-linejoin="round"/>
<path d="M49.6602 361.687H103.282" stroke="#8793A1" stroke-width="1.32362" stroke-linecap="round" stroke-linejoin="round"/>
</svg>
