<svg width="117" height="134" viewBox="0 0 117 134" fill="none" xmlns="http://www.w3.org/2000/svg">
<path d="M42.1211 61.667L49.3904 125.69L42.6976 133.128H69.4424V66.8158" stroke="#1E1E1E" stroke-width="1.1729" stroke-linecap="round" stroke-linejoin="round"/>
<path d="M49.3901 125.689L42.6973 133.128H69.4421V125.643L49.3901 125.689Z" fill="#1E1E1E"/>
<path d="M102.771 61.667L95.5012 125.69L102.194 133.128H75.4492V66.8158" stroke="#1E1E1E" stroke-width="1.1729" stroke-linecap="round" stroke-linejoin="round"/>
<path d="M95.5012 125.689L102.194 133.128H75.4492V125.643L95.5012 125.689Z" fill="#1E1E1E"/>
<path d="M15.1293 33.1326L13.6615 23.4048C13.3766 21.5229 15.8317 20.4891 16.9383 22.0398C18.5287 24.263 18.7143 30.1739 19.8706 37.8441C21.5836 49.212 30.6553 44.59 30.6553 44.59" stroke="#1E1E1E" stroke-width="1.1729" stroke-linecap="round" stroke-linejoin="round"/>
<path d="M36.7288 69.1116C12.5782 77.9217 3.79802 54.6458 1.21366 37.5095C-0.466179 26.3769 1.57812 19.6907 3.21819 16.3675C3.79471 15.2012 5.48117 15.2708 5.97153 16.4768L7.81703 21.0193C8.44987 22.5799 8.20469 24.326 7.28359 25.7374C6.4619 26.9932 5.86882 29.3058 6.81642 33.5237" stroke="#1E1E1E" stroke-width="1.1729" stroke-linecap="round" stroke-linejoin="round"/>
<path d="M5.09961 5.25473L9.69845 4.56226L13.5651 22.7886L15.0892 32.8908C15.1455 33.2686 14.6617 33.474 14.4298 33.1725L8.90657 25.9727L5.09961 5.25473Z" fill="#1E1E1E"/>
<path d="M104.814 0H40.0826C33.5811 0 28.3105 5.27055 28.3105 11.7721V76.5037C28.3105 83.0053 33.5811 88.2758 40.0826 88.2758H104.814C111.316 88.2758 116.586 83.0053 116.586 76.5037V11.7721C116.586 5.27055 111.316 0 104.814 0Z" fill="#8D8DFF"/>
<path d="M89.4295 52.7378C89.4295 52.7378 86.2752 53.8411 84.2243 49.2688C82.1734 44.6931 79.9634 37.5165 75.232 40.356C71.773 42.4301 70.673 46.4028 71.3787 49.1296C71.7829 50.6935 73.7808 51.2137 74.8676 50.0176C75.5965 49.2157 76.3188 48.0196 76.6534 46.2868C76.6534 46.2868 76.8125 48.9573 79.4929 48.3245" stroke="#1E1E1E" stroke-width="1.1729" stroke-linecap="round" stroke-linejoin="round"/>
<path d="M73.5194 41.7145C73.5194 41.7145 66.4688 40.2831 66.4688 46.2338C66.4688 56.7303 73.5194 50.6637 73.5194 50.6637" stroke="#1E1E1E" stroke-width="1.1729" stroke-linecap="round" stroke-linejoin="round"/>
<path d="M68.985 42.0591C68.985 42.0591 61.5931 42.4434 64.4326 52.8538C67.2721 63.2641 84.0042 74.0157 99.6859 64.8843" stroke="#1E1E1E" stroke-width="1.1729" stroke-linecap="round" stroke-linejoin="round"/>
<path d="M66.4598 42.4169C66.4598 42.4169 61.3043 38.6133 58.2495 39.4582C56.9175 39.8259 56.8446 41.688 58.1169 42.2248C59.8531 42.957 63.1134 45.0112 63.7793 46.9826" stroke="#1E1E1E" stroke-width="1.1729" stroke-linecap="round" stroke-linejoin="round"/>
<path d="M63.6788 22.282C62.2806 22.6995 60.6372 23.6404 59.1164 23.7332C57.4399 23.8359 55.982 23.044 54.4082 22.7392" stroke="#1E1E1E" stroke-width="1.26899" stroke-linecap="round" stroke-linejoin="round"/>
<path d="M65.3181 15.198C65.2187 13.5845 66.448 12.1962 68.0615 12.1001C69.6751 12.0007 71.0634 13.2299 71.1594 14.8435" stroke="#1E1E1E" stroke-width="1.26899" stroke-linecap="round" stroke-linejoin="round"/>
<path d="M45.8396 16.3811C45.7402 14.7676 46.9694 13.3793 48.583 13.2832C50.1966 13.1838 51.5848 14.413 51.6809 16.0266" stroke="#1E1E1E" stroke-width="1.26899" stroke-linecap="round" stroke-linejoin="round"/>
</svg>
