<svg width="280" height="155" viewBox="0 0 280 155" fill="none" xmlns="http://www.w3.org/2000/svg">
<path d="M267.697 47.3641L267.254 47.1144C266.005 45.5641 265.199 43.6262 264.424 41.8047C261.849 35.7758 259.838 29.4369 257.9 23.1841C253.301 19.3514 254.748 13.5207 259.063 10.1014C259.326 9.89042 259.571 9.68802 259.92 9.89903C260.398 10.1919 259.972 10.7947 259.89 11.1952C259.588 12.724 261.681 13.9814 262.65 14.9331C264.704 16.9528 264.937 18.9036 263.942 21.5692C265.497 27.3784 266.982 33.248 268.024 39.1778C268.352 41.0424 268.739 43.1655 268.791 45.0473C268.817 45.9043 268.942 47.4244 267.701 47.3641H267.697ZM267.714 45.9517C267.701 43.2215 267.185 40.4568 266.677 37.7782C265.893 33.6355 264.902 29.5273 263.873 25.4406L260.028 26.4827C261.651 31.4307 263.3 36.4217 265.337 41.219C265.531 41.6755 267.434 46.0206 267.714 45.9517ZM263.623 24.3942L262.986 22.1247L259.028 23.2358L259.666 25.5052L263.623 24.3942Z" fill="#1E1E1E"/>
<path d="M175.41 90.0271L166.289 141.841H193.294L187.821 136.006L196.214 87.8352" stroke="#1E1E1E" stroke-width="0.615999" stroke-linecap="round" stroke-linejoin="round"/>
<path d="M202.777 90.3891C202.777 90.3891 213.358 99.51 214.09 109.363C214.818 119.216 214.09 128.337 214.09 128.337H235.256L230.876 124.323C230.876 124.323 231.423 106.624 230.148 100.057C228.869 93.4897 222.483 85.6436 222.483 85.6436" stroke="#1E1E1E" stroke-width="0.615999" stroke-linecap="round" stroke-linejoin="round"/>
<path d="M230.351 101.335H250.582V141.841H91.3594" stroke="#1E1E1E" stroke-width="0.615999" stroke-linecap="round" stroke-linejoin="round"/>
<path d="M230.145 141.841L246.931 101.335" stroke="#1E1E1E" stroke-width="0.615999" stroke-linecap="round" stroke-linejoin="round"/>
<path d="M214.34 114.1L203.51 141.841" stroke="#1E1E1E" stroke-width="0.615999" stroke-linecap="round" stroke-linejoin="round"/>
<path d="M230.984 114.1H241.643" stroke="#1E1E1E" stroke-width="0.615999" stroke-linecap="round" stroke-linejoin="round"/>
<path d="M208.777 128.341H235.257" stroke="#1E1E1E" stroke-width="0.615999" stroke-linecap="round" stroke-linejoin="round"/>
<path d="M152.301 62.2039C152.301 62.2039 142.505 78.5507 137.742 84.5968C133.672 89.7558 128.04 92.3224 126.834 96.3574C126.593 97.1627 127.57 97.7828 128.208 97.2359L131.411 94.4971C131.411 94.4971 124.16 99.3115 127.432 101.125C130.02 102.559 133.565 96.956 133.565 96.956C133.565 96.956 125.335 104.044 130.283 105.108C134.189 105.948 138.767 99.5398 138.767 99.5398C138.767 99.5398 139.12 108.876 142.302 105.836C144.903 103.351 145.286 98.7 145.338 97.0852C145.351 96.7062 145.506 96.3488 145.764 96.0732L160.509 80.579" stroke="#1E1E1E" stroke-width="0.615999" stroke-linecap="round" stroke-linejoin="round"/>
<path d="M264.997 46.2366C264.997 46.2366 264.997 72.6947 252.41 75.6101C239.823 78.5298 234.164 73.7842 234.164 73.7842" stroke="#1E1E1E" stroke-width="0.615999" stroke-linecap="round" stroke-linejoin="round"/>
<path d="M237.078 56.6359C237.078 56.6359 243.098 63.0222 246.931 57.7297C250.764 52.4372 254.489 44.4533 255.221 38.2521C255.948 32.0467 260.703 27.8739 263.05 30.7247C264.751 32.7917 260.436 37.6579 260.436 37.6579" fill="white"/>
<path d="M237.078 56.6359C237.078 56.6359 243.098 63.0222 246.931 57.7297C250.764 52.4372 254.489 44.4533 255.221 38.2521C255.948 32.0467 260.703 27.8739 263.05 30.7247C264.751 32.7917 260.436 37.6579 260.436 37.6579" stroke="#1E1E1E" stroke-width="0.615999" stroke-linecap="round" stroke-linejoin="round"/>
<path d="M262.043 39.5397C261.815 38.8378 261.978 38.0756 262.388 37.4555C263.266 36.1334 265.29 33.7262 268.218 34.0707C271.801 34.4884 268.985 37.5244 268.343 38.1703C268.261 38.2522 268.18 38.3211 268.089 38.3943C267.275 39.0187 262.909 42.1925 262.043 39.5441V39.5397Z" fill="white" stroke="#1E1E1E" stroke-width="0.615999" stroke-linecap="round" stroke-linejoin="round"/>
<path d="M264.281 43.4194C264.053 42.7175 264.217 41.9552 264.626 41.3351C265.504 40.0131 267.528 37.6058 270.457 37.9503C274.04 38.3681 271.223 41.404 270.582 42.05C270.5 42.1318 270.418 42.2007 270.327 42.2739C269.514 42.8983 265.147 46.0721 264.281 43.4237V43.4194Z" fill="white" stroke="#1E1E1E" stroke-width="0.615999" stroke-linecap="round" stroke-linejoin="round"/>
<path d="M265 46.4772C264.948 46.0035 265.155 45.5427 265.5 45.2068C266.232 44.4876 267.834 43.2388 269.638 43.8503C271.847 44.5953 269.659 46.1369 269.164 46.4556C269.104 46.4944 269.039 46.5288 268.975 46.5633C268.376 46.8475 265.19 48.2686 265 46.4772Z" fill="white" stroke="#1E1E1E" stroke-width="0.615999" stroke-linecap="round" stroke-linejoin="round"/>
<path d="M265.947 30.3025C265.947 30.3025 270.895 28.7823 267.734 34.0447" stroke="#1E1E1E" stroke-width="0.615999" stroke-linecap="round" stroke-linejoin="round"/>
<path d="M225.947 0.666504H163.966C156.308 0.666504 150.1 6.8747 150.1 14.5329V76.514C150.1 84.1722 156.308 90.3804 163.966 90.3804H225.947C233.605 90.3804 239.814 84.1722 239.814 76.514V14.5329C239.814 6.8747 233.605 0.666504 225.947 0.666504Z" fill="#8D8DFF"/>
<path d="M220.414 34.1911C216.896 35.3322 212.878 35.905 208.627 35.7499C204.618 35.6035 200.859 34.8198 197.564 33.5537" stroke="#1E1E1E" stroke-width="0.615999" stroke-linecap="round" stroke-linejoin="round"/>
<path d="M215.141 26.4399C215.171 24.9844 216.377 23.8303 217.832 23.8604C219.288 23.8906 220.442 25.0964 220.412 26.5519" stroke="#1E1E1E" stroke-width="0.615999" stroke-linecap="round" stroke-linejoin="round"/>
<path d="M197.568 26.0779C197.599 24.6223 198.804 23.4682 200.26 23.4984C201.715 23.5285 202.869 24.7343 202.839 26.1898" stroke="#1E1E1E" stroke-width="0.615999" stroke-linecap="round" stroke-linejoin="round"/>
<path d="M97.8309 60.0592C97.8309 60.0592 103.02 70.8939 108.984 66.1139C114.944 61.3338 114.97 52.3508 115.211 48.2081C115.452 44.0654 117.95 43.5702 119.591 46.3004C119.591 46.3004 124.224 34.9274 126.985 37.4165C129.741 39.9055 124.53 46.5674 124.53 46.5674C124.53 46.5674 129.177 36.1289 131.829 38.7945C134.482 41.4644 128.72 48.5483 128.72 48.5483C128.72 48.5483 134.069 38.5835 135.976 42.963C137.884 47.3426 127.725 62.32 126.093 69.3781C124.461 76.4362 119.621 90.4576 105.763 86.935C91.9011 83.4124 88.0469 75.8419 88.0469 75.8419" stroke="#1E1E1E" stroke-width="0.615999" stroke-linecap="round" stroke-linejoin="round"/>
<path d="M33.6831 100.69V149.364L26.2461 154.308H53.2511V100.69" stroke="#1E1E1E" stroke-width="0.615999" stroke-linecap="round" stroke-linejoin="round"/>
<path d="M61.8613 100.69C61.8613 100.69 71.3396 143.49 75.5598 154.308C75.5598 154.308 83.9485 153.916 100.407 150.23L93.5904 146.931C93.5904 146.931 82.8935 109.802 81.1322 98.4546" stroke="#1E1E1E" stroke-width="0.615999" stroke-linecap="round" stroke-linejoin="round"/>
<path d="M53.4176 105.091C81.8956 105.091 104.982 82.0047 104.982 53.5267C104.982 25.0487 81.8956 1.96265 53.4176 1.96265C24.9395 1.96265 1.85352 25.0487 1.85352 53.5267C1.85352 82.0047 24.9395 105.091 53.4176 105.091Z" fill="#F6D307"/>
<path d="M46.4156 29.803C46.153 28.3948 47.0788 27.0383 48.487 26.7714C49.8952 26.5087 51.2517 27.4345 51.5187 28.8427" stroke="#1E1E1E" stroke-width="0.615999" stroke-linecap="round" stroke-linejoin="round"/>
<path d="M29.4098 32.9983C29.1471 31.5901 30.073 30.2337 31.4812 29.9667C32.8893 29.704 34.2458 30.6298 34.5128 32.038" stroke="#1E1E1E" stroke-width="0.615999" stroke-linecap="round" stroke-linejoin="round"/>
<path d="M58.2357 32.1545C59.9927 41.5035 53.8389 50.5081 44.4856 52.265C35.1365 54.022 26.132 47.8683 24.375 38.5149L58.2357 32.1501V32.1545Z" stroke="#1E1E1E" stroke-width="0.615999" stroke-linecap="round" stroke-linejoin="round"/>
<path d="M4.91538 71.5317C4.91538 71.5317 -5.45428 88.5547 4.91538 95.9917C15.285 103.429 36.0286 91.4916 39.7493 93.0548C43.4657 94.6223 48.0649 97.753 49.8262 94.8161C51.5874 91.8792 46.1098 90.415 46.1098 90.415C46.1098 90.415 52.2721 93.0548 53.254 90.5141C54.2358 87.9733 47.6773 85.8159 47.6773 85.8159C47.6773 85.8159 54.1368 87.8872 53.3531 84.9933C52.5693 82.0995 41.024 79.4597 41.7087 77.0137" stroke="#1E1E1E" stroke-width="0.615999" stroke-linecap="round" stroke-linejoin="round"/>
<path d="M44.6406 74.9548C44.6406 74.9548 24.9736 77.108 18.3203 83.5632" stroke="#1E1E1E" stroke-width="0.615999" stroke-linecap="round" stroke-linejoin="round"/>
<path d="M54.7887 70.0978L66.2134 70.6318C70.8083 70.8471 74.7658 73.995 75.9414 78.4478C76.9491 82.2632 77.3238 87.0088 75.1964 91.3797C73.7021 94.4501 69.5853 95.0401 67.3847 92.4261C65.9163 90.6821 64.5942 87.9217 64.211 83.568L52.7001 84.0245C52.7001 84.0245 43.6611 80.1488 42.6836 78.5813L44.2597 75.8554C46.4171 72.1218 50.4781 69.904 54.7887 70.1021V70.0978Z" fill="#1E1E1E"/>
<path d="M51.2578 66.3896L53.2516 70.1319" stroke="#1E1E1E" stroke-width="0.615999" stroke-linecap="round" stroke-linejoin="round"/>
<path d="M68.3426 66.3896L66.2109 70.6357" stroke="#1E1E1E" stroke-width="0.615999" stroke-linecap="round" stroke-linejoin="round"/>
<path d="M33.6831 149.364L26.2461 154.308H53.2511V149.364H33.6831Z" fill="#1E1E1E"/>
<path d="M93.5909 146.931L100.408 150.23L75.5603 154.308L73.9023 149.364L93.5909 146.931Z" fill="#1E1E1E"/>
<path d="M187.821 136.006L193.294 141.841H166.289L167.318 136.006H187.821Z" fill="#1E1E1E"/>
<path d="M230.876 124.328L234.846 128.341H214.09L214.335 124.328H230.876Z" fill="#1E1E1E"/>
<path d="M261.326 9.24436C261.326 9.24436 265.434 0.803944 273.776 5.29114C279.275 8.2496 278.073 15.8115 272.23 13.5765C266.386 11.3415 271.838 -0.414745 279.447 0.34317" stroke="#1E1E1E" stroke-width="0.615999" stroke-linecap="round" stroke-linejoin="round"/>
</svg>
