<svg width="234" height="170" viewBox="0 0 234 170" fill="none" xmlns="http://www.w3.org/2000/svg">
<path d="M161.831 52.0537C161.831 52.0537 153.937 15.0225 137.156 30.0825C120.896 44.6812 113.269 59.1525 90.5136 69.9675C62.7074 83.1825 64.8261 28.0537 64.8261 28.0537" stroke="#1E1E1E" stroke-width="1.125" stroke-miterlimit="10"/>
<path d="M164.314 56.2612C168.874 56.5312 172.35 60.4538 172.084 65.0288C171.863 68.8313 168.255 74.0288 165.911 76.965C165.518 77.46 165.075 78.0413 164.648 78.4988C164.044 79.1475 163.733 79.1812 163.114 78.5212C162.683 78.06 162.229 77.4675 161.831 76.965C159.488 74.0325 155.88 68.8313 155.659 65.0288C155.393 60.4538 158.869 56.5312 163.429 56.2612C163.699 56.2463 164.048 56.2463 164.318 56.2612H164.314ZM168.008 64.4925C168.008 62.2088 166.155 60.3563 163.871 60.3563C161.588 60.3563 159.735 62.2088 159.735 64.4925C159.735 66.7763 161.588 68.6287 163.871 68.6287C166.155 68.6287 168.008 66.7763 168.008 64.4925Z" fill="black"/>
<path d="M65.2709 0.01125C69.8309 0.28125 73.3071 4.20375 73.0409 8.77875C72.8196 12.5813 69.2121 17.7788 66.8684 20.715C66.4746 21.21 66.0321 21.7913 65.6046 22.2488C65.0009 22.8975 64.6896 22.9312 64.0709 22.2712C63.6396 21.81 63.1859 21.2175 62.7884 20.715C60.4446 17.7825 56.8371 12.5813 56.6159 8.77875C56.3496 4.20375 59.8259 0.28125 64.3859 0.01125C64.6559 -0.00375 65.0046 -0.00375 65.2746 0.01125H65.2709ZM68.9646 8.24253C68.9646 5.95878 67.1121 4.10627 64.8284 4.10627C62.5446 4.10627 60.6921 5.95878 60.6921 8.24253C60.6921 10.5263 62.5446 12.3787 64.8284 12.3787C67.1121 12.3787 68.9646 10.5263 68.9646 8.24253Z" fill="black"/>
<path d="M175.297 112.774L204.378 117.859L233.182 112.811C233.231 112.804 233.231 112.733 233.182 112.721L204.048 107.621L175.297 112.774Z" fill="#F6D307"/>
<path d="M204.381 118.106C204.381 118.106 204.351 118.106 204.34 118.106L175.259 113.021C175.139 112.999 175.053 112.898 175.053 112.778C175.053 112.658 175.139 112.553 175.259 112.53L204.01 107.378C204.04 107.374 204.066 107.374 204.096 107.378L233.23 112.478C233.373 112.504 233.474 112.624 233.474 112.766C233.474 112.909 233.373 113.033 233.23 113.055L204.426 118.103C204.426 118.103 204.396 118.103 204.385 118.103L204.381 118.106ZM176.729 112.77L204.381 117.604L231.993 112.766L204.051 107.873L176.729 112.77Z" fill="#1E1E1E"/>
<path d="M204.375 160.946V117.814L175.182 112.755V155.768L204.375 160.946Z" fill="#F6D307"/>
<path d="M204.375 161.198C204.375 161.198 204.345 161.197 204.33 161.194L175.132 156.015C175.012 155.992 174.926 155.891 174.926 155.771V112.759C174.926 112.684 174.96 112.616 175.016 112.567C175.072 112.519 175.147 112.5 175.218 112.511L204.416 117.57C204.536 117.592 204.622 117.694 204.622 117.814V160.946C204.622 161.021 204.588 161.089 204.532 161.137C204.487 161.175 204.431 161.198 204.371 161.198H204.375ZM175.428 155.561L204.127 160.65V118.024L175.428 113.051V155.561Z" fill="#1E1E1E"/>
<path d="M204.375 160.946V117.814L233.321 112.748V155.794L204.375 160.946Z" fill="#F6D307"/>
<path d="M204.374 161.197C204.318 161.197 204.258 161.179 204.213 161.137C204.157 161.089 204.123 161.021 204.123 160.946V117.814C204.123 117.694 204.209 117.589 204.329 117.57L233.272 112.504C233.343 112.492 233.418 112.511 233.474 112.56C233.531 112.609 233.564 112.676 233.564 112.751V155.797C233.564 155.917 233.478 156.022 233.358 156.041L204.416 161.194C204.416 161.194 204.386 161.197 204.371 161.197H204.374ZM204.622 118.027V160.654L233.066 155.587V113.047L204.622 118.027Z" fill="#1E1E1E"/>
<path d="M173.479 79.1811L195.397 83.0137L217.072 79.2149C217.117 79.2074 217.117 79.1436 217.072 79.1361L195.15 75.2961L173.479 79.1811Z" fill="#F6D307"/>
<path d="M195.397 83.265C195.397 83.265 195.367 83.265 195.355 83.265L173.437 79.4325C173.317 79.41 173.23 79.3088 173.23 79.1888C173.23 79.0688 173.317 78.9638 173.437 78.9413L195.108 75.0563C195.138 75.0525 195.164 75.0525 195.194 75.0563L217.117 78.8963C217.255 78.9225 217.357 79.0425 217.357 79.1813C217.357 79.3238 217.255 79.4438 217.117 79.4663L195.442 83.265C195.442 83.265 195.412 83.265 195.4 83.265H195.397ZM174.907 79.1813L195.397 82.7625L215.853 79.1775L195.149 75.5513L174.907 79.1775V79.1813Z" fill="#1E1E1E"/>
<path d="M195.394 115.492V82.9836L173.389 79.1699V111.589L195.394 115.492Z" fill="#F6D307"/>
<path d="M186.827 85.7774V81.5849L181.266 80.6174V84.7912L186.827 85.7774Z" fill="#1E1E1E"/>
<path d="M195.393 115.74C195.393 115.74 195.363 115.74 195.348 115.736L173.343 111.833C173.223 111.81 173.137 111.709 173.137 111.589V79.1701C173.137 79.0951 173.17 79.0276 173.227 78.9789C173.283 78.9301 173.358 78.9113 173.429 78.9226L195.434 82.7363C195.554 82.7588 195.64 82.8601 195.64 82.9801V115.489C195.64 115.564 195.607 115.631 195.55 115.68C195.505 115.718 195.449 115.74 195.389 115.74H195.393ZM173.635 111.379L195.142 115.193V83.1901L173.635 79.4626V111.375V111.379Z" fill="#1E1E1E"/>
<path d="M195.393 115.493V82.9838L217.206 79.1626V111.608L195.393 115.493Z" fill="#F6D307"/>
<path d="M195.392 115.74C195.336 115.74 195.276 115.721 195.231 115.68C195.174 115.631 195.141 115.564 195.141 115.489V82.9802C195.141 82.8602 195.227 82.7552 195.347 82.7364L217.161 78.9189C217.232 78.9077 217.307 78.9264 217.363 78.9752C217.419 79.0239 217.453 79.0914 217.453 79.1664V111.608C217.453 111.728 217.367 111.833 217.247 111.851L195.433 115.736C195.433 115.736 195.403 115.74 195.388 115.74H195.392ZM195.639 83.1902V115.193L216.954 111.398V79.4589L195.639 83.1902Z" fill="#1E1E1E"/>
<path d="M128.4 109.59L164.239 115.856L199.789 109.627C199.838 109.62 199.838 109.545 199.789 109.537L163.834 103.241L128.404 109.59H128.4Z" fill="#F6D307"/>
<path d="M164.239 116.104C164.239 116.104 164.209 116.104 164.197 116.104L128.359 109.838C128.239 109.815 128.152 109.714 128.152 109.594C128.152 109.474 128.239 109.369 128.359 109.346L163.789 102.998C163.819 102.994 163.845 102.994 163.875 102.998L199.83 109.294C199.972 109.32 200.074 109.44 200.074 109.583C200.074 109.725 199.972 109.849 199.83 109.871L164.28 116.1C164.28 116.1 164.25 116.1 164.239 116.1V116.104ZM129.832 109.586L164.239 115.601L198.6 109.583L163.834 103.496L129.832 109.59V109.586Z" fill="#1E1E1E"/>
<path d="M164.231 168.953V115.804L128.254 109.568V162.574L164.231 168.953Z" fill="#F6D307"/>
<path d="M150.162 119.228V113.321L142.324 111.964V117.836L150.162 119.228Z" fill="#1E1E1E"/>
<path d="M164.231 169.204C164.231 169.204 164.201 169.204 164.186 169.2L128.208 162.818C128.088 162.795 128.002 162.694 128.002 162.574V109.568C128.002 109.493 128.036 109.425 128.092 109.376C128.148 109.328 128.223 109.309 128.294 109.32L164.272 115.556C164.392 115.579 164.478 115.68 164.478 115.8V168.949C164.478 169.024 164.444 169.091 164.388 169.14C164.343 169.178 164.287 169.2 164.227 169.2L164.231 169.204ZM128.501 162.364L163.979 168.656V116.014L128.501 109.864V162.364Z" fill="#1E1E1E"/>
<path d="M164.232 168.953V115.804L199.899 109.56V162.604L164.232 168.953Z" fill="#F6D307"/>
<path d="M164.232 169.204C164.175 169.204 164.115 169.185 164.07 169.144C164.014 169.095 163.98 169.027 163.98 168.952V115.804C163.98 115.684 164.067 115.579 164.187 115.56L199.853 109.316C199.924 109.305 199.999 109.324 200.055 109.372C200.112 109.421 200.145 109.489 200.145 109.564V162.607C200.145 162.727 200.059 162.832 199.939 162.851L164.273 169.2C164.273 169.2 164.243 169.204 164.228 169.204H164.232ZM164.479 116.014V168.656L199.647 162.394V109.856L164.479 116.014Z" fill="#1E1E1E"/>
<path d="M155.258 148.691C155.258 148.691 155.235 148.691 155.22 148.691L136.86 146.021C136.736 146.003 136.646 145.898 136.646 145.774V125.91C136.646 125.839 136.676 125.768 136.733 125.723C136.789 125.678 136.86 125.655 136.931 125.663L155.291 128.258C155.415 128.276 155.505 128.381 155.505 128.505V148.444C155.505 148.515 155.475 148.586 155.419 148.631C155.374 148.673 155.314 148.691 155.258 148.691ZM137.149 145.556L155.01 148.151V128.715L137.149 126.191V145.553V145.556Z" fill="#1E1E1E"/>
<path d="M139.365 143.648C139.226 143.648 139.117 143.535 139.117 143.4V128.738C139.117 128.599 139.23 128.49 139.365 128.49C139.5 128.49 139.612 128.603 139.612 128.738V143.4C139.612 143.539 139.5 143.648 139.365 143.648Z" fill="#1E1E1E"/>
<path d="M141.615 144.052C141.476 144.052 141.367 143.94 141.367 143.805V129.142C141.367 129.004 141.48 128.895 141.615 128.895C141.75 128.895 141.862 129.007 141.862 129.142V143.805C141.862 143.944 141.75 144.052 141.615 144.052Z" fill="#1E1E1E"/>
<path d="M143.865 144.457C143.726 144.457 143.617 144.345 143.617 144.21V129.547C143.617 129.409 143.73 129.3 143.865 129.3C144 129.3 144.112 129.412 144.112 129.547V144.21C144.112 144.349 144 144.457 143.865 144.457Z" fill="#1E1E1E"/>
<path d="M146.115 144.866C145.976 144.866 145.867 144.754 145.867 144.619V129.956C145.867 129.818 145.98 129.709 146.115 129.709C146.25 129.709 146.362 129.821 146.362 129.956V144.619C146.362 144.757 146.25 144.866 146.115 144.866Z" fill="#1E1E1E"/>
<path d="M149.265 144.69C149.126 144.69 149.018 144.578 149.018 144.443V130.62C149.018 130.481 149.13 130.373 149.265 130.373C149.4 130.373 149.513 130.485 149.513 130.62V144.443C149.513 144.581 149.4 144.69 149.265 144.69Z" fill="#1E1E1E"/>
<path d="M152.861 146.081C152.722 146.081 152.613 145.969 152.613 145.834V131.171C152.613 131.032 152.726 130.924 152.861 130.924C152.996 130.924 153.108 131.036 153.108 131.171V145.834C153.108 145.972 152.996 146.081 152.861 146.081Z" fill="#1E1E1E"/>
<path d="M36.877 102.675L43.267 158.94L37.3832 165.476H60.8882V107.201" stroke="#1E1E1E" stroke-width="0.75" stroke-linecap="round" stroke-linejoin="round"/>
<path d="M43.2666 158.94L37.3828 165.476H60.8878V158.899L43.2666 158.94Z" fill="#1E1E1E"/>
<path d="M90.1753 102.675L83.7891 158.94L89.6691 165.476H66.1641V107.201" stroke="#1E1E1E" stroke-width="0.75" stroke-linecap="round" stroke-linejoin="round"/>
<path d="M83.7891 158.94L89.6691 165.476H66.1641V158.899L83.7891 158.94Z" fill="#1E1E1E"/>
<path d="M13.1539 77.5988L11.8639 69.0488C11.6127 67.395 13.7727 66.4875 14.7439 67.8488C16.1389 69.8025 16.3039 74.9963 17.3202 81.735C18.8277 91.725 26.7964 87.6638 26.7964 87.6638" stroke="#1E1E1E" stroke-width="0.75" stroke-linecap="round" stroke-linejoin="round"/>
<path d="M32.1365 109.219C10.9152 116.959 3.19771 96.5062 0.925214 81.4462C-0.548536 71.6624 1.24771 65.7862 2.68771 62.8687C3.19396 61.8412 4.67521 61.9049 5.10646 62.9624L6.73021 66.9562C7.28896 68.3287 7.07146 69.8625 6.26146 71.1C5.53771 72.2025 5.02021 74.235 5.85271 77.94" stroke="#1E1E1E" stroke-width="0.75" stroke-linecap="round" stroke-linejoin="round"/>
<path d="M4.3418 53.1L8.3843 52.4888L11.7818 68.5088L13.1205 77.3888C13.1693 77.7188 12.7455 77.9025 12.543 77.6362L7.69055 71.31L4.3418 53.1038V53.1Z" fill="#1E1E1E"/>
<path d="M91.972 48.48H35.0845C29.3705 48.48 24.7383 53.1122 24.7383 58.8263V115.714C24.7383 121.428 29.3705 126.06 35.0845 126.06H91.972C97.6861 126.06 102.318 121.428 102.318 115.714V58.8263C102.318 53.1122 97.6861 48.48 91.972 48.48Z" fill="#FFB9FF"/>
<path d="M78.4486 94.8263C78.4486 94.8263 75.6774 95.7976 73.8736 91.7776C72.0699 87.7576 70.1311 81.4501 65.9724 83.9438C62.9311 85.7663 61.9674 89.2576 62.5861 91.6538C62.9424 93.0301 64.6974 93.4838 65.6499 92.4338C66.2874 91.7288 66.9249 90.6788 67.2174 89.1563C67.2174 89.1563 67.3561 91.5038 69.7111 90.9488" stroke="#1E1E1E" stroke-width="0.75" stroke-linecap="round" stroke-linejoin="round"/>
<path d="M64.4684 85.1402C64.4684 85.1402 58.2734 83.8839 58.2734 89.1114C58.2734 98.3364 64.4684 93.0039 64.4684 93.0039" stroke="#1E1E1E" stroke-width="0.75" stroke-linecap="round" stroke-linejoin="round"/>
<path d="M60.4828 85.4438C60.4828 85.4438 53.984 85.7813 56.4815 94.9313C58.9753 104.081 73.6828 113.528 87.464 105.503" stroke="#1E1E1E" stroke-width="0.75" stroke-linecap="round" stroke-linejoin="round"/>
<path d="M58.2631 85.7589C58.2631 85.7589 53.7294 82.4138 51.0481 83.1601C49.8781 83.4863 49.8144 85.1213 50.9319 85.5938C52.4581 86.2388 55.3231 88.0426 55.9081 89.7751" stroke="#1E1E1E" stroke-width="0.75" stroke-linecap="round" stroke-linejoin="round"/>
<path d="M55.8187 68.0627C54.5887 68.4302 53.1449 69.2553 51.8099 69.3378C50.3362 69.4278 49.0537 68.7303 47.6699 68.464" stroke="#1E1E1E" stroke-width="0.75" stroke-linecap="round" stroke-linejoin="round"/>
<path d="M57.2626 61.8377C57.1764 60.4202 58.2564 59.2014 59.6739 59.1152C61.0914 59.0289 62.3101 60.1089 62.3964 61.5264" stroke="#1E1E1E" stroke-width="0.75" stroke-linecap="round" stroke-linejoin="round"/>
<path d="M40.1435 62.8802C40.0572 61.4627 41.1372 60.2439 42.5547 60.1577C43.9722 60.0714 45.191 61.1514 45.2772 62.5689" stroke="#1E1E1E" stroke-width="0.75" stroke-linecap="round" stroke-linejoin="round"/>
</svg>
