<svg width="236" height="207" viewBox="0 0 236 207" fill="none" xmlns="http://www.w3.org/2000/svg">
<path d="M187.81 84.4171L117.717 114.981C112.749 117.148 110.478 122.932 112.644 127.9L143.209 197.992C145.375 202.96 151.159 205.231 156.127 203.065L226.219 172.501C231.187 170.334 233.459 164.551 231.292 159.582L200.728 89.4902C198.561 84.522 192.778 82.2507 187.81 84.4171Z" fill="#98D81E"/>
<path d="M195.488 136.375C194.16 143.706 187.301 151.405 177.319 155.759C167.19 160.176 156.72 159.891 150.473 155.702" stroke="#1E1E1E" stroke-width="0.95625" stroke-linecap="round" stroke-linejoin="round"/>
<path d="M178.095 140.86C177.431 139.405 178.072 137.688 179.531 137.024C180.986 136.36 182.704 137.001 183.367 138.46" stroke="#1E1E1E" stroke-width="0.95625" stroke-linecap="round" stroke-linejoin="round"/>
<path d="M160.523 148.866C159.859 147.411 160.5 145.694 161.959 145.03C163.414 144.366 165.131 145.008 165.795 146.466" stroke="#1E1E1E" stroke-width="0.95625" stroke-linecap="round" stroke-linejoin="round"/>
<path d="M125.985 114.771L118.849 97.4951L148.74 105.374L125.985 114.771Z" fill="#98D81E"/>
<path d="M48.0488 199.585C74.5854 199.585 96.0975 178.073 96.0975 151.536C96.0975 125 74.5854 103.488 48.0488 103.488C21.5122 103.488 0 125 0 151.536C0 178.073 21.5122 199.585 48.0488 199.585Z" fill="#64BDFF"/>
<path d="M56.5204 129.164C56.2279 127.6 57.2555 126.092 58.8192 125.8C60.383 125.507 61.8905 126.535 62.183 128.099" stroke="#1E1E1E" stroke-width="0.95625" stroke-linecap="round" stroke-linejoin="round"/>
<path d="M37.6396 132.711C37.3471 131.147 38.3745 129.64 39.9383 129.347C41.502 129.055 43.0095 130.082 43.302 131.646" stroke="#1E1E1E" stroke-width="0.95625" stroke-linecap="round" stroke-linejoin="round"/>
<path d="M69.6491 131.77C71.5991 142.154 64.7666 152.151 54.3829 154.105C43.9991 156.055 34.0016 149.223 32.0479 138.839L69.6491 131.774V131.77Z" stroke="#1E1E1E" stroke-width="0.95625" stroke-linecap="round" stroke-linejoin="round"/>
<path d="M79.4961 121.982L103.192 118.536L84.0336 153.194L79.4961 121.982Z" fill="#64BDFF"/>
<path d="M34.9424 65.0988L38.9137 89.9875C39.5774 94.15 43.4924 96.9888 47.6549 96.325L173.284 76.285C177.446 75.6213 180.285 71.7063 179.621 67.5438L169.871 6.43378C169.208 2.27128 165.292 -0.56747 161.13 0.0962798L35.5011 20.1363C31.3386 20.8 28.4999 24.715 29.1637 28.8775L30.8737 39.6025L34.9424 65.095V65.0988Z" fill="#FFB9FF"/>
<path d="M84.4688 90.6625L98.0587 70.9487L110.438 108.561L84.4688 90.6625Z" fill="#FFB9FF"/>
<path d="M75.1201 43.135C74.4376 45.0288 72.7913 46.5175 70.6688 46.9C68.5463 47.2825 66.4839 46.465 65.1826 44.9313" stroke="#1E1E1E" stroke-width="0.95625" stroke-linecap="round" stroke-linejoin="round"/>
<path d="M75.821 36.2574C75.4835 34.5474 76.5973 32.8824 78.3073 32.5449C80.0173 32.2074 81.6823 33.3212 82.0198 35.0312" stroke="#1E1E1E" stroke-width="0.95625" stroke-linecap="round" stroke-linejoin="round"/>
<path d="M55.1589 40.3411C54.8214 38.6311 55.9351 36.9661 57.6451 36.6286C59.3551 36.2911 61.0202 37.4049 61.3577 39.1149" stroke="#1E1E1E" stroke-width="0.95625" stroke-linecap="round" stroke-linejoin="round"/>
</svg>
