<svg width="218" height="214" viewBox="0 0 218 214" fill="none" xmlns="http://www.w3.org/2000/svg">
<path d="M51.8985 203.591L51.501 147.54L90.7072 142.264L90.0397 204.131L51.8985 203.591Z" fill="white" stroke="#1E1E1E" stroke-width="0.75" stroke-linecap="round" stroke-linejoin="round"/>
<path d="M74.1918 182.141L68.6006 181.342L68.8481 163.905L74.7393 162.705L74.1918 182.141Z" fill="white" stroke="#1E1E1E" stroke-width="0.75" stroke-linecap="round" stroke-linejoin="round"/>
<path d="M73.3823 203.895L67.6973 203.614L67.926 187.275L73.8173 186.071L73.3823 203.895Z" fill="white" stroke="#1E1E1E" stroke-width="0.75" stroke-linecap="round" stroke-linejoin="round"/>
<path d="M90.7075 142.264L125.541 145.027L125.264 156.589L137.328 157.091V145.834L176.658 149.996L174.396 203.752L90.04 204.131L90.7075 142.264Z" fill="white" stroke="#1E1E1E" stroke-width="0.75" stroke-linecap="round" stroke-linejoin="round"/>
<path d="M121.408 174.495L105.913 174.127V167.861L121.408 168.229V174.495Z" fill="white" stroke="#1E1E1E" stroke-width="0.75" stroke-linecap="round" stroke-linejoin="round"/>
<path d="M121.64 185.543L106.146 185.171V178.905L121.64 179.276V185.543Z" fill="white" stroke="#1E1E1E" stroke-width="0.75" stroke-linecap="round" stroke-linejoin="round"/>
<path d="M69.8984 117.262L72.3772 118.012L74.571 121.009L99.591 113.4L93.3322 103.181L69.8984 117.262Z" fill="white" stroke="#1E1E1E" stroke-width="0.75" stroke-linecap="round" stroke-linejoin="round"/>
<path d="M64.5439 17.0586L84.3402 62.4673L48.539 82.0498L26.2939 39.5061L64.5439 17.0586Z" fill="white" stroke="#1E1E1E" stroke-width="0.75" stroke-linecap="round" stroke-linejoin="round"/>
<path d="M17.6836 97.8561L40.2849 86.6287L60.9736 125.659L35.8336 132.431L17.6836 97.8561Z" fill="white" stroke="#1E1E1E" stroke-width="0.75" stroke-linecap="round" stroke-linejoin="round"/>
<path d="M26.2939 39.5063L34.289 23.4637L60.2427 7.88623L47.5265 27.0488L26.2939 39.5063Z" fill="white" stroke="#1E1E1E" stroke-width="0.75" stroke-linecap="round" stroke-linejoin="round"/>
<path d="M40.2852 86.6288L67.3789 71.31L47.5264 27.0488L60.2426 7.88623L109.12 108.161L99.6027 113.303L95.5714 106.474L60.9739 125.659L40.2852 86.6288Z" fill="white" stroke="#1E1E1E" stroke-width="0.75" stroke-linecap="round" stroke-linejoin="round"/>
<path d="M71.2558 79.4548L79.9146 96.3223L74.9008 99.2435L65.8633 82.9798L71.2558 79.4548Z" fill="white" stroke="#1E1E1E" stroke-width="0.75" stroke-linecap="round" stroke-linejoin="round"/>
<path d="M61.4198 85.0012L70.8436 102.982L65.8298 105.904L56.0273 88.5225L61.4198 85.0012Z" fill="white" stroke="#1E1E1E" stroke-width="0.75" stroke-linecap="round" stroke-linejoin="round"/>
<path d="M40.6898 136.249C40.6898 136.249 42.786 140.621 45.1898 138.694C47.5973 136.762 47.5073 133.166 47.3085 131.501C46.7685 126.967 48.8048 129.596 49.4685 130.695C49.4685 130.695 51.3398 126.105 52.4535 127.11C53.5673 128.115 51.4636 130.804 51.4636 130.804C51.4636 130.804 53.3386 126.589 54.4111 127.669C55.4836 128.749 53.1548 131.606 53.1548 131.606C53.1548 131.606 55.3148 127.582 56.0835 129.352C56.8523 131.119 52.7535 137.167 52.0935 140.014C51.4373 142.864 49.4835 148.522 43.8885 147.101C38.2935 145.68 36.7373 142.624 36.7373 142.624" fill="white"/>
<path d="M40.6898 136.249C40.6898 136.249 42.786 140.621 45.1898 138.694C47.5973 136.762 47.5073 133.166 47.3085 131.501C46.7685 126.967 48.8048 129.596 49.4685 130.695C49.4685 130.695 51.3398 126.105 52.4535 127.11C53.5673 128.115 51.4636 130.804 51.4636 130.804C51.4636 130.804 53.3386 126.589 54.4111 127.669C55.4836 128.749 53.1548 131.606 53.1548 131.606C53.1548 131.606 55.3148 127.582 56.0835 129.352C56.8523 131.119 52.7535 137.167 52.0935 140.014C51.4373 142.864 49.4835 148.522 43.8885 147.101C38.2935 145.68 36.7373 142.624 36.7373 142.624" stroke="#1E1E1E" stroke-width="0.75" stroke-linecap="round" stroke-linejoin="round"/>
<path d="M10.1652 142.864C4.01893 139.56 18.8389 125.168 22.1764 119.419C22.8026 118.339 23.1964 116.711 23.6914 116.201C24.5314 115.339 25.4202 112.913 24.7639 112.23C23.9089 111.345 23.2001 112.56 22.8289 113.711C22.4576 114.863 22.3677 114.371 22.1127 112.084C21.9514 110.636 22.3039 109.253 22.3864 108.323C22.4202 107.925 21.9851 107.666 21.6551 107.884C20.8301 108.428 19.5589 109.56 18.6739 111.724C17.7027 114.086 17.3277 116.873 17.3277 116.873C17.3277 116.873 3.58017 124.871 0.591417 137.659C-0.814833 143.674 4.76889 148.883 13.3639 145.02" fill="white"/>
<path d="M10.1652 142.864C4.01893 139.56 18.8389 125.168 22.1764 119.419C22.8026 118.339 23.1964 116.711 23.6914 116.201C24.5314 115.339 25.4202 112.913 24.7639 112.23C23.9089 111.345 23.2001 112.56 22.8289 113.711C22.4576 114.863 22.3677 114.371 22.1127 112.084C21.9514 110.636 22.3039 109.253 22.3864 108.323C22.4202 107.925 21.9851 107.666 21.6551 107.884C20.8301 108.428 19.5589 109.56 18.6739 111.724C17.7027 114.086 17.3277 116.873 17.3277 116.873C17.3277 116.873 3.58017 124.871 0.591417 137.659C-0.814833 143.674 4.76889 148.883 13.3639 145.02" stroke="#1E1E1E" stroke-width="0.75" stroke-linecap="round" stroke-linejoin="round"/>
<path d="M10.5625 146.434L13.5625 172.849L10.7988 175.916H21.835V148.56" stroke="#1E1E1E" stroke-width="0.75" stroke-linecap="round" stroke-linejoin="round"/>
<path d="M13.5626 172.849L10.7988 175.916H21.8351V172.83L13.5626 172.849Z" fill="#1E1E1E"/>
<path d="M35.586 146.434L32.586 172.849L35.3459 175.916H24.3135V148.56" stroke="#1E1E1E" stroke-width="0.75" stroke-linecap="round" stroke-linejoin="round"/>
<path d="M32.586 172.849L35.3459 175.916H24.3135V172.83L32.586 172.849Z" fill="#1E1E1E"/>
<path d="M38.5187 122.955L12.0608 119.312C9.40388 118.946 6.95342 120.804 6.58757 123.46L2.94448 149.918C2.57863 152.575 4.43593 155.026 7.09289 155.392L33.5508 159.035C36.2077 159.401 38.6582 157.543 39.0241 154.886L42.6672 128.428C43.033 125.771 41.1757 123.321 38.5187 122.955Z" fill="#64BDFF"/>
<path d="M155.722 148.196L131.819 146.602V99.6075L166.878 89.5537L167.508 160.26L155.444 159.757L155.722 148.196Z" fill="white" stroke="#1E1E1E" stroke-width="0.75" stroke-linecap="round" stroke-linejoin="round"/>
<path d="M166.878 89.5537L178.312 90.7837L178.555 98.505L207.217 102.874L206.834 153.165L167.407 149.029L166.878 89.5537Z" fill="white" stroke="#1E1E1E" stroke-width="0.75" stroke-linecap="round" stroke-linejoin="round"/>
<path d="M194.246 137.936L183.967 136.965L183.881 119.516L195.026 120.63L194.246 137.936Z" fill="white" stroke="#1E1E1E" stroke-width="0.75" stroke-linecap="round" stroke-linejoin="round"/>
<path d="M195.487 115.481L183.547 114.476L183.423 102.285L195.487 104.171V115.481Z" fill="white" stroke="#1E1E1E" stroke-width="0.75" stroke-linecap="round" stroke-linejoin="round"/>
<path d="M182.797 173.449C182.707 168.799 174.442 159.825 172.402 158.816C172.049 158.644 171.73 158.408 171.471 158.111C171.363 157.991 171.28 157.875 171.284 157.811C171.306 157.087 171.76 155.314 170.665 154.129C169.33 152.678 169.27 157.012 169.27 157.012C169.27 157.012 167.039 153.847 165.269 154.114C163.027 154.451 166.799 157.132 166.799 157.132C166.799 157.132 165.078 155.246 163.878 155.816C162.363 156.536 165.505 158.31 165.505 158.31L164.114 157.579C163.844 157.316 163.39 157.564 163.473 157.931C163.897 159.772 165.419 159.293 167.092 161.719C167.493 162.3 168.843 165.037 169.266 166.189C171.91 173.374 178.743 178.151 186.4 178.151" fill="white"/>
<path d="M182.797 173.449C182.707 168.799 174.442 159.825 172.402 158.816C172.049 158.644 171.73 158.408 171.471 158.111C171.363 157.991 171.28 157.875 171.284 157.811C171.306 157.087 171.76 155.314 170.665 154.129C169.33 152.678 169.27 157.012 169.27 157.012C169.27 157.012 167.039 153.847 165.269 154.114C163.027 154.451 166.799 157.132 166.799 157.132C166.799 157.132 165.078 155.246 163.878 155.816C162.363 156.536 165.505 158.31 165.505 158.31L164.114 157.579C163.844 157.316 163.39 157.564 163.473 157.931C163.897 159.772 165.419 159.293 167.092 161.719C167.493 162.3 168.843 165.037 169.266 166.189C171.91 173.374 178.743 178.151 186.4 178.151" stroke="#1E1E1E" stroke-width="0.75" stroke-linecap="round" stroke-linejoin="round"/>
<path d="M204.674 176.119C200.579 173.917 200.455 164.741 200.493 162.461C200.5 162.067 200.433 161.677 200.29 161.314C200.23 161.164 200.166 161.036 200.11 161.01C199.454 160.699 197.669 160.29 197.114 158.779C196.435 156.926 200.316 158.854 200.316 158.854C200.316 158.854 198.52 155.422 199.563 153.971C200.886 152.13 201.546 156.712 201.546 156.712C201.546 156.712 200.658 154.32 201.708 153.514C203.039 152.494 203.181 156.101 203.181 156.101L203.166 154.53C203.058 154.17 203.485 153.877 203.77 154.121C205.214 155.336 204.093 156.472 205.488 159.071C205.821 159.694 211.945 170.445 211.285 183.75" fill="white"/>
<path d="M204.674 176.119C200.579 173.917 200.455 164.741 200.493 162.461C200.5 162.067 200.433 161.677 200.29 161.314C200.23 161.164 200.166 161.036 200.11 161.01C199.454 160.699 197.669 160.29 197.114 158.779C196.435 156.926 200.316 158.854 200.316 158.854C200.316 158.854 198.52 155.422 199.563 153.971C200.886 152.13 201.546 156.712 201.546 156.712C201.546 156.712 200.658 154.32 201.708 153.514C203.039 152.494 203.181 156.101 203.181 156.101L203.166 154.53C203.058 154.17 203.485 153.877 203.77 154.121C205.214 155.336 204.093 156.472 205.488 159.071C205.821 159.694 211.945 170.445 211.285 183.75" stroke="#1E1E1E" stroke-width="0.75" stroke-linecap="round" stroke-linejoin="round"/>
<path d="M182.969 188.49L181.848 210.06L179.047 212.651H190.811L192.562 188.49" fill="white"/>
<path d="M182.969 188.49L181.848 210.06L179.047 212.651H190.811L192.562 188.49" stroke="#1E1E1E" stroke-width="0.75" stroke-miterlimit="10"/>
<path d="M203.68 188.49L204.802 210.06L207.603 212.651H195.835L194.088 188.49" fill="white"/>
<path d="M203.68 188.49L204.802 210.06L207.603 212.651H195.835L194.088 188.49" stroke="#1E1E1E" stroke-width="0.75" stroke-miterlimit="10"/>
<path d="M181.848 210.06L179.047 212.651H190.811L191.021 209.775L181.848 210.06Z" fill="#1E1E1E"/>
<path d="M204.843 210.06L207.645 212.651H195.881L195.671 209.775L204.843 210.06Z" fill="#1E1E1E"/>
<path d="M174.31 189.874C171.021 189.896 168.58 186.802 169.394 183.615C172.109 172.976 181.724 165.079 193.218 165.004C204.711 164.932 214.428 172.706 217.274 183.311C218.129 186.487 215.729 189.611 212.436 189.63L174.306 189.87L174.31 189.874Z" fill="#98D81E"/>
<path d="M135.802 61.9724L134.606 88.3612L137.55 91.2187L126.611 91.9612L124.77 64.8374" fill="white"/>
<path d="M135.802 61.9724L134.606 88.3612L137.55 91.2187L126.611 91.9612L124.77 64.8374" stroke="#1E1E1E" stroke-width="0.75" stroke-linecap="round" stroke-linejoin="round"/>
<path d="M134.605 88.3611L137.549 91.2186L126.61 91.9611L126.4 88.8973L134.605 88.3611Z" fill="#1E1E1E"/>
<path d="M112.057 62.6624L115.038 88.9124L112.293 91.9611H123.258V64.7736" fill="white"/>
<path d="M112.057 62.6624L115.038 88.9124L112.293 91.9611H123.258V64.7736" stroke="#1E1E1E" stroke-width="0.75" stroke-linecap="round" stroke-linejoin="round"/>
<path d="M115.038 88.9124L112.293 91.9612H123.258V88.8899L115.038 88.9124Z" fill="#1E1E1E"/>
<path d="M124.372 75.1535C135.843 75.1535 145.143 65.8539 145.143 54.3823C145.143 42.9106 135.843 33.6111 124.372 33.6111C112.9 33.6111 103.601 42.9106 103.601 54.3823C103.601 65.8539 112.9 75.1535 124.372 75.1535Z" fill="#F6D307"/>
<path d="M119.347 60.0261C123.596 59.5349 128.032 59.7186 129.236 60.1761C129.603 60.3149 129.993 60.3861 130.383 60.3786C130.544 60.3749 130.683 60.3599 130.732 60.3111C131.249 59.8011 132.239 58.2636 133.852 58.2561C135.824 58.2486 132.689 61.2411 132.689 61.2411C132.689 61.2411 136.394 60.9411 137.538 62.2011C139.064 63.8774 134.283 63.1311 134.283 63.1311C134.283 63.1311 136.837 63.1123 137.234 64.3761C137.741 65.9773 134.302 64.8786 134.302 64.8786L135.783 65.3998C136.158 65.4186 136.289 65.9211 135.963 66.1086C134.328 67.0536 133.642 65.6099 130.724 66.0336C130.027 66.1349 127.162 67.1924 125.969 67.4811C118.139 69.3824 110.752 68.6774 105.547 63.0674" stroke="#1E1E1E" stroke-width="0.75" stroke-linecap="round" stroke-linejoin="round"/>
<path d="M130.485 45.5287C130.473 45.0074 130.886 44.5762 131.407 44.5649C131.928 44.5537 132.36 44.9662 132.371 45.4874" stroke="#1E1E1E" stroke-width="0.75" stroke-linecap="round" stroke-linejoin="round"/>
<path d="M124.203 45.6676C124.192 45.1463 124.605 44.7151 125.126 44.7038C125.647 44.6926 126.078 45.1051 126.09 45.6263" stroke="#1E1E1E" stroke-width="0.75" stroke-linecap="round" stroke-linejoin="round"/>
<path d="M129.982 47.4224C130.001 48.3524 129.266 49.1211 128.336 49.1398C127.406 49.1586 126.637 48.4236 126.618 47.4936" stroke="#1E1E1E" stroke-width="0.75" stroke-linecap="round" stroke-linejoin="round"/>
<path d="M133.886 60.6975L146.835 65.4675L169.192 57.2512L155.954 52.0012L133.886 60.6975Z" fill="white" stroke="#1E1E1E" stroke-width="0.75" stroke-linecap="round" stroke-linejoin="round"/>
<path d="M156.086 51.7125L167.606 56.73L165.45 64.5562L199.627 79.785L216.705 29.325L203.685 0.375L168.911 6.11623L156.086 51.7125Z" fill="white" stroke="#1E1E1E" stroke-width="0.75" stroke-linecap="round" stroke-linejoin="round"/>
<path d="M145.657 26.4374C146.572 24.9786 168.911 6.11987 168.911 6.11987L156.086 51.7161L133.882 60.6974L145.657 26.4374Z" fill="white" stroke="#1E1E1E" stroke-width="0.75" stroke-linecap="round" stroke-linejoin="round"/>
<path d="M141.49 73.6498L168.805 85.6911L199.626 79.7849L164.185 64.2974L141.49 73.6498Z" fill="white" stroke="#1E1E1E" stroke-width="0.75" stroke-linecap="round" stroke-linejoin="round"/>
<path d="M174.123 47.685L180.896 50.5762L188.133 30.0375L181.158 27.4688L174.123 47.685Z" fill="white" stroke="#1E1E1E" stroke-width="0.75" stroke-linecap="round" stroke-linejoin="round"/>
<path d="M187.016 53.0586L193.788 55.9536L200.984 35.8423L194.538 33.1536L187.016 53.0586Z" fill="white" stroke="#1E1E1E" stroke-width="0.75" stroke-linecap="round" stroke-linejoin="round"/>
<path d="M141.49 73.6499L144.697 65.1299L167.354 57.1086L165.449 64.5561L141.49 73.6499Z" fill="white" stroke="#1E1E1E" stroke-width="0.75" stroke-linecap="round" stroke-linejoin="round"/>
</svg>
