<svg width="318" height="234" viewBox="0 0 318 234" fill="none" xmlns="http://www.w3.org/2000/svg">
<path d="M119.873 17.3046C119.873 7.74757 112.125 0.00012207 102.568 0.00012207C93.0113 0.00012207 85.2637 7.74757 85.2637 17.3046V64.4634C85.2637 74.0204 93.0113 81.7679 102.568 81.7679C112.125 81.7679 119.873 74.0204 119.873 64.4634V17.3046Z" fill="#1E1E1E"/>
<path d="M265.17 17.3047C265.17 7.74769 257.422 0.000244141 247.865 0.000244141C238.308 0.000244141 230.561 7.74769 230.561 17.3047V64.4635C230.561 74.0205 238.308 81.768 247.865 81.768C257.422 81.768 265.17 74.0205 265.17 64.4635V17.3047Z" fill="#1E1E1E"/>
<path d="M302.058 59.9912C311.503 59.9912 318.711 68.2852 317.561 77.6432C308.854 148.533 248.451 203.421 175.216 203.421C101.981 203.421 41.5564 148.533 32.8716 77.6432C31.7208 68.2852 38.951 59.9912 48.374 59.9912H302.058Z" fill="#8D8DFF"/>
<path d="M122.109 233.992C104.023 233.992 84.156 229.367 66.5475 220.704C44.7268 209.956 15.5241 188.027 0.368997 144.603C-0.825169 141.216 0.976862 137.503 4.36395 136.309C7.77275 135.115 11.4638 136.917 12.658 140.304C37.7138 212.171 108.278 226.935 140.477 218.858C145.927 217.491 152.441 213.713 158.824 208.176C151.55 199.752 145.449 189.873 141.606 179.646C137.438 168.552 138.415 157.695 144.385 149.076C149.835 141.216 159.28 135.94 167.9 135.94C176.519 135.94 185.964 141.216 191.414 149.076C197.385 157.695 198.362 168.552 194.193 179.646C190.328 189.938 184.292 199.817 177.149 208.198C183.445 213.604 189.916 217.36 195.474 218.902C198.948 219.857 200.967 223.462 200.012 226.914C199.057 230.388 195.452 232.407 192 231.451C184.01 229.237 175.716 224.265 168.052 217.512C160.235 224.46 151.768 229.476 143.669 231.495C136.982 233.167 129.708 233.992 122.109 233.992ZM167.921 148.967C164.143 148.967 158.542 151.551 155.111 156.501C151.594 161.56 151.16 167.987 153.83 175.065C157.174 183.967 162.233 192.087 167.943 198.883C173.632 192.087 178.669 183.967 182.012 175.065C184.683 167.987 184.227 161.56 180.732 156.501C177.301 151.551 171.699 148.967 167.921 148.967Z" fill="#1E1E1E"/>
</svg>
