<svg width="235" height="285" viewBox="0 0 235 285" fill="none" xmlns="http://www.w3.org/2000/svg">
<path d="M203.225 31.4116H31.2655C13.9981 31.4116 0 45.4096 0 62.6771V234.637C0 251.904 13.9981 265.902 31.2655 265.902H203.225C220.493 265.902 234.491 251.904 234.491 234.637V62.6771C234.491 45.4096 220.493 31.4116 203.225 31.4116Z" fill="#98D81E"/>
<path d="M117.246 96.7219C108.626 96.7219 99.1815 91.4459 93.7318 83.5861C87.7609 74.9664 86.7841 64.1103 90.9528 53.0154C94.7742 42.8324 100.875 32.9534 108.105 24.5508C101.787 19.1011 95.2733 15.3015 89.6716 13.7599C83.2231 11.9795 75.7543 13.4125 69.6966 17.603C64.16 21.446 60.7947 26.874 60.2736 32.8666C59.9479 36.4491 56.7779 39.098 53.2172 38.7723C49.6347 38.4466 46.9856 35.2983 47.3113 31.7158C48.1798 21.9237 53.6513 12.8914 62.2927 6.89889C71.4986 0.537244 83.0279 -1.59054 93.1458 1.21032C101.179 3.42495 109.538 8.46216 117.246 15.2798C124.954 8.46216 133.313 3.42495 141.347 1.21032C151.486 -1.59054 163.015 0.537244 172.199 6.89889C180.862 12.8914 186.312 21.9454 187.181 31.7158C187.506 35.2983 184.858 38.4683 181.275 38.7723C177.736 39.0762 174.523 36.4491 174.219 32.8666C173.676 26.8523 170.332 21.446 164.796 17.603C158.738 13.4125 151.269 11.9795 144.82 13.7599C139.219 15.3015 132.705 19.1011 126.387 24.5508C133.617 32.9534 139.718 42.8107 143.539 53.0154C147.708 64.1103 146.731 74.9664 140.76 83.5861C135.311 91.4459 125.866 96.7219 117.246 96.7219ZM117.246 33.8219C111.536 40.5961 106.499 48.6947 103.155 57.5967C100.484 64.6748 100.94 71.1016 104.458 76.1605C107.888 81.1109 113.49 83.6946 117.268 83.6946C121.046 83.6946 126.647 81.1109 130.078 76.1605C133.595 71.1016 134.03 64.6748 131.359 57.5967C128.015 48.6947 122.978 40.5961 117.268 33.8219H117.246Z" fill="#1E1E1E"/>
<path d="M53.8028 284.445C63.4198 284.445 71.2157 276.648 71.2157 267.031C71.2157 257.414 63.4198 249.618 53.8028 249.618C44.1858 249.618 36.3896 257.414 36.3896 267.031C36.3896 276.648 44.1858 284.445 53.8028 284.445Z" fill="#1E1E1E"/>
<path d="M180.711 284.444C190.328 284.444 198.124 276.648 198.124 267.031C198.124 257.414 190.328 249.618 180.711 249.618C171.094 249.618 163.298 257.414 163.298 267.031C163.298 276.648 171.094 284.444 180.711 284.444Z" fill="#1E1E1E"/>
</svg>
