<svg width="161" height="107" viewBox="0 0 161 107" fill="none" xmlns="http://www.w3.org/2000/svg">
<g opacity="0.4">
<path d="M94.6826 3.55176C97.2677 -0.586007 103.385 -0.516267 105.853 3.75977L159.143 96.0596V96.0605C161.655 100.407 158.516 105.84 153.496 105.84H46.9209C41.9011 105.84 38.7656 100.407 41.2734 96.0596L94.5635 3.75977L94.6826 3.55176Z" stroke="#7777E5"/>
<path d="M153.788 105.785H20.198L14.543 78.7202L21.948 84.0802L84.168 84.8502" stroke="#7777E5" stroke-linecap="round" stroke-linejoin="round"/>
<path d="M14.545 84.85H7.39502L0.5 80.25L5.60999 105.785H20.2" stroke="#7777E5" stroke-linecap="round" stroke-linejoin="round"/>
<path d="M110.545 68.7648C110.545 68.7648 77.3553 59.5748 69.6953 78.7198" stroke="#7777E5" stroke-linecap="round" stroke-linejoin="round"/>
<path d="M80.6736 72.6401C80.6736 72.6401 75.3136 74.1252 75.0586 80.2552C75.0586 80.2552 82.9736 78.7251 93.9536 82.3001C104.934 85.8751 125.359 92.8152 133.019 77.4702" stroke="#7777E5" stroke-linecap="round" stroke-linejoin="round"/>
<path d="M51.3086 69.5302C51.3086 69.5302 65.6086 68.7652 65.8636 78.7202" stroke="#7777E5" stroke-linecap="round" stroke-linejoin="round"/>
<path d="M56.1602 69.5151C56.1602 69.5151 59.7252 72.8802 60.2452 78.7202" stroke="#7777E5" stroke-linecap="round" stroke-linejoin="round"/>
<path d="M26.2752 46.2949H42.1252C44.8002 46.2949 47.1151 48.1649 47.6701 50.7849L53.6101 78.7199H74.8001C76.7751 78.7199 78.3752 80.3199 78.3752 82.2949C78.3752 84.2699 76.7751 85.8699 74.8001 85.8699H29.0102L21.5202 52.2249C20.8452 49.1849 23.1552 46.2949 26.2752 46.2949Z" fill="#7777E5"/>
<path d="M95.0352 46.0217C95.0352 46.0217 101.505 48.0667 104.565 40.5767" stroke="#7777E5" stroke-linecap="round" stroke-linejoin="round"/>
<path d="M102.321 36.5717C102.016 34.9367 103.091 33.3617 104.726 33.0517C106.361 32.7467 107.936 33.8217 108.246 35.4567" stroke="#7777E5" stroke-linecap="round" stroke-linejoin="round"/>
<path d="M88.5517 38.537C88.2467 36.902 89.3218 35.3271 90.9568 35.0171C92.5918 34.7121 94.1667 35.7871 94.4767 37.4221" stroke="#7777E5" stroke-linecap="round" stroke-linejoin="round"/>
</g>
</svg>
